<svg width="210" height="244" viewBox="0 0 210 244" fill="none" xmlns="http://www.w3.org/2000/svg">
<path d="M168.401 1H7.15991V121.829H168.401V1Z" fill="white" stroke="#263238" stroke-width="0.843713" stroke-linecap="round" stroke-linejoin="round"/>
<path d="M174.561 121.5H1V127.914H174.561V121.5Z" fill="white" stroke="#263238" stroke-width="0.843713" stroke-linecap="round" stroke-linejoin="round"/>
<path d="M163.049 5.01318H12.5137V117.821H163.049V5.01318Z" fill="#263238" stroke="#263238" stroke-width="0.843713" stroke-linecap="round" stroke-linejoin="round"/>
<path d="M114.092 20.631C113.648 20.8821 113.259 21.2204 112.948 21.6256C112.638 22.0307 112.413 22.4945 112.286 22.9889C111.766 24.8137 111.422 26.6839 111.258 28.5742C110.875 31.4638 110.651 34.3723 110.589 37.2866C110.589 38.5491 110.664 39.9872 110.814 41.6177L111.149 45.1127C111.333 47.8886 111.542 49.9956 111.784 51.417C111.954 52.4849 112.009 55.33 112.245 56.3939C112.312 56.6958 112.594 56.8346 112.851 56.5591C113.005 56.3939 113.324 55.8263 113.536 55.6018C113.928 55.1879 114.267 55.046 114.222 54.6444C114.222 54.6444 113.522 49.7096 113.273 47.8384C112.98 45.5056 112.788 43.4655 112.721 41.7264L112.662 37.4538C112.643 36.1 112.698 34.7462 112.829 33.3986C113.14 32.8265 113.32 32.1925 113.356 31.5424C113.451 30.7063 113.535 29.5692 113.607 28.131C113.652 27.0013 113.82 25.8798 114.109 24.7866C114.342 23.92 114.825 23.1409 115.497 22.5457C116.365 21.8701 117.45 21.5342 118.548 21.6009C119.071 21.6002 119.579 21.7743 119.991 22.0955C120.403 22.4168 120.696 22.8666 120.823 23.3735C121.334 24.6106 121.634 25.925 121.709 27.2615C121.826 28.9337 121.876 30.33 121.876 31.4421V34.4939C121.324 34.9199 120.63 35.1174 119.936 35.0458H119.493C119.292 35.0081 119.088 34.9885 118.883 34.9872C118.295 34.9872 113.904 34.3474 111.934 34.4939C110.905 34.5705 111.571 35.349 111.571 35.5011C111.571 35.7163 111.216 36.683 112.245 36.849C114.215 37.1667 118.295 36.601 118.883 36.601C119.51 36.601 120.028 36.6009 120.438 36.5424L121.659 36.4922C122.227 36.4113 122.787 36.2798 123.331 36.0993C123.774 35.9571 124 35.7481 124 35.4889C123.943 34.8049 123.811 34.1293 123.607 33.4738C123.465 32.7762 123.372 32.0693 123.331 31.3585C123.331 29.8033 123.331 28.3986 123.44 27.1779C123.548 25.9571 123.49 24.4521 123.49 22.8969C121.611 20.9738 119.725 20.0123 117.829 20.0123C116.553 19.9444 115.278 20.1555 114.092 20.631Z" fill="#D9D9D9"/>
<path d="M56.8058 57.3497C56.5996 50.5047 56.4965 45.5465 56.4965 42.4751L56.3292 42.2494L56.5466 41.7477C56.5425 41.0594 56.4696 40.3731 56.3292 39.6992L55.4931 39.4735C55.1336 39.5876 54.7583 39.644 54.3811 39.6407C53.7646 39.5952 53.1525 39.503 52.55 39.3648C51.9918 39.1918 51.4119 39.0989 50.8276 39.0889L50.2172 39.3062C50.2172 40.6022 50.2172 41.7728 50.167 42.8012C50.1169 43.8296 50.1085 45.0086 50.1085 46.3046L50.2172 46.522C50.2172 47.5588 50.2757 49.1139 50.3844 51.1875C50.4931 53.2611 50.5517 54.7577 50.5517 55.7945C50.5621 56.1498 50.4875 56.5023 50.3343 56.823C50.2748 56.9496 50.18 57.0564 50.0614 57.1305C49.9427 57.2047 49.8052 57.243 49.6653 57.241C48.8292 57.241 48.4446 56.129 48.4446 53.8965C48.4446 52.0153 48.4446 50.3096 48.5031 48.7962L48.5533 43.7377C48.6275 41.9244 48.5716 40.1082 48.3861 38.3029C48.6529 37.0988 48.7458 35.8628 48.662 34.6323C48.662 32.8598 48.5951 30.6942 48.4446 28.1357L48.3359 25.9785L48.2189 21.6474C48.221 21.3782 48.3222 21.1193 48.5031 20.92C48.5802 20.8172 48.6798 20.7336 48.7944 20.6756C48.9089 20.6176 49.0353 20.5868 49.1637 20.5855C49.9078 20.5855 50.2757 21.6641 50.2757 23.8129C50.2757 26.3269 50.2562 28.6011 50.2172 30.6357C50.1782 32.6702 50.1419 34.8999 50.1085 37.3246C50.1085 37.7678 51.5132 37.9852 54.3309 37.9852H54.5483C55.0907 38.0334 55.6327 37.8883 56.0784 37.5755C56.2513 37.3843 56.3822 37.1591 56.4629 36.9143C56.5435 36.6695 56.572 36.4105 56.5466 36.1541C56.5466 34.1975 56.4212 31.639 56.162 28.4952C55.9363 25.0922 55.8276 22.5337 55.8276 20.8363C55.8277 20.7245 55.8525 20.6141 55.9002 20.5129C55.9479 20.4118 56.0173 20.3224 56.1035 20.2511C56.286 20.0847 56.5255 19.9948 56.7724 20.0002L57.274 20.1675C57.4515 20.1725 57.6234 20.2308 57.7674 20.3347C57.7674 23.2165 57.8789 27.5281 58.1018 33.2695C58.3276 39.047 58.4363 43.3698 58.4363 46.2628C58.4363 50.6273 58.5673 54.2895 58.8292 57.2494L58.4363 57.8598C58.4697 57.5337 57.9179 57.3497 56.8058 57.3497ZM54.9747 37.2828L55.0834 37.3999H54.9747V37.2828Z" fill="#D9D9D9"/>
<path d="M32.7157 57.3411C32.0597 57.1425 31.4469 56.822 30.9097 56.3963C30.3227 55.885 29.8425 55.2627 29.4966 54.5652C28.5995 52.5688 28.1269 50.4077 28.1087 48.2191C28.0334 46.9649 28 45.8528 28 44.8746V38.5201C28 36.112 28.0669 33.7876 28.2174 31.5217C28.297 30.1191 28.4646 28.7228 28.7191 27.3411C28.9468 26.1587 29.3 25.0039 29.7726 23.8963C30.1348 22.9329 30.7259 22.072 31.495 21.388C31.9566 21.0626 32.46 20.801 32.9916 20.6104C33.465 20.4323 33.9284 20.2285 34.3796 20H36.7709C36.7924 20.0219 36.8187 20.0386 36.8477 20.0487C36.8767 20.0589 36.9076 20.0622 36.9381 20.0585L37.214 20.1171L37.4314 20.2843C37.5485 20.393 37.5987 20.4682 37.5987 20.5017C37.6452 20.6067 37.6653 20.7215 37.6572 20.8361L36.9381 21.6722H34.6053C34.2302 21.6881 33.8634 21.788 33.532 21.9646C33.2006 22.1411 32.9131 22.3898 32.6906 22.6923C32.0765 23.4506 31.6318 24.3315 31.3863 25.2759C31.0527 26.3462 30.8094 27.4426 30.6589 28.5535C30.4749 29.8077 30.3662 30.903 30.3244 31.8311C30.2492 33.01 30.2157 33.8294 30.2157 34.2726L30.107 34.5485C30.107 36.6221 30.0652 38.4866 29.9983 40.1589L29.8813 45.7609C29.8747 47.2668 29.9865 48.7708 30.2157 50.2592C30.3861 51.7119 30.9434 53.0921 31.8294 54.2559C32.2846 54.8583 32.8835 55.337 33.5715 55.6482C34.2595 55.9593 35.0146 56.0929 35.7676 56.0368C36.2775 56.0545 36.7747 55.8748 37.1555 55.5351C37.7157 55.5351 37.9916 55.7358 37.9916 56.1455C37.9916 56.4047 37.7575 56.7057 37.2977 57.0652C36.8661 57.4103 36.3875 57.6918 35.8763 57.9013H34.0451L32.7157 57.3411Z" fill="#D9D9D9"/>
<path d="M74.7684 57.4916C74.554 57.1913 74.4373 56.8322 74.434 56.4632C74.0995 53.7653 73.8961 52.0931 73.8236 51.4465L73.5477 49.2224C72.6354 49.0283 71.7044 48.9357 70.7718 48.9465L68.7734 48.8378C68.1303 48.7477 67.4828 48.6919 66.8336 48.6706C66.6079 48.6706 66.4741 48.7625 66.4407 48.9465C66.4072 49.1304 66.4407 49.1137 66.3821 49.1137L66.2734 50.2258C66.1387 51.5676 65.935 52.9016 65.6631 54.2224C65.5359 55.0243 65.3113 55.8077 64.9942 56.5552C64.7015 57.1823 64.4256 57.5 64.1581 57.5C63.8895 57.4845 63.6349 57.375 63.439 57.1907C63.3287 57.1225 63.2358 57.0295 63.1676 56.9193C63.0994 56.809 63.0578 56.6843 63.046 56.5552L63.1045 56.388L63.1547 56.2208C63.8236 53.5953 64.3754 50.9866 64.8269 48.3947L65.4875 44.9498L66.1564 40.7692L66.7668 37.0987C66.9507 36.1037 67.2851 34.49 67.7617 32.2743C68.2801 29.7603 68.5951 28.0379 68.7066 27.107C68.8175 26.4258 68.8929 25.7393 68.9323 25.0502C69.0828 23.6455 69.2082 22.6087 69.3169 21.9482C69.3434 21.3771 69.4562 20.8133 69.6514 20.2759H70.0443C70.1678 20.319 70.2982 20.3388 70.429 20.3345C70.6101 20.3484 70.7921 20.326 70.9644 20.2685C71.1367 20.2111 71.2958 20.1198 71.4323 20C71.6861 19.9987 71.932 20.0876 72.1263 20.2509C72.218 20.3188 72.2928 20.4069 72.345 20.5084C72.3972 20.6099 72.4254 20.722 72.4273 20.8361C72.4453 22.8764 72.5765 24.9141 72.8203 26.9398C72.9624 28.1271 73.0795 29.1054 73.1547 29.883C73.556 34.6544 74.5901 43.612 76.2567 56.7559V56.9231C76.2674 57.0898 76.2317 57.2562 76.1534 57.4038C76.0752 57.5515 75.9576 57.6745 75.8136 57.7592C75.446 57.7791 75.0812 57.6857 74.7684 57.4916ZM73.2718 47.6923C72.8983 42.369 72.1932 34.5039 71.1564 24.097L68.1631 38.9214C67.5481 41.572 67.1206 44.2626 66.8838 46.9733C66.8838 47.1572 67.5861 47.3244 68.9992 47.4749C70.4122 47.6254 71.6413 47.6923 72.7116 47.6923H73.2718Z" fill="#D9D9D9"/>
<path d="M92.2914 57.4916C92.077 57.1913 91.9602 56.8322 91.9569 56.4632C91.6225 53.7653 91.419 52.0931 91.3466 51.4465C91.3466 51.4465 90.6784 36.849 90.0044 34.8272C89.3305 32.8053 88.6565 32.8053 87.9825 32.8053C87.3086 32.8053 86.6346 33.4792 86.6346 33.4792C85.9607 34.1532 85.2867 35.5011 85.2867 36.849C85.2867 38.197 83.9971 48.7625 83.9636 48.9465C83.9302 49.1304 83.9636 49.1137 83.9051 49.1137L83.7964 50.2258C83.6616 51.5676 83.4579 52.9016 83.186 54.2224C83.0588 55.0243 82.8342 55.8077 82.5171 56.5552C82.2245 57.1823 81.9486 57.5 81.681 57.5C81.4124 57.4845 81.1579 57.375 80.9619 57.1907C80.8517 57.1225 80.7587 57.0296 80.6905 56.9193C80.6223 56.809 80.5807 56.6843 80.569 56.5552L80.6275 56.388L80.6777 56.2208C81.3466 53.5953 81.8984 50.9866 82.3499 48.3947L83.0104 44.9498L83.6793 40.7692L84.2897 37.0987C84.4736 36.1037 84.8081 34.49 85.2847 32.2743C85.8031 29.7603 86.118 28.0379 86.2295 27.107C86.3405 26.4258 86.4158 25.7393 86.4553 25.0502C86.6058 23.6455 86.7312 22.6087 86.8399 21.9482C86.8664 21.3771 86.9791 20.8133 87.1743 20.2759H87.5673C87.6908 20.319 87.8212 20.3388 87.9519 20.3345C88.133 20.3484 88.315 20.326 88.4873 20.2685C88.6597 20.2111 88.8187 20.1198 88.9553 20C89.209 19.9987 89.455 20.0876 89.6492 20.2509C89.7409 20.3188 89.8158 20.4069 89.868 20.5084C89.9202 20.6099 89.9483 20.722 89.9502 20.8361C89.9683 22.8764 90.0995 24.9141 90.3432 26.9398C90.4854 28.1271 90.6024 29.1054 90.6777 29.883C91.079 34.6544 92.113 43.612 93.7797 56.7559V56.9231C93.7904 57.0898 93.7546 57.2562 93.6764 57.4038C93.5982 57.5515 93.4805 57.6745 93.3365 57.7592C92.969 57.7791 92.6042 57.6857 92.2914 57.4916Z" fill="#D9D9D9"/>
<path d="M104.423 57.4916C104.208 57.1913 104.092 56.8322 104.088 56.4632C103.754 53.7653 103.55 52.0931 103.478 51.4465L103.202 49.2224C102.29 49.0283 101.72 32.1205 100.788 32.1313C100.788 32.1313 100.114 31.4574 99.4399 32.8053C98.7659 34.1532 96.7441 46.2845 96.7441 46.9585C96.7441 47.6324 96.0949 48.9465 96.0949 48.9465C96.0949 48.9465 96.0949 49.1137 96.0364 49.1137L95.9277 50.2258C95.793 51.5676 95.5892 52.9016 95.3173 54.2224C95.1901 55.0243 94.9655 55.8077 94.6484 56.5552C94.3558 57.1823 94.0799 57.5 93.8123 57.5C93.5437 57.4845 93.2892 57.375 93.0933 57.1907C92.983 57.1225 92.89 57.0296 92.8218 56.9193C92.7536 56.809 92.712 56.6843 92.7003 56.5552L92.7588 56.388L92.809 56.2208C93.4779 53.5953 94.0297 50.9866 94.4812 48.3947L95.1418 44.9498L95.8107 40.7692L96.421 37.0987C96.605 36.1037 96.9394 34.49 97.416 32.2743C97.9344 29.7603 98.2493 28.0379 98.3608 27.107C98.4718 26.4258 98.5471 25.7393 98.5866 25.0502C98.7371 23.6455 98.8625 22.6087 98.9712 21.9482C98.9977 21.3771 99.1105 20.8133 99.3056 20.2759H99.6986C99.8221 20.319 99.9525 20.3388 100.083 20.3345C100.264 20.3484 100.446 20.326 100.619 20.2685C100.791 20.2111 100.95 20.1198 101.087 20C101.34 19.9987 101.586 20.0876 101.781 20.2509C101.872 20.3188 101.947 20.4069 101.999 20.5084C102.051 20.6099 102.08 20.722 102.082 20.8361C102.1 22.8764 102.231 24.9141 102.475 26.9398C102.617 28.1271 102.734 29.1054 102.809 29.883C103.21 34.6544 104.244 43.612 105.911 56.7559V56.9231C105.922 57.0898 105.886 57.2562 105.808 57.4038C105.729 57.5515 105.612 57.6745 105.468 57.7592C105.1 57.7791 104.735 57.6857 104.423 57.4916Z" fill="#D9D9D9"/>
<path d="M105.36 91.8369C105.211 91.75 105.13 91.657 105.13 91.5453C105.13 90.4495 105.295 88.4169 105.626 85.4478C105.957 82.4786 106.288 80.2414 106.619 78.7361L105.75 78.8167C105.254 78.8726 104.956 78.9036 104.845 78.9036C104.02 78.9036 103.604 78.612 103.604 78.0352C103.604 77.7622 104.069 77.6257 105.006 77.6257H105.862C106.138 77.6404 106.414 77.6258 106.687 77.5823C106.897 76.6047 107.042 75.6142 107.121 74.6173C107.326 72.806 107.425 71.6957 107.425 71.2801C107.205 71.2772 106.985 71.2917 106.768 71.3235L106.067 71.3607C105.025 71.3607 104.473 71.1188 104.423 70.6225L104.752 70.2504H105.614C106.249 70.284 106.886 70.2424 107.512 70.1263L107.878 67.4528C108.215 65.4929 108.408 63.5108 108.455 61.5227V61.1071L108.418 60.6977C108.418 60.0774 108.622 59.7921 109.038 59.7921L109.33 60.3689C109.291 61.9665 109.166 63.5609 108.957 65.1453C108.758 66.7299 108.648 68.3246 108.629 69.9216C109.194 70.0598 109.777 70.1162 110.359 70.0891H110.893C111.632 70.125 112.372 70.0262 113.076 69.7975C113.798 66.6076 114.32 63.3757 114.639 60.1208C114.701 60.023 114.786 59.9418 114.887 59.8845C114.987 59.8272 115.1 59.7954 115.216 59.7921C115.334 59.7902 115.449 59.8304 115.54 59.9055C115.631 59.9805 115.692 60.0854 115.712 60.2015C115.633 61.7745 115.383 63.3343 114.968 64.8537C114.552 66.4023 114.305 67.9912 114.23 69.5928L114.311 69.7975H115.836L116.37 70.3744C116.209 70.8148 116.029 71.0319 115.836 71.0319C115.533 71.0319 115.247 71.0319 114.968 70.9947L114.106 70.9513C113.654 72.9871 113.446 75.0694 113.486 77.1543L113.734 77.235L114.062 77.1915H114.478C115.247 77.1915 115.632 77.4583 115.632 77.9793C115.632 78.1716 115.408 78.3453 114.968 78.5128H113.368C113.343 79.0587 113.151 80.9671 112.791 84.2382C112.473 86.6144 112.282 89.006 112.22 91.4027L111.767 91.9361C111.271 91.9361 111.023 91.7997 111.023 91.5267C111.068 90.67 111.164 89.8167 111.308 88.9711C111.448 88.1133 111.531 87.2471 111.556 86.3782C111.619 85.081 111.758 83.7886 111.972 82.5075C112.179 81.2393 112.301 79.9586 112.338 78.6741C111.6 78.5934 110.477 78.5562 109.007 78.5562C108.52 78.5434 108.034 78.5977 107.562 78.7175C107.231 81.7404 107.094 83.0182 107.152 82.551L107.028 83.7916C106.834 86.1529 106.627 88.1151 106.408 89.6782C106.34 90.2605 106.238 90.8383 106.104 91.4089C106.005 91.7687 105.899 91.9423 105.794 91.9423C105.643 91.9435 105.493 91.9072 105.36 91.8369ZM112.257 77.3342L112.71 74.946C112.835 74.1695 112.918 73.3868 112.958 72.6013C112.958 72.3222 113.002 71.9376 113.002 71.4475C113.002 71.1746 111.941 71.0319 109.826 71.0319C109.359 71.0014 108.893 71.0866 108.467 71.2801C108.225 72.168 108.073 73.0783 108.014 73.997C107.853 75.5105 107.766 76.5961 107.766 77.2536V77.3342L107.81 77.421L108.467 77.5017C109.733 77.5091 110.998 77.4532 112.257 77.3342Z" fill="#D9D9D9"/>
<path d="M120.246 90.5279C120.118 90.3477 120.061 90.1272 120.085 89.9076C120.09 89.8107 120.124 89.7177 120.184 89.6409C120.208 89.6007 120.242 89.5668 120.282 89.542C120.321 89.5172 120.367 89.5022 120.413 89.4982H121.604L122.758 89.5417C123.047 89.5722 123.339 89.5228 123.602 89.399C123.726 89.2997 123.788 89.0764 123.788 88.7167C123.788 82.3193 123.486 74.4104 122.882 64.9901V63.6751L122.926 62.3538C122.943 62.0406 122.901 61.727 122.802 61.4295C122.755 61.3341 122.686 61.252 122.599 61.1912C122.512 61.1304 122.411 61.0928 122.305 61.0822C121.885 61.0115 121.459 60.9824 121.034 60.9953C120.88 60.9963 120.726 61.0109 120.575 61.0388L120.085 61.0822C119.613 61.0822 119.384 60.9271 119.384 60.6232C119.386 60.5529 119.408 60.4847 119.448 60.4265C119.487 60.3683 119.543 60.3225 119.607 60.2944C119.801 60.2008 120.012 60.146 120.227 60.1331C120.612 60.0773 121.691 60.0525 123.478 60.0525C123.567 60.05 123.656 60.0671 123.739 60.1024C123.821 60.1377 123.895 60.1905 123.955 60.2572C124.014 60.3166 124.061 60.3874 124.092 60.4652C124.122 60.543 124.137 60.6263 124.135 60.71V61.994C124.135 62.8459 124.177 64.1361 124.259 65.8647L124.346 69.7788C124.346 70.3495 124.439 72.26 124.631 75.5849C124.797 79.1537 124.88 81.8168 124.88 83.5743V84.1078L125.004 86.3719L125.084 88.7663L125.047 89.095L125.004 89.3804L125.165 89.5044L126.114 89.4238C126.415 89.3925 126.717 89.378 127.02 89.3804C127.869 89.3804 128.297 89.5727 128.297 89.9573C128.297 90.3418 127.993 90.5342 127.392 90.5342L124.098 90.6148C123 90.6706 121.883 90.7016 120.761 90.7016C120.668 90.7099 120.574 90.6987 120.485 90.6688C120.396 90.6389 120.315 90.5909 120.246 90.5279Z" fill="#D9D9D9"/>
<path d="M150.226 32.3188C150.226 32.3188 150.27 32.3188 150.295 32.3188C150.32 32.3188 150.239 32.3625 150.226 32.3188Z" fill="#F15E04"/>
<path d="M150.926 31.773C150.76 31.9901 150.549 32.168 150.306 32.294C150.405 32.1204 150.635 31.5993 150.926 31.773Z" fill="#F15E04"/>
<path d="M149.805 31.9775L150.065 31.8411C150.022 32.0272 149.904 31.8969 149.805 31.9775Z" fill="#F15E04"/>
<path d="M150.102 32.1206L150.183 32.2141L149.99 32.239L150.102 32.1206Z" fill="#F15E04"/>
<path d="M141.256 43.4966C141.321 43.5077 141.379 43.5434 141.418 43.5963L141.256 43.4966Z" fill="#F15E04"/>
<path d="M140.407 43.5962C140.364 43.6153 140.324 43.6405 140.288 43.671C140.307 43.6336 140.344 43.6149 140.407 43.5962Z" fill="#F15E04"/>
<path d="M141.623 43.0251L141.555 43.1249C141.564 43.084 141.588 43.0483 141.623 43.0251Z" fill="#F15E04"/>
<path d="M146.182 37.4053C146.303 37.3913 146.423 37.3706 146.542 37.3433C146.461 37.5666 146.3 37.4425 146.182 37.4053Z" fill="#F15E04"/>
<path d="M137.057 44.5698L137.113 44.6633C137.057 44.6259 137.019 44.6259 137.057 44.5698Z" fill="#F15E04"/>
<path d="M139.092 42.5913C139.127 42.6175 139.154 42.6517 139.173 42.691H139.136L139.092 42.5913Z" fill="#F15E04"/>
<path d="M141.784 42.554H141.896C141.889 42.5619 141.88 42.5683 141.871 42.5727C141.861 42.577 141.85 42.5793 141.84 42.5793C141.829 42.5793 141.819 42.577 141.809 42.5727C141.799 42.5683 141.791 42.5619 141.784 42.554Z" fill="#F15E04"/>
<path d="M136.337 45.1528C136.256 45.1408 136.177 45.12 136.101 45.0908C136.142 45.0745 136.186 45.0717 136.229 45.0829C136.271 45.0941 136.309 45.1186 136.337 45.1528Z" fill="#F15E04"/>
<path d="M139.806 41.9708L139.669 42.0518C139.678 42.0245 139.697 42.0014 139.723 41.9866C139.748 41.9718 139.777 41.9662 139.806 41.9708Z" fill="#F15E04"/>
<path d="M146.183 37.4056H146.064C146.089 37.3869 146.126 37.3931 146.183 37.4056Z" fill="#F15E04"/>
<path d="M149.904 33.0263C149.842 33.0949 149.779 33.0637 149.711 33.0263C149.774 33.0108 149.841 33.0108 149.904 33.0263Z" fill="#F15E04"/>
<path d="M130.004 47.7273L129.954 47.8021C129.917 47.7896 129.948 47.7273 130.004 47.7273Z" fill="#F15E04"/>
<path d="M133.038 48.4466C132.932 48.5583 133.087 48.2047 133.094 48.1923L133.019 48.3101C133.035 48.2717 133.054 48.2344 133.075 48.1985L132.951 48.3349C132.951 48.2729 132.951 48.2605 132.914 48.2357C132.876 48.2109 132.914 48.2357 132.914 48.1675C132.91 48.1338 132.914 48.0998 132.924 48.0677C132.935 48.0355 132.953 48.0061 132.976 47.9814L132.74 48.1426L132.783 47.727L132.703 47.9938C132.538 47.6696 132.423 47.3225 132.362 46.9641L132.287 47.0385C132.207 47.0385 132.25 46.9331 132.25 46.8586L132.132 46.9703C131.903 46.4244 131.512 46.4368 131.369 45.7731C131.251 45.6304 131.369 45.8848 131.288 45.9282C131.208 45.9716 131.14 45.6366 131.177 45.556C130.985 45.7173 131.177 45.9282 130.904 45.8289C130.941 45.6428 130.749 46.0212 130.668 45.7669L130.904 45.5312C130.792 45.4257 130.674 45.6118 130.594 45.3947C130.513 45.1776 131.059 45.525 130.91 45.1218C130.798 44.9357 130.06 45.0411 130.023 44.5945C129.719 44.3464 129.669 44.9853 129.521 44.5015L129.477 44.8799C129.359 44.8799 129.248 44.9605 129.21 44.7434C129.298 44.6235 129.34 44.476 129.328 44.3278C129.328 44.8488 128.826 44.1231 128.745 44.6441L128.683 44.4953C128.682 44.5018 128.68 44.5081 128.677 44.5139C128.674 44.5196 128.67 44.5246 128.664 44.5287C128.659 44.5327 128.653 44.5357 128.647 44.5374C128.641 44.5391 128.634 44.5396 128.627 44.5387L128.516 44.3588C128.516 44.5077 128.627 44.7992 128.354 44.7744L128.162 44.5201C128.044 44.6752 127.933 44.6069 127.815 44.6814L127.92 45.649C128.001 45.5684 128.001 45.4257 128.119 45.4195C128.311 45.5932 128.038 45.68 128.268 45.8227L128.348 45.6676C128.311 45.7111 128.305 45.7483 128.268 45.7111C128.23 45.6738 128.23 45.5994 128.311 45.5622C128.503 45.5622 128.497 45.8103 128.423 45.9282C128.572 46.1825 128.733 45.8413 128.807 45.8723C128.615 46.1453 129.037 46.3128 129 46.5361L129.117 46.35C129.421 46.443 129.347 46.7098 129.341 46.8586L129.459 46.7408C129.576 47.0385 130.116 46.9393 129.725 47.4045L129.806 47.3301C129.905 47.4231 130.097 47.541 130.004 47.727C130.06 47.727 130.147 47.6836 130.184 47.727C130.023 47.8883 130.228 47.9317 130.352 48.0868C130.352 47.9504 130.612 47.8573 130.612 47.7084C130.997 47.8449 130.451 48.0868 130.569 48.3287C130.761 48.397 130.65 48.1364 130.724 48.062C130.761 48.4652 131.648 48.4714 131.257 48.9304L131.028 48.8684C130.985 49.0545 131.028 49.1289 131.065 49.0917C131.102 49.0545 131.065 49.0173 131.102 48.9739C131.332 49.1103 131.35 49.3771 131.35 49.6562C131.33 49.9675 131.401 50.278 131.555 50.5494C131.605 50.4068 131.586 50.2951 131.642 50.2145C131.828 50.3385 131.431 50.996 131.785 51.2256V51.0022C131.896 51.0581 131.859 51.3744 131.828 51.3992C131.952 51.1139 132.058 51.3372 132.194 51.5729C132.331 51.8086 132.486 52.063 132.628 51.6598C132.622 51.7548 132.622 51.8501 132.628 51.9451C132.746 52.1188 133.1 51.9451 133.211 51.6287C133.379 51.0084 133.056 51.3372 133.131 50.8658C133.236 50.7417 133.317 51.0395 133.497 50.7107C133.494 50.9419 133.458 51.1716 133.391 51.393C133.348 51.6163 133.342 51.7838 133.584 51.6287L133.621 51.3806C133.577 51.4489 133.522 51.5915 133.453 51.6163C133.317 51.5357 133.509 51.2938 133.528 51.1759L133.987 50.7975C134.111 51.0705 133.801 51.3124 133.782 51.4178C133.983 51.1293 134.16 50.8242 134.309 50.506C134.416 50.2491 134.6 50.0321 134.837 49.8857L134.731 49.8423C135.029 49.6934 134.961 49.5756 134.93 49.4639C134.899 49.3522 134.868 49.2716 135.159 49.284C135.24 49.0917 134.892 49.1351 135.079 48.9056C135.134 48.8436 135.178 48.949 135.19 48.9863C135.513 48.7878 135.103 48.6885 135.519 48.6141L135.252 48.4652C135.674 48.3163 136.344 48.3598 136.493 48.0186C136.313 47.8759 136.183 48.0496 135.997 48.0186C136.617 47.9566 136.797 47.2308 137.237 47.0633C137.293 47.2928 137.709 47.2184 137.64 47.5348C137.374 47.3859 137.429 47.6154 137.305 47.7022C137.926 47.9628 137.752 46.7532 138.217 47.0819L138.087 46.8834C138.161 46.8834 138.403 46.8834 138.372 46.9827L138.589 46.5361C138.348 46.5361 137.814 46.5361 137.926 46.778C137.653 46.7098 137.926 46.5237 137.653 46.4244C138.149 46.4244 137.653 46.1701 137.951 45.984C138.093 46.319 138.503 46.046 138.608 46.1701C138.639 46.046 138.912 45.9716 139.061 45.984C139.21 45.8599 139.315 45.3637 139.607 45.2148C139.452 45.2148 139.228 45.2706 139.079 45.1156C139.272 45.0846 139.377 44.9667 139.216 44.7744C138.527 44.8613 139.514 45.2831 138.974 45.4443C138.868 45.3987 138.753 45.3815 138.638 45.3946C138.524 45.4077 138.415 45.4505 138.323 45.5188C138.279 45.3265 138.192 45.3141 138.081 45.1528C138.701 45.3265 138.664 44.6069 139.148 44.5325C139.39 44.5325 139.576 44.8737 139.88 44.6379L139.793 44.9977C139.917 44.6255 139.979 45.0535 140.227 44.8799L140.004 44.8364C140.029 44.7722 140.077 44.7199 140.139 44.69C140.202 44.66 140.273 44.6547 140.339 44.6752L140.016 44.5821C140.06 44.4891 140.153 44.3278 140.283 44.4457C140.255 44.3911 140.22 44.3409 140.177 44.2968C140.221 44.2968 140.277 44.2968 140.351 44.2161C140.277 44.2161 140.258 44.2906 140.196 44.2161C140.543 43.9432 140.029 43.9246 140.233 43.7447C140.153 43.7447 140.14 43.6206 140.184 43.5214C140.519 43.844 140.928 43.4904 141.213 43.5648L141.598 43.4221C141.523 43.4532 141.48 43.3105 141.517 43.1988C141.548 43.0624 141.052 42.9569 141.387 42.7894L141.617 42.7522C141.579 42.7522 141.548 42.6902 141.536 42.653L141.753 42.6034C141.629 42.0947 142.305 42.3676 142.373 41.983C142.33 42.0761 142.206 42.1629 142.144 42.0203C142.082 41.8776 142.255 41.9024 142.342 41.9086H142.293L142.944 41.6295C142.789 41.5612 142.535 41.8218 142.516 41.5798C142.497 41.3379 142.714 41.3876 142.807 41.3131C142.888 41.4062 142.807 41.6357 143.018 41.524C142.987 41.462 143.018 41.2263 142.907 41.2325C143.16 41.1045 143.432 41.0186 143.713 40.9782C143.713 40.8913 143.614 40.9347 143.583 40.9471V40.9782C143.44 41.034 143.335 40.7797 143.254 41.0588C142.944 40.8045 143.428 40.7052 143.539 40.5005L143.093 40.5812C143.093 39.7562 144.11 39.5515 144.526 39.1048C144.526 39.322 144.309 39.353 144.557 39.5515C144.775 39.445 144.975 39.3024 145.146 39.1297H145.109C145.109 38.8753 145.531 38.8939 145.413 38.6024C145.227 38.5466 145.345 38.9187 145.084 38.683L145.425 38.3543C145.171 38.3543 145.084 38.683 144.923 38.7823C144.761 38.8815 145.14 38.621 145.264 38.8257C144.954 39.1421 144.718 39.0676 144.327 39.0056C144.054 38.9374 144.278 38.6892 144.327 38.6272C144.541 38.6617 144.761 38.6229 144.95 38.5171C145.139 38.4112 145.287 38.2446 145.369 38.0441V37.6843C145.698 37.6843 145.99 38.0751 146.207 37.7464L145.983 37.703C145.978 37.6304 145.998 37.5582 146.039 37.4983C145.816 37.5293 145.574 37.5479 145.357 37.5603C145.214 37.1199 145.946 37.2253 146.232 37.033C146.182 37.033 146.089 37.0889 145.99 37.033C146.25 36.605 146.957 36.5554 147.23 36.3197C147.23 36.084 146.932 36.4748 146.79 36.2328C147.001 36.1584 146.982 35.8358 147.199 35.9599C146.883 35.7862 147.497 35.6063 146.995 35.6684C147.475 35.0685 148.089 34.5886 148.787 34.2665C148.703 34.2329 148.633 34.1716 148.589 34.0928C148.498 34.2017 148.382 34.2872 148.252 34.3422C148.121 34.3973 147.979 34.4202 147.838 34.4092C147.838 34.1672 148.272 34.2913 148.229 34.1858C148.105 34.1858 147.999 34.3099 147.869 34.1858C147.869 33.8943 148.148 33.9997 148.272 33.9129V34.0308C148.762 33.8509 148.893 34.2541 149.159 33.8323C149.122 33.5531 149.029 33.7144 148.831 33.5345C148.986 33.5345 149.029 33.0507 149.321 33.1499L149.135 33.3857C149.288 33.2725 149.452 33.1749 149.625 33.0941C149.604 33.0773 149.58 33.0647 149.555 33.0573C149.529 33.0498 149.502 33.0476 149.476 33.0507C149.649 32.9887 149.78 32.815 149.966 32.877L149.792 32.6475C149.792 32.8088 149.631 33.0383 149.482 32.9701C149.321 32.7778 149.637 32.6661 149.711 32.5544C149.259 32.9266 148.936 32.6351 148.738 33.1189H148.855C148.806 33.4911 148.334 33.4787 148.161 33.6834C148.167 33.645 148.159 33.6056 148.139 33.5726C148.118 33.5395 148.086 33.515 148.049 33.5035C147.807 34.0866 147.292 34.3967 146.932 34.9798L146.591 34.9426L146.74 35.0915C146.585 35.3954 146.473 34.9426 146.343 35.0915C146.399 35.0295 146.418 35.0915 146.467 35.0915C146.027 35.2093 146.467 35.383 146.269 35.4947C146.504 35.5753 146.61 35.2466 146.765 35.4947C146.331 35.6125 146.027 36.115 145.617 35.8358C145.289 36.4934 144.457 36.9214 144.023 37.3246C144.023 37.4424 144.11 37.3246 144.141 37.4052C143.763 37.4052 143.757 38.1248 143.558 37.9511C143.558 38.0813 143.645 38.2488 143.676 38.3171C143.485 38.3499 143.306 38.431 143.155 38.5528L143.304 38.4969V38.5342L143.093 38.6086C142.714 38.9125 142.386 39.3592 141.883 39.4832C142.181 39.415 142.076 39.7438 142.231 39.7313C141.778 39.6073 141.412 39.9857 141.151 40.3517C141.22 40.4075 141.244 40.4819 141.331 40.4881L141.04 40.5564L141.139 40.5998C140.891 40.9782 140.221 41.0216 140.171 41.3689C140.326 41.2697 140.395 41.3317 140.506 41.4124C140.283 41.6594 140.021 41.8689 139.731 42.0327C139.762 42.0374 139.792 42.0502 139.818 42.0699C139.78 42.1629 139.625 42.1815 139.52 42.2188L139.663 42.3738C139.464 42.4483 139.377 42.7026 139.098 42.7522C139.21 42.9755 138.571 43.0065 138.478 43.2671C138.372 43.3043 138.807 43.2671 138.608 43.4656C138.242 43.1864 138.354 43.7261 137.988 43.4097L137.951 43.7137L137.733 43.5834C137.932 44.0487 137.374 43.6765 137.268 44.0052C137.318 44.0052 137.355 44.0052 137.367 44.0487C137.262 44.0859 137.082 44.2347 137.113 44.0176C137.001 44.1417 136.536 44.4767 136.896 44.4705C136.784 44.3898 137.026 44.2968 137.132 44.2596C137.281 44.4146 137.051 44.5387 137.175 44.7372H137.063L137.132 44.8488C136.753 44.9171 136.66 45.2644 136.288 45.2272C136.332 45.2769 136.332 45.3513 136.245 45.4195L136.052 45.2458L135.829 45.494L136.214 45.6366C136.028 45.953 135.538 45.8475 135.283 46.0212C135.556 46.3748 134.768 46.3314 134.886 46.7904L135.128 46.6973C134.731 47.0075 134.874 47.2432 134.452 47.4851C134.623 47.1765 134.741 46.8408 134.799 46.4926C134.545 47.0385 133.943 47.0509 133.776 47.6092C133.875 47.6526 134.012 47.6092 134.005 47.7705C133.77 47.6898 133.677 48.1364 133.534 47.9007C133.491 48.0806 133.652 48.2729 133.608 48.366C133.565 48.459 133.497 48.4156 133.472 48.397L133.397 48.3598C133.351 48.3315 133.309 48.2959 133.273 48.2543L133.304 48.2977C133.41 48.5645 133.304 48.6513 133.23 48.5583C133.172 48.4388 133.151 48.3052 133.168 48.1737C133.168 48.1737 133.168 48.1737 133.168 48.2233L133.156 48.3473C133.172 48.2402 133.197 48.1344 133.23 48.031C133.174 48.2357 133.156 48.2791 133.1 48.4404C133.124 48.2945 133.167 48.1526 133.23 48.0186C133.156 48.1675 132.994 48.4776 133.038 48.4466ZM136.313 45.3823L136.418 45.2955C136.423 45.2798 136.431 45.2656 136.444 45.2546C136.456 45.2437 136.471 45.2363 136.487 45.2334L136.418 45.2955C136.394 45.3699 136.443 45.4816 136.313 45.3823ZM145.562 36.146C145.698 36.146 145.524 36.239 145.506 36.2887L145.686 36.1398C145.63 36.0654 145.562 36.1274 145.562 36.146ZM137.591 46.5299L137.665 46.7098H137.498L137.591 46.5299ZM136.238 48.0186L136.449 47.9379V47.9752L136.245 48.0558L136.238 48.0186ZM133.757 48.6389C133.639 48.5769 133.801 48.8684 133.596 48.6389C133.391 48.4094 133.627 48.5645 133.732 48.6141L133.757 48.6389ZM136.071 46.1267C136.145 46.1267 136.176 46.0832 136.195 46.0336C136.096 45.9902 135.891 45.984 135.928 45.8847C136.065 45.922 136.245 45.7731 136.375 45.8847C136.077 45.8661 136.344 46.319 136.046 46.1019L136.071 46.1267ZM139.359 42.7026V42.7522L139.582 42.7088L139.359 42.7026ZM140.072 42.1939C140.308 42.2746 140.457 42.0513 140.618 41.952C140.586 41.9131 140.546 41.8817 140.5 41.8601C140.454 41.8386 140.405 41.8274 140.354 41.8274C140.304 41.8274 140.254 41.8386 140.208 41.8601C140.163 41.8817 140.123 41.9131 140.091 41.952C139.774 42.0079 140.227 42.2126 140.053 42.1939H140.072ZM135.271 47.4603L135.42 47.5348V47.5782L135.631 47.5037C135.631 47.8387 135.19 47.7084 135.047 47.7581C135.103 47.6836 135.6 47.7271 135.252 47.4603H135.271ZM141.381 40.9037C141.604 40.8603 141.951 40.73 142.051 40.8603C141.98 40.7881 141.886 40.744 141.786 40.736C141.686 40.728 141.586 40.7567 141.505 40.8169C141.486 40.9037 141.449 40.9037 141.381 40.9037ZM141.784 41.2883C141.505 41.3938 141.387 41.2883 141.046 41.2883C141.133 41.0092 141.461 41.2201 141.561 41.3503C141.784 41.3069 141.616 41.2015 141.66 41.1084L141.784 41.2883ZM140.984 40.9223L140.94 41.0278C140.94 41.2077 141.176 41.4558 140.804 41.3627L140.94 41.0278C140.941 41.012 140.946 40.9967 140.953 40.9828C140.961 40.9689 140.971 40.9568 140.984 40.9471V40.9223ZM142.51 39.2971H142.361C142.441 39.2289 142.479 39.2475 142.51 39.2971H142.634C142.553 39.5577 142.559 39.3964 142.51 39.3219V39.2971ZM141.412 40.5998L141.176 40.8107C141.294 40.9037 141.375 40.7238 141.412 40.6246V40.5998ZM142.652 39.5266C142.574 39.6467 142.487 39.7607 142.392 39.8678C142.299 39.7624 142.535 39.5515 142.659 39.5515L142.652 39.5266ZM147.652 34.7255L147.503 34.8558L147.423 34.7007L147.652 34.7255ZM146.182 36.5616L146.138 36.45L146.225 36.3755L146.182 36.5616ZM144.743 38.1434C144.712 38.0992 144.669 38.0648 144.619 38.0441C144.602 38.0534 144.582 38.0582 144.563 38.0582C144.543 38.0582 144.524 38.0534 144.507 38.0441C144.507 38.0441 144.575 38.0441 144.619 38.0441C144.665 38.0275 144.704 37.9971 144.732 37.9571C144.76 37.9171 144.774 37.8695 144.774 37.8208C144.675 37.7712 144.6 37.8828 144.513 37.8766C144.464 37.5603 145.313 37.7464 144.699 37.3494C144.817 37.3494 145.146 37.2687 145.171 37.4238C144.955 37.6115 144.805 37.8638 144.743 38.1434C144.754 38.1575 144.76 38.175 144.76 38.193C144.76 38.211 144.754 38.2285 144.743 38.2426C144.739 38.2084 144.746 38.174 144.761 38.1434H144.743ZM142.882 40.3641C142.843 40.3951 142.795 40.4145 142.745 40.4199C142.701 40.4289 142.655 40.4255 142.612 40.4102C142.57 40.3949 142.532 40.3682 142.504 40.333C142.683 40.271 142.671 40.4013 142.745 40.4199C142.807 40.4133 142.866 40.3943 142.919 40.3641H142.882ZM142.566 40.7673L142.845 40.6618H142.64L143.124 40.5688C143.105 40.6181 143.076 40.6629 143.039 40.7003C143.002 40.7376 142.957 40.7666 142.908 40.7854C142.859 40.8042 142.806 40.8122 142.753 40.8091C142.701 40.806 142.649 40.7917 142.603 40.7673H142.566ZM142.603 40.9285L142.441 40.8541L142.628 40.9099H142.665L142.293 41.1704L142.603 40.9285ZM139.266 44.03C139.582 44.5511 139.836 44.03 140.109 44.1541C139.973 44.0052 139.861 43.6703 139.576 43.999C139.681 43.5834 140.016 44.0859 139.805 43.5834C139.702 43.6971 139.565 43.7752 139.414 43.8067L139.545 43.6393C139.228 43.4904 139.489 44.0052 139.303 44.0424L139.266 44.03ZM137.777 45.7669L137.578 45.9654L137.789 45.8041L137.777 45.7669ZM133.156 51.1015C133.156 51.2814 132.833 52.0257 132.808 51.666C132.958 51.5011 133.076 51.3097 133.156 51.1015ZM131.605 49.1351L131.667 49.5197C131.388 49.6748 131.53 49.2158 131.413 49.1041C131.493 48.9677 131.462 49.1475 131.574 49.1351H131.605ZM130.687 47.2742V47.1626L130.451 47.3983L130.687 47.2742ZM130.37 47.5844C130.222 47.5844 130.253 47.8139 130.296 47.8511L130.37 47.5844ZM129.303 46.0584L129.378 46.1701L129.576 45.9406L129.303 46.0584ZM129.688 46.1019C129.527 46.2197 129.279 46.3252 129.533 46.5361C129.725 46.4554 129.688 46.381 129.961 46.3686C129.961 46.2569 129.843 46.2259 129.806 46.1887C129.806 46.2631 129.924 46.3004 129.806 46.3748C129.755 46.3528 129.715 46.3124 129.693 46.2617C129.671 46.2109 129.669 46.1538 129.688 46.1019C129.75 46.0584 129.8 46.015 129.806 45.9654C129.772 45.9801 129.742 46.0014 129.716 46.028C129.69 46.0546 129.67 46.0861 129.657 46.1205L129.688 46.1019ZM130.377 46.9765C130.411 47.0016 130.452 47.0167 130.494 47.0199L130.457 47.0571C130.358 47.0571 130.358 47.0199 130.377 46.9765L130.24 46.8834C130.066 46.9331 130.054 47.1688 129.986 47.2618C129.986 47.1502 130.11 47.0013 129.986 46.9331C129.949 46.9703 129.905 46.9703 129.942 47.0447L129.831 46.902C129.961 46.6043 130.116 46.747 130.271 46.902C130.318 46.8894 130.367 46.8894 130.414 46.902C130.389 46.9082 130.358 46.9579 130.346 46.9951L130.377 46.9765ZM130.085 45.5064V45.618C130.042 45.6987 129.967 45.6987 129.924 45.7359C129.856 45.649 129.899 45.4567 130.054 45.525L130.085 45.5064ZM132.684 50.568C132.635 50.568 132.628 51.0457 132.715 51.0953L132.597 51.4551C132.621 51.2425 132.584 51.0276 132.492 50.8348C132.535 50.475 132.535 50.7355 132.653 50.5866L132.684 50.568ZM137.026 46.3438C137.312 46.5299 137.417 46.1205 137.541 46.1205C137.442 46.3314 137.194 46.7098 137.008 46.3624L137.026 46.3438ZM137.374 45.7731C137.442 45.7049 137.442 45.6614 137.56 45.7731C137.64 45.7731 137.634 45.6676 137.715 45.6738C137.715 45.922 137.504 45.7297 137.374 45.7669C137.351 45.7906 137.326 45.8114 137.299 45.8289C137.314 45.8114 137.333 45.7984 137.355 45.7917L137.374 45.7731ZM134.632 48.7071L134.359 48.6451L134.229 48.8126L134.632 48.7071ZM133.292 49.5135C133.292 49.7058 133.199 49.8299 133.18 49.7492C133.18 50.0222 133.255 49.9043 133.323 49.8609C133.391 49.8175 133.323 49.8609 133.366 49.8609H133.323C133.292 49.8237 133.323 49.6748 133.323 49.5818V49.4825H133.255L133.292 49.5135ZM132.219 47.8821C132.027 47.8139 132.064 47.7767 132.064 47.665C132.126 47.6836 132.2 47.7891 132.2 47.9007L132.219 47.8821ZM133.689 48.856C133.639 49.0421 133.869 49.0669 133.85 49.222L133.9 49.1413C133.9 49.4329 133.732 49.0173 133.701 49.1413V49.0669C133.652 48.8622 133.596 49.0049 133.534 48.8622C133.472 48.7195 133.677 48.8064 133.67 48.8746L133.689 48.856ZM132.219 47.6154C131.952 47.4789 132.3 47.3549 132.262 47.206C132.473 47.3301 132.163 47.4541 132.2 47.6402L132.219 47.6154ZM133.218 48.5707V48.5148C133.215 48.4673 133.215 48.4197 133.218 48.3722V48.428C133.207 48.4832 133.201 48.5392 133.199 48.5955L133.218 48.5707ZM139.576 101.973L139.768 102.022C139.563 102.035 139.47 102.022 139.557 101.997L139.576 101.973ZM142.144 102.376C141.344 102.317 140.55 102.199 139.768 102.022C140.345 102.072 141.964 102.047 142.125 102.401L142.144 102.376ZM139.514 101.42L140.339 101.6C139.818 101.693 139.929 101.52 139.495 101.445L139.514 101.42ZM139.78 101.762L139.725 101.879L139.297 101.712L139.78 101.762ZM97.1408 101.141C97.2277 101.191 97.2835 101.253 97.2401 101.327L97.1408 101.141ZM95.2055 100.602L94.8085 100.571C94.9369 100.578 95.0639 100.601 95.1869 100.639L95.2055 100.602ZM98.9273 101.073H98.5861C98.6843 101.076 98.7819 101.089 98.8777 101.11L98.9273 101.073ZM120.359 101.017L121.196 101.284C121.044 101.342 120.878 101.352 120.72 101.315C120.562 101.277 120.419 101.193 120.309 101.073L120.359 101.017ZM86.3103 98.9578L86.2297 99.0571C86.087 99.0571 86.0436 99.0137 86.2607 98.995L86.3103 98.9578ZM94.7589 98.9578C94.7631 98.982 94.7607 99.0069 94.7519 99.0298C94.7432 99.0527 94.7284 99.0728 94.7092 99.0881H94.61L94.7589 98.9578ZM100.286 100.875L100.565 100.937C100.512 100.958 100.455 100.967 100.398 100.963C100.341 100.958 100.285 100.941 100.236 100.912L100.286 100.875ZM83.5314 98.9268C83.4055 98.8747 83.2883 98.8036 83.184 98.7159C83.4569 98.7531 83.581 98.8462 83.5314 98.9268ZM97.5006 99.0757L97.054 99.0323C97.2061 99.0062 97.3624 99.0212 97.5068 99.0757H97.5006ZM120.309 101.073L120.042 100.986C120.138 100.987 120.231 101.017 120.309 101.073ZM137.299 102.01C137.032 101.979 136.977 101.904 136.933 101.83C137.063 101.862 137.187 101.917 137.299 101.991V102.01ZM50.1901 103.077C50.2409 103.092 50.2891 103.115 50.3328 103.145C50.246 103.157 50.1963 103.114 50.1901 103.058V103.077ZM59.5381 100.043C58.8744 100.229 58.1548 99.9813 57.5655 100.006L57.7764 100.112L57.1561 100.05V100.223C56.1698 100.223 54.9665 100.465 54.5881 100.223L54.7245 100.496L53.67 100.341L54.2903 100.49C53.1242 100.633 51.3377 100.54 51.0896 100.564L51.2012 100.657C51.0219 100.701 50.8347 100.701 50.6554 100.657L50.8228 100.8C49.0612 100.881 48.6084 101.272 46.6358 101.265C46.1023 101.346 46.9335 101.265 46.9459 101.377C46.5769 101.482 46.186 101.482 45.817 101.377C45.9907 101.613 46.8095 101.47 46.2016 101.718C45.7426 101.631 46.5241 101.917 45.7364 101.929L45.4014 101.644C44.9672 101.731 45.3332 101.892 44.6384 101.917C43.8444 101.848 45.5751 101.482 44.3035 101.544C43.6832 101.619 43.0256 102.382 41.7788 102.32C40.7367 102.58 42.3991 102.754 40.9104 102.81L41.8657 102.928C41.63 103.039 41.7974 103.182 41.1585 103.17C40.8538 103.035 40.5242 102.965 40.1909 102.965C41.5865 103.077 39.0185 103.43 40.3273 103.622L39.8497 103.654C39.9117 103.654 39.9303 103.691 39.8993 103.716L39.279 103.796C39.6698 103.827 40.6003 103.796 40.1909 104.044L39.2852 104.187C39.5457 104.336 39.2232 104.441 39.2852 104.572L42.0021 104.658C41.8843 104.565 41.4935 104.534 41.63 104.417C42.3371 104.261 42.2503 104.553 42.8706 104.348L42.5604 104.237C42.6162 104.286 42.7155 104.292 42.5604 104.323C42.4053 104.354 42.2192 104.323 42.2068 104.249C42.5651 104.093 42.9696 104.082 43.3358 104.218C44.2104 104.125 43.4909 103.889 43.677 103.821C44.1546 104.075 45.1409 103.685 45.6929 103.784L45.327 103.616C45.8594 103.432 46.4325 103.397 46.9832 103.517L46.8219 103.368C47.7523 103.325 48.1741 102.748 48.9247 103.263L48.8193 103.17C49.2443 103.026 49.6988 102.992 50.1405 103.07C50.1405 103.002 50.2025 102.915 50.3576 102.884C50.5809 103.089 50.9779 102.884 51.5238 102.816C51.1454 102.785 51.2446 102.5 50.8476 102.463C51.6913 102.115 51.6664 102.717 52.3922 102.661C52.8202 102.487 51.989 102.531 51.8773 102.432C53.0125 102.506 54.1477 101.619 54.892 102.134L54.4206 102.345C54.8796 102.432 55.1215 102.419 55.0409 102.345C54.9958 102.357 54.9481 102.356 54.9033 102.343C54.8584 102.33 54.818 102.305 54.7866 102.27C56.1202 101.898 56.9328 102.543 58.2851 102.345C58.1796 102.245 57.9811 102.227 57.9687 102.14C58.589 101.991 58.589 102.642 59.6125 102.357L59.4078 102.252C59.7428 102.159 60.0281 102.314 59.9599 102.351C59.9599 101.873 62.1061 102.252 62.7823 101.594C63.5438 101.854 64.3583 101.92 65.1518 101.786C65.7721 101.464 64.5873 101.501 64.8044 101.228C65.2945 101.228 65.5612 101.445 66.287 101.309C66.287 101.576 64.8727 101.929 66.287 101.997L66.4669 101.848C66.2933 101.897 66.1136 101.92 65.9334 101.917C65.5302 101.78 66.1629 101.724 66.2498 101.65H67.7261C67.8501 101.923 66.9631 101.904 66.8763 101.979C68.0362 101.861 69.4195 101.358 70.5112 101.526L70.4058 101.427C71.7953 101.6 71.1874 100.875 72.3039 101.272C72.8808 101.172 72.0868 100.986 72.9614 100.924C73.2096 100.924 73.0669 101.023 73.0235 101.061C74.1028 101.11 73.4887 100.775 74.4936 100.986L74.2641 100.695C75.4612 100.856 76.7453 101.315 77.7378 101.166C77.6695 100.943 77.0368 100.986 76.7763 100.819C78.1844 101.185 80.1073 100.75 81.3975 100.93C81.0191 101.135 82.0178 101.358 81.2052 101.551C80.9819 101.259 80.5849 101.47 80.1631 101.451C80.8951 102.072 83.122 101.03 83.3577 101.594L83.5376 101.365C83.7361 101.365 84.2385 101.551 83.8974 101.631L85.3054 101.451C84.803 101.29 83.7485 100.918 83.4445 101.172C83.0351 100.937 84.0214 100.999 83.6554 100.726C84.6107 101.085 84.2323 100.552 85.2186 100.608C84.7782 100.955 86.2049 101.036 86.1615 101.228C86.607 101.198 87.0542 101.257 87.4765 101.402C88.3968 101.291 89.3224 101.229 90.2493 101.216C89.9019 101.116 89.356 100.992 89.3932 100.782C89.8399 100.893 90.3299 100.881 90.4105 100.633C88.8163 100.223 89.9081 101.21 88.469 100.949C88.0193 100.676 87.4998 100.54 86.9741 100.558C87.309 100.391 87.1601 100.322 87.2904 100.124C88.2085 100.695 89.6476 100.124 90.8323 100.391C91.3348 100.558 90.9688 100.937 92.0729 101.011L91.1053 101.203C92.166 101.03 91.3596 101.371 92.2404 101.427L91.8868 101.241C92.2367 101.176 92.5981 101.219 92.9228 101.365L92.4637 101.073C92.7553 101.036 93.2887 100.992 93.3011 101.166C93.3288 101.144 93.3517 101.117 93.3688 101.086C93.3858 101.055 93.3966 101.021 93.4004 100.986C93.4562 101.036 93.5927 101.067 93.9338 101.054C93.7354 101.017 93.5865 101.054 93.5865 100.955C94.8829 101.011 93.8842 100.626 94.6844 100.651C94.5603 100.583 94.7837 100.496 95.0752 100.453C95.0752 100.924 96.6508 100.968 97.0726 101.222L98.1581 101.396C97.941 101.358 98.1581 101.234 98.4931 101.179H98.4372C98.7846 101.098 98.0278 100.676 99.0575 100.8L99.5972 100.937C99.5042 100.937 99.5972 100.85 99.6468 100.813L100.205 100.943C101.061 100.509 101.818 101.197 102.823 100.986C102.537 101.023 102.091 100.986 102.283 100.85C102.492 100.812 102.708 100.836 102.903 100.918L102.854 100.868L104.771 101.166C104.615 101.005 103.53 100.986 104.026 100.813C104.312 100.602 104.857 100.813 105.205 100.85C105.155 100.974 104.522 101.079 105.161 101.147C105.242 101.085 105.85 100.961 105.565 100.875C106.305 100.969 107.039 101.112 107.76 101.303C107.946 101.253 107.655 101.197 107.556 101.185L107.506 101.216C107.115 101.148 107.45 100.899 106.675 101.023C106.613 100.626 107.791 100.912 108.474 100.875L107.394 100.583C109.255 100.056 111.699 100.732 113.511 100.775C112.971 100.887 112.531 100.775 112.586 101.073C113.28 101.182 113.981 101.249 114.683 101.272H114.59C115.173 101.123 115.955 101.451 116.345 101.179C116.103 100.999 115.514 101.321 115.514 100.974C115.986 100.974 116.457 101.005 116.928 101.042C116.494 100.806 115.514 100.974 114.975 100.912C114.584 100.912 115.756 100.974 115.564 101.203C114.765 101.234 113.977 101.017 113.306 100.583C112.915 100.329 113.889 100.347 114.137 100.347C115.206 100.778 116.365 100.94 117.512 100.819L118.243 100.583C118.864 100.856 118.591 101.315 119.763 101.309L119.509 101.073C119.689 101.023 119.874 100.998 120.061 100.999C119.565 100.831 119.025 100.645 118.578 100.471C119.261 100.099 120.489 100.763 121.463 100.887C121.413 100.831 121.072 100.8 120.973 100.695C122.443 100.695 123.956 101.216 125.079 101.315C125.569 101.16 124.149 101.16 124.397 100.906C124.986 101.03 125.638 100.831 125.811 101.092C125.575 100.726 127.176 101.166 126.059 100.757C128.29 100.863 130.51 101.145 132.697 101.6C132.597 101.489 132.604 101.402 132.697 101.334C131.941 101.314 131.197 101.145 130.507 100.837C131.003 100.695 131.63 101.16 131.747 101.061C131.512 100.961 131.022 100.93 131.028 100.751C131.648 100.602 132.002 100.906 132.436 100.968L132.194 101.042C133.546 101.383 132.901 101.662 134.365 101.724C134.911 101.563 134.365 101.551 134.365 101.284C134.7 101.427 135.835 101.253 136.164 101.563L135.283 101.501C135.904 101.638 136.474 101.693 136.896 101.83C136.877 101.79 136.849 101.755 136.815 101.727C136.78 101.699 136.74 101.679 136.697 101.669C137.161 101.733 137.614 101.86 138.044 102.047L138.211 101.78C137.769 101.876 137.307 101.826 136.896 101.638C137.001 101.402 137.876 101.638 138.261 101.638C136.561 101.383 136.58 100.949 135.116 100.98L135.351 101.092C134.433 101.203 133.534 100.769 132.74 100.732C132.969 100.688 133.019 100.589 132.92 100.54C131.152 100.633 129.44 100.341 127.436 100.335L126.853 100.012L126.797 100.223C125.817 100.223 126.605 99.9131 125.972 99.8883C126.214 99.8883 126.171 99.9379 126.214 99.9937C125.092 99.6712 125.594 100.143 124.943 100.043C125.228 100.273 126.183 100.198 125.861 100.478C124.744 100.167 122.976 100.236 122.834 99.7146C120.725 99.8262 118.126 99.3734 116.358 99.268C116.116 99.3548 116.507 99.3424 116.414 99.4107C115.719 99.1005 114.056 99.5595 114.056 99.299C113.834 99.3458 113.631 99.4581 113.473 99.6216C112.967 99.4824 112.447 99.3951 111.923 99.361L112.338 99.4417L112.289 99.4727L111.699 99.361C110.245 99.331 108.794 99.2025 107.357 98.9764C108.095 99.1501 107.165 99.2928 107.518 99.3982C106.898 98.9764 105.298 98.9578 104.02 98.995C104.02 99.0819 103.927 99.1501 104.076 99.2184L103.338 99.0447L103.437 99.1501C102.116 99.2184 100.677 98.7469 99.8019 98.9392C100.342 98.9888 100.342 99.0819 100.422 99.2184C99.4731 99.2184 98.5613 99.2183 97.4758 99.0881C97.5378 99.0881 97.575 99.1439 97.575 99.1749C97.2596 99.1796 96.9449 99.1442 96.6384 99.0695L96.6012 99.2804C96.0367 99.1873 95.3047 99.2804 94.6286 99.1377C94.3681 99.3734 92.9972 98.9454 92.2218 99.0447C91.9241 99.0013 92.8731 99.2804 92.0419 99.2804C91.9179 98.8214 90.9564 99.2804 90.8882 98.7904L90.1624 98.9826L89.9949 98.7407C89.3746 99.2122 89.0459 98.5546 88.134 98.7407C88.1836 98.7965 88.2829 98.809 88.2395 98.8462C87.9355 98.8028 87.2532 98.7841 87.7805 98.6477C87.2904 98.6477 85.6156 98.5857 86.3724 98.8276C86.3103 98.6911 86.9927 98.7966 87.3028 98.8276C87.2656 99.0385 86.5274 98.9702 86.3475 99.2059C86.2859 99.1701 86.2216 99.139 86.1553 99.1129L86.056 99.2494C85.1256 99.0385 84.1951 99.2494 83.5128 98.9454C83.4756 99.0075 83.3143 99.0633 82.9979 99.0571V98.7965L82.0178 98.8276L82.4831 99.1935C81.4099 99.3052 80.6222 98.902 79.7537 98.8648C79.5428 99.3176 78.0231 98.7655 77.2725 99.1811L77.9673 99.2742C76.4909 99.2742 76.2676 99.5223 74.8658 99.4168C75.8303 99.3124 76.786 99.1383 77.7253 98.8958C76.0257 99.1501 74.7603 98.7469 73.2095 99.0819C73.3212 99.1811 73.712 99.2308 73.3398 99.3548C73.0235 99.1439 71.8635 99.4293 72.0992 99.1563C71.6154 99.268 71.5409 99.5161 71.2494 99.5657L69.6056 99.3176L69.6552 99.3672C66.9197 100.099 64.4695 99.2308 61.7091 99.6402L61.7712 99.7766L61.064 99.6092C61.6161 99.7146 60.8345 99.7952 60.8035 99.9255L59.0046 99.727C58.986 99.8325 59.1039 100.105 59.5381 100.025V100.043ZM82.9731 99.0943H83.3949C83.4828 99.075 83.5738 99.075 83.6616 99.0943H83.3949C83.1778 99.1253 83.0227 99.2122 82.9731 99.0757V99.0943ZM121.835 99.8325C122.034 99.9627 121.544 99.8325 121.401 99.8697L122.083 99.9317C122.182 99.8325 121.934 99.8325 121.835 99.8325ZM83.0475 100.806L82.818 100.986L82.5141 100.856L83.0475 100.806ZM77.0802 101.03L77.7005 101.11L77.6509 101.147L77.0306 101.067L77.0802 101.03ZM70.3872 99.8325C69.9219 99.727 69.7669 100.05 69.3637 99.7642C69.8103 99.5037 70.1204 99.7642 70.3872 99.8325ZM80.8889 99.4107C81.035 99.4314 81.1832 99.4314 81.3293 99.4107C81.2239 99.3052 80.8207 99.1687 81.1122 99.1191C81.3169 99.2308 82.0054 99.237 82.0178 99.4168C81.4161 99.2928 81.013 99.8325 80.8889 99.4355V99.4107ZM94.9698 99.2308H94.8147L95.3667 99.3672L94.9698 99.2308ZM97.5254 99.3858C97.8293 99.6091 98.6109 99.5595 99.1506 99.603C99.2933 99.4107 98.7412 99.1936 98.1023 99.2184C97.3579 99.0757 97.7983 99.5471 97.5254 99.4107V99.3858ZM76.3111 99.9131L76.4661 100.068H76.3235L76.9438 100.149C76.1808 100.397 75.6101 100.012 75.2069 99.9627C75.5295 100.006 76.4909 100.354 76.3111 99.9379V99.9131ZM102.984 99.4975C103.53 99.6402 104.51 99.8139 104.417 99.9751C104.454 99.6774 103.666 99.5347 103.424 99.5347C103.274 99.5584 103.121 99.5542 102.972 99.5223L102.984 99.4975ZM102.953 100.062C102.44 99.9665 101.95 99.775 101.508 99.4975C102.289 99.3734 102.506 99.7642 102.407 99.9193C102.953 100.062 102.848 99.8635 103.139 99.8325L102.953 100.062ZM102.14 99.2432L101.818 99.2804C101.44 99.4044 101.359 99.7394 100.825 99.3982L101.818 99.2804C101.923 99.2501 102.032 99.2375 102.14 99.2432ZM108.79 99.3114L108.468 99.1998C108.79 99.1998 108.827 99.2618 108.79 99.3114L109.057 99.4044C108.343 99.4913 108.697 99.3982 108.771 99.3114H108.79ZM103.722 99.3486L102.786 99.3114C102.823 99.4541 103.381 99.3858 103.704 99.3486H103.722ZM108.579 99.5719C108.182 99.5719 107.159 99.6153 107.301 99.5719C107.376 99.4355 108.343 99.4727 108.561 99.5719H108.579ZM129.142 100.813L128.559 100.757L128.857 100.564L129.142 100.813ZM122.244 100.564L122.4 100.465L122.741 100.496L122.244 100.564ZM115.893 100.31C115.908 100.285 115.913 100.255 115.907 100.227C115.901 100.198 115.885 100.172 115.862 100.155C115.78 100.145 115.703 100.113 115.638 100.062C115.722 100.064 115.801 100.097 115.862 100.155C116.127 100.215 116.403 100.215 116.668 100.155C116.569 100.05 116.178 100.062 116.048 99.9875C116.637 99.7456 117.909 100.558 117.567 99.8201C117.809 99.9193 118.647 100.149 118.349 100.254C117.536 100.179 116.717 100.206 115.911 100.335C115.885 100.36 115.854 100.38 115.82 100.392C115.785 100.403 115.749 100.407 115.713 100.403C115.763 100.373 115.817 100.35 115.874 100.335L115.893 100.31ZM107.326 100.273C107.193 100.273 107.061 100.25 106.935 100.205C106.724 100.155 106.569 100.068 106.631 99.9751C107.134 100.062 106.811 100.143 106.935 100.205C107.055 100.25 107.18 100.281 107.308 100.298L107.326 100.273ZM105.806 100.304L106.594 100.447L106.197 100.291L107.382 100.589C107.113 100.66 106.832 100.674 106.557 100.629C106.282 100.584 106.02 100.482 105.788 100.329L105.806 100.304ZM105.534 100.44L105.372 100.273L105.614 100.447H105.534L105.571 100.49L104.243 100.385L105.534 100.44ZM91.9923 100.136C91.5085 100.757 93.1709 100.546 93.4376 100.831C93.4872 100.633 93.9835 100.316 92.6932 100.335C93.8098 100.124 93.3942 100.713 94.0579 100.211C93.6288 100.223 93.1998 100.183 92.7801 100.093H93.4004C93.0282 99.727 92.4203 100.279 91.9737 100.161L91.9923 100.136ZM85.169 100.372H84.3378L85.1256 100.403L85.169 100.372ZM64.699 101.365C64.761 101.501 63.7065 101.811 63.4584 101.563C63.8776 101.558 64.2945 101.499 64.699 101.389V101.365ZM55.9031 101.855L56.8398 101.91C56.6785 102.239 56.0086 101.954 55.5992 102.035C55.4131 101.91 55.7604 101.997 55.9031 101.879V101.855ZM49.8428 102.276L49.545 102.245L49.88 102.537L49.8428 102.276ZM50.2832 102.667C50.1033 102.816 50.7484 102.841 50.9035 102.81L50.2832 102.667ZM44.8555 103.362L45.2401 103.312L44.8679 103.064L44.8555 103.362ZM45.4448 102.99C45.5565 103.182 45.5379 103.449 46.4187 103.25C46.4187 103.033 46.1954 103.058 46.5055 102.785C46.2756 102.778 46.0463 102.814 45.8294 102.891C46.0341 102.891 46.2636 102.804 46.3256 102.94C46.0416 103.035 45.7376 103.052 45.4448 102.99C45.4255 102.948 45.396 102.912 45.3592 102.885C45.3223 102.858 45.2792 102.841 45.2339 102.835C45.2401 102.934 45.3208 102.977 45.4448 103.015V102.99ZM48.6642 102.512C48.7573 102.492 48.8457 102.454 48.9247 102.401L48.9805 102.45C48.9386 102.488 48.8868 102.515 48.8311 102.525C48.7753 102.536 48.7175 102.532 48.6642 102.512L48.2362 102.618C48.1493 102.804 48.7696 102.878 48.9371 102.965C48.6348 102.865 48.3108 102.85 48.0005 102.922C48.0563 102.971 48.0005 103.008 48.2548 102.984L47.7213 103.064C47.101 102.866 47.6717 102.748 48.2362 102.618C48.2362 102.58 48.292 102.537 48.3913 102.481C48.4858 102.471 48.581 102.491 48.6642 102.537V102.512ZM44.3531 102.456H44.6446C44.7997 102.512 44.7129 102.593 44.7687 102.642C44.4523 102.704 43.9685 102.624 44.3531 102.481V102.456ZM61.8766 101.166C61.6905 101.234 62.1496 101.414 62.5838 101.334L62.3667 101.613C62.3667 101.439 61.4672 101.507 61.368 101.501C61.2005 101.29 61.5479 101.371 61.8766 101.191V101.166ZM82.2908 100.273C82.4583 100.595 83.5686 100.372 83.8229 100.453C83.2274 100.54 81.9124 100.651 82.2908 100.273ZM84.2261 100.093C84.5301 100.093 84.6169 100.056 84.5921 100.223C84.741 100.285 84.9829 100.192 85.1318 100.26C84.5425 100.422 84.5673 100.155 84.2261 100.093C84.1311 100.099 84.0358 100.099 83.9408 100.093C84.0311 100.078 84.1234 100.078 84.2137 100.093H84.2261ZM72.2915 100.496L71.8759 100.273L71.2556 100.323L72.2915 100.496ZM65.4682 100.397C65.5302 100.533 64.7982 100.577 64.6432 100.515C64.699 100.695 65.189 100.645 65.5798 100.645C65.664 100.659 65.75 100.659 65.8342 100.645H65.5426C65.3937 100.608 65.4868 100.509 65.4868 100.447L65.6791 100.378H65.1332L65.4682 100.397ZM53.4653 100.93C53.2253 101.057 52.9477 101.092 52.6837 101.03C52.9211 100.932 53.1797 100.898 53.4343 100.93H53.4653ZM69.0783 100.05C68.3464 100.18 69.4443 100.31 68.9667 100.428L69.3513 100.391C68.731 100.614 68.8922 100.198 68.458 100.279L68.7496 100.229C68.9729 100.037 68.2967 100.124 68.2347 99.9875C68.5387 99.9007 69.3389 99.9999 69.0473 100.05H69.0783ZM52.7644 100.862C52.051 101.092 52.1441 100.719 51.7161 100.713C52.2495 100.515 52.1875 100.856 52.7334 100.862H52.7644ZM64.4261 99.758L64.4695 99.7208L63.8492 99.6464L63.8058 99.6898L64.4261 99.758ZM52.02 102.773C51.8915 102.799 51.7603 102.809 51.6292 102.804C51.7401 102.786 51.852 102.776 51.9642 102.773H52.02ZM86.0126 101.303C86.0126 101.253 86.087 101.228 86.1739 101.21C86.1739 101.241 86.1366 101.265 86.0126 101.303ZM87.4331 101.383H87.4889H87.5323H87.4331ZM136.877 102.177C137.157 102.432 136.58 102.177 136.338 102.177C136.555 102.183 136.666 102.035 136.877 102.177ZM135.016 101.607C135.202 101.701 135.4 101.766 135.606 101.799C135.382 101.788 135.165 101.722 134.973 101.607H135.016ZM136.567 101.861C136.246 101.869 135.924 101.848 135.606 101.799C135.913 101.78 136.222 101.801 136.524 101.861H136.567ZM129.843 101.241C130.122 101.345 130.42 101.39 130.718 101.371C129.446 101.408 130.953 101.65 131.047 101.762C130.589 101.732 130.153 101.558 129.8 101.265L129.843 101.241ZM128.168 101.054C128.286 101.067 128.404 101.067 128.522 101.054C128.393 101.092 128.257 101.098 128.125 101.073L128.168 101.054ZM127.691 101.154C127.401 101.112 127.131 100.985 126.915 100.788C127.455 100.713 127.778 100.986 128.156 101.054C127.815 101.073 127.511 101.017 127.647 101.179L127.691 101.154ZM114.162 101.296C114.261 101.296 114.503 101.296 114.509 101.408H113.777C113.442 101.365 113.97 101.34 114.118 101.321L114.162 101.296ZM111.47 100.806C110.881 100.806 111.184 101.017 110.887 100.955L110.924 100.657L111.47 100.806ZM111.83 99.3052L112.003 99.3424H111.805L111.83 99.3052ZM108.598 101.073L108.995 101.414C108.505 101.309 108.505 101.073 108.598 101.073ZM106.359 101.272L106.7 101.377L105.627 101.272H106.359ZM103.666 101.098L103.567 101.166L102.829 101.079L103.666 101.098ZM74.3199 101.371C74.1958 101.092 75.3806 101.166 75.7156 101.079C75.4985 101.433 74.7727 100.98 74.3199 101.358V101.371ZM52.9753 102.611H54.1042C53.242 102.723 53.8623 102.574 52.9753 102.568V102.611Z" fill="#F15E04"/>
<path d="M130.414 48.1992C130.395 48.1857 130.38 48.1679 130.369 48.1474C130.358 48.1268 130.352 48.104 130.352 48.0808C130.381 48.1152 130.402 48.1556 130.414 48.1992Z" fill="#F15E04"/>
<path d="M138.681 46.2079C138.669 46.195 138.659 46.1792 138.654 46.1619C138.648 46.1445 138.647 46.1261 138.65 46.1082C138.673 46.136 138.685 46.1718 138.681 46.2079Z" fill="#F15E04"/>
<path d="M139.092 45.9346L139.104 45.9221H139.129L139.092 45.9346Z" fill="#F15E04"/>
<path d="M149.953 33.2867C150.19 33.3677 149.909 33.3864 149.853 33.4488C149.903 33.3864 149.816 33.2555 149.953 33.2867Z" fill="#F15E04"/>
<path d="M149.234 33.5098C149.317 33.5167 149.4 33.4948 149.47 33.4478C149.439 33.4912 149.383 33.5222 149.234 33.5098Z" fill="#F15E04"/>
<path d="M149.667 33.1875C149.626 33.2906 149.557 33.3805 149.469 33.448C149.519 33.3798 149.5 33.2681 149.667 33.1875Z" fill="#F15E04"/>
<path d="M148.099 34.8314C148.266 34.8314 148.347 34.6577 148.347 34.6577C148.155 35.0609 148.601 34.7756 148.701 34.819C148.483 34.9803 148.353 34.8624 148.099 34.8314Z" fill="#F15E04"/>
<path d="M147.665 35.2036C147.69 35.1725 147.709 35.1365 147.721 35.0977C147.72 35.1185 147.715 35.139 147.705 35.1574C147.696 35.1759 147.682 35.1917 147.665 35.2036Z" fill="#F15E04"/>
<path d="M147.652 35.4081C147.528 35.495 147.379 35.4081 147.243 35.4081C147.28 35.1972 147.547 35.2841 147.664 35.2158C147.596 35.2779 147.509 35.3213 147.652 35.4081Z" fill="#F15E04"/>
<path d="M145.121 39.2662C145.158 39.2662 145.214 39.1918 145.276 39.2662L145.115 39.4523C145.009 39.4709 145.103 39.3159 145.121 39.2662Z" fill="#F15E04"/>
<path d="M144.19 39.6636C144.047 39.7938 144.283 39.8745 144.19 39.9117L143.979 39.7008L144.19 39.6636Z" fill="#F15E04"/>
<path d="M143.154 38.5403L143.216 38.5217L143.167 38.5588L143.154 38.5403Z" fill="#F15E04"/>
<path d="M143.763 40.5505L144.104 40.6746C143.924 40.7366 143.732 40.5567 143.763 40.5505Z" fill="#F15E04"/>
<path d="M143.415 41.2512L143.57 41.2388L143.253 41.4373L143.415 41.2512Z" fill="#F15E04"/>
<path d="M142.683 41.8093L142.714 41.8838L142.485 42.0078L142.683 41.8093Z" fill="#F15E04"/>
<path d="M135.773 48.8812C135.537 48.7199 135.897 48.509 135.922 48.3726C136.126 48.6703 135.636 48.5276 135.773 48.8812Z" fill="#F15E04"/>
<path d="M130.674 48.447L130.786 48.813C130.562 48.6021 130.755 48.7448 130.674 48.447Z" fill="#F15E04"/>
<path d="M113.951 100.189L102.928 98.1416L102.587 100.077L113.498 103.489L113.951 100.189Z" fill="#F15E04" stroke="#263238" stroke-width="0.843713" stroke-linecap="round" stroke-linejoin="round"/>
<path d="M122.927 91.5539C122.927 91.5539 114.292 91.6656 113.622 91.5539C112.952 91.4423 112.599 94.0352 112.146 94.9656C111.693 95.8961 108.964 99.1651 109.665 99.7357C110.366 100.306 112.847 99.7357 113.188 99.2829C113.529 98.8301 114.547 96.8947 114.547 96.8947C115.019 97.0526 115.454 97.3051 115.825 97.6368C116.196 97.9685 116.495 98.3724 116.705 98.8239C116.976 99.4964 117.066 100.228 116.967 100.946C116.868 101.664 116.583 102.344 116.141 102.918C115.688 103.259 112.388 102.236 111.799 102.006C111.436 101.799 111.014 101.721 110.601 101.782C110.188 101.844 109.808 102.043 109.522 102.347C108.505 103.259 107.934 104.624 108.84 105.188C109.745 105.753 111.228 105.529 111.799 105.759C112.369 105.988 115.775 108.6 117.933 109.164C120.092 109.729 124.639 111.329 124.639 111.329L138.385 135.645L143.967 144.85L153.712 127.482C153.712 127.482 138.056 114.97 135.333 112.471C132.61 109.971 129.651 106.888 129.31 105.765C128.969 104.642 126.016 93.8305 125.216 92.3541C125.016 91.9463 124.664 91.6336 124.236 91.4838C123.807 91.334 123.337 91.3592 122.927 91.5539Z" fill="white" stroke="#263238" stroke-width="0.843713" stroke-linecap="round" stroke-linejoin="round"/>
<path d="M197.928 243.571L194.082 207.42L141.207 210.112L141.933 243.571H197.928Z" fill="#263238" stroke="#263238" stroke-width="0.843713" stroke-linecap="round" stroke-linejoin="round"/>
<path d="M171.824 218.027C172.039 220.634 173.274 223.05 175.261 224.751C178.548 227.437 183.325 228.783 183.325 228.783" stroke="white" stroke-width="0.843713" stroke-linecap="round" stroke-linejoin="round"/>
<path d="M182.581 217.73L186.315 242.678" stroke="white" stroke-width="0.843713" stroke-linecap="round" stroke-linejoin="round"/>
<path d="M149.245 218.927C149.245 218.927 149.866 237.598 150.294 237.896C150.722 238.193 154.177 240.135 154.177 240.135L153.724 230.278" stroke="white" stroke-width="0.843713" stroke-linecap="round" stroke-linejoin="round"/>
<path d="M146.429 213.102L147.18 217.432L154.648 217.581L154.797 213.4L146.429 213.102Z" stroke="#263238" stroke-width="0.843713" stroke-linecap="round" stroke-linejoin="round"/>
<path d="M194.082 207.426L141.182 210.112L141.3 215.664C147.727 217.458 154.409 218.166 161.069 217.761C172.756 217.097 186.092 214.659 194.472 211.086L194.082 207.426Z" fill="white" stroke="#263238" stroke-width="0.843713" stroke-linecap="round" stroke-linejoin="round"/>
<path d="M150.996 124.479C150.996 124.479 146.846 128.772 145.878 131.811C144.911 134.851 141.313 141.352 139.793 149.651C138.274 157.951 136.611 170.537 137.442 179.246C138.274 187.955 140.345 203.729 139.793 207.463C139.241 211.198 139.378 212.023 140.897 212.854C142.417 213.685 155.14 215.9 169.096 214.659C183.053 213.418 194.963 209.262 195.372 207.885C195.936 205.201 196.215 202.465 196.204 199.722C196.204 196.819 195.788 178.979 195.788 178.284C195.788 177.59 197.45 147.722 198.139 142.307C198.827 136.892 199.522 132.382 193.437 127.649C187.352 122.916 175.182 115.063 175.182 115.063C175.182 115.063 159.569 116.322 150.996 124.479Z" fill="white" stroke="#263238" stroke-width="0.843713" stroke-linecap="round" stroke-linejoin="round"/>
<path d="M147.306 176.554C147.417 178.787 147.504 180.313 147.504 180.53" stroke="#263238" stroke-width="0.843713" stroke-linecap="round" stroke-linejoin="round"/>
<path d="M154.909 130.918C154.909 130.918 147 151.109 146.845 158.832C146.746 163.379 147 169.836 147.223 174.532" stroke="#263238" stroke-width="0.843713" stroke-linecap="round" stroke-linejoin="round"/>
<path d="M174.82 172.646C175.234 172.927 175.662 173.2 176.104 173.465" stroke="#263238" stroke-width="0.843713" stroke-linecap="round" stroke-linejoin="round"/>
<path d="M159.45 158.156C159.45 158.156 165.504 165.953 173.276 171.573" stroke="#263238" stroke-width="0.843713" stroke-linecap="round" stroke-linejoin="round"/>
<path d="M169.717 173.297C171.733 175.529 174.367 177.11 177.285 177.838" stroke="#263238" stroke-width="0.843713" stroke-linecap="round" stroke-linejoin="round"/>
<path d="M156.765 116.695L149.383 124.194L155.481 128.884L159.345 120.33L156.765 116.695Z" fill="white" stroke="#263238" stroke-width="0.843713" stroke-linecap="round" stroke-linejoin="round"/>
<path d="M155.243 108.842C155.243 108.842 156.416 116.695 156.416 117.402C156.416 118.109 155.448 128.884 155.448 128.884C155.448 128.884 162.271 123.729 163.773 122.321C165.274 120.913 172.91 112.595 172.91 112.595C172.91 112.595 173.145 108.141 173.263 105.449C173.381 102.757 173.617 96.4233 173.617 96.4233C173.617 96.4233 168.692 104.159 165.292 106.503C161.893 108.848 155.243 108.842 155.243 108.842Z" fill="white" stroke="#263238" stroke-width="0.843713" stroke-linecap="round" stroke-linejoin="round"/>
<path d="M168.104 105.647C168.104 105.647 165.505 110.852 162.316 113.891C159.128 116.931 156.765 116.695 156.765 116.695L155.524 111L168.104 105.647Z" fill="#263238" stroke="#263238" stroke-width="0.843713" stroke-linecap="round" stroke-linejoin="round"/>
<path d="M146.411 76.2761C146.411 76.2761 146.089 96.1257 147.218 98.8551C148.347 101.584 151.733 108.854 153.663 110.145C155.592 111.435 160.92 111.919 163.339 110.951C165.758 109.983 169.629 105.629 171.887 102.267C174.145 98.9047 174.306 94.3207 174.306 94.3207C174.306 94.3207 178.983 93.1917 180.273 91.4176C181.564 89.6436 182.531 84.8052 180.596 83.6763C178.661 82.5473 175.596 84.1601 175.596 84.1601C175.596 84.1601 175.919 79.6443 174.629 78.6766C173.339 77.709 171.564 75.4511 171.403 74.3345L171.242 73.2056C167.628 74.5066 163.903 75.4783 160.114 76.1086C154.63 76.9522 146.411 76.2761 146.411 76.2761Z" fill="white" stroke="#263238" stroke-width="0.843713" stroke-linecap="round" stroke-linejoin="round"/>
<path d="M156.385 83.4775C156.385 83.4775 156.54 85.6424 156.844 87.8197C157.148 89.9969 155.455 96.7954 155.145 97.7445C154.835 98.6936 157.465 99.1402 160.25 97.7445" stroke="#263238" stroke-width="0.843713" stroke-linecap="round" stroke-linejoin="round"/>
<path d="M157.31 101.764C157.31 101.764 162.415 102.688 165.51 98.6626" stroke="#263238" stroke-width="0.843713" stroke-linecap="round" stroke-linejoin="round"/>
<path d="M150.487 82.9751C150.487 82.9751 152.763 81.201 155.046 82.2183" stroke="#F15E04" stroke-width="2.53114" stroke-linecap="round" stroke-linejoin="round"/>
<path d="M161.728 82.5347C161.728 82.5347 164.935 81.3499 167.385 83.7195" stroke="#F15E04" stroke-width="2.53114" stroke-linecap="round" stroke-linejoin="round"/>
<path d="M155.164 88.2104C155.164 89.1471 154.767 89.9038 154.277 89.9038C153.787 89.9038 153.39 89.1471 153.39 88.2104C153.39 87.2738 153.787 86.5232 154.277 86.5232C154.767 86.5232 155.164 87.28 155.164 88.2104Z" fill="#263238"/>
<path d="M165.245 88.5515C165.245 89.4819 164.848 90.2387 164.358 90.2387C163.868 90.2387 163.471 89.4819 163.471 88.5515C163.471 87.621 163.868 86.8643 164.358 86.8643C164.848 86.8643 165.245 87.6148 165.245 88.5515Z" fill="#263238"/>
<path d="M152.534 57.251C152.534 57.251 140.444 63.5347 139.638 66.599C138.831 69.6633 145.282 67.5666 145.282 67.5666C145.282 67.5666 136.896 72.2437 136.896 75.0103C136.896 77.7768 144.799 77.5907 153.501 77.752C162.204 77.9133 171.403 74.3652 171.403 74.3652C171.403 74.3652 169.791 75.6554 172.024 77.5907C172.989 78.466 174.013 79.2742 175.088 80.0099L174.604 85.1708C175.412 84.5448 176.348 84.1043 177.346 83.8806L178.636 83.7193L179.256 77.752C179.256 77.752 183.288 76.4618 181.998 68.0753C180.708 59.6888 173.612 55.1792 165.25 55.1792C156.888 55.1792 152.534 57.251 152.534 57.251Z" fill="#F15E04" stroke="#263238" stroke-width="0.843713" stroke-linecap="round" stroke-linejoin="round"/>
<path d="M173.196 70.3025C170.975 71.8905 167.291 73.6893 161.702 74.1111C151.25 74.8927 149.159 73.9809 151.777 72.4115C154.395 70.8421 156.088 71.6237 156.088 71.6237" stroke="#263238" stroke-width="0.843713" stroke-linecap="round" stroke-linejoin="round"/>
<path d="M175.95 67.7031C175.567 68.2263 175.128 68.7067 174.641 69.136" stroke="#263238" stroke-width="0.843713" stroke-linecap="round" stroke-linejoin="round"/>
<path d="M175.298 64.5459C175.298 64.5459 172.296 66.6363 166.415 66.7666" stroke="#263238" stroke-width="0.843713" stroke-linecap="round" stroke-linejoin="round"/>
<path d="M173.643 109.431L156.646 125.72L162.862 133.573L177.271 114.003L173.643 109.431Z" fill="white" stroke="#263238" stroke-width="0.843713" stroke-linecap="round" stroke-linejoin="round"/>
<path d="M149.384 124.194L148.447 131.694L153.695 127.476L149.384 124.194Z" fill="white" stroke="#263238" stroke-width="0.843713" stroke-linecap="round" stroke-linejoin="round"/>
<path d="M156.646 125.72L155.48 128.884L158.296 127.531L156.646 125.72Z" fill="white" stroke="#263238" stroke-width="0.843713" stroke-linecap="round" stroke-linejoin="round"/>
<path d="M173.538 153.665L187.085 186.857C187.085 186.857 189.02 184.506 193.586 183.135C198.151 181.765 204.509 181.895 204.509 181.895C204.509 181.895 197.872 163.224 198.306 159.074C198.741 154.924 196.768 140.223 196.768 140.223" fill="white"/>
<path d="M173.538 153.665L187.085 186.857C187.085 186.857 189.02 184.506 193.586 183.135C198.151 181.765 204.509 181.895 204.509 181.895C204.509 181.895 197.872 163.224 198.306 159.074C198.741 154.924 196.768 140.223 196.768 140.223" stroke="#263238" stroke-width="0.843713" stroke-linecap="round" stroke-linejoin="round"/>
<path d="M207.555 192.111C207.555 192.111 204.063 198.085 199.261 201.93C196.278 204.312 190.037 208.754 174.921 212.99C172.768 213.611 168.283 214.374 167.477 212.581C166.671 210.788 167.75 207.321 169.133 206.496C170.517 205.671 182.83 201.099 184.349 199.164C185.869 197.228 188.499 187.825 188.499 187.825C188.499 187.825 198.039 182.98 202.326 184.915C206.612 186.851 207.697 190.728 207.555 192.111Z" fill="white" stroke="#263238" stroke-width="0.843713" stroke-linecap="round" stroke-linejoin="round"/>
<path d="M184.181 189.227C184.181 189.227 186.532 182.583 193.728 180.648C200.923 178.713 203.963 177.881 204.93 178.992C205.898 180.102 208.522 186.181 208.938 188.259C209.353 190.337 207.554 192.13 207.554 192.13C207.554 192.13 205.619 187.428 201.748 186.733C197.878 186.038 189.578 190.331 187.363 191.299C185.149 192.266 184.181 189.227 184.181 189.227Z" fill="white" stroke="#263238" stroke-width="0.843713" stroke-linecap="round" stroke-linejoin="round"/>
<path d="M132.807 184.363L133.589 182.924C133.589 182.924 142.744 185.542 147.713 186.46C152.682 187.378 158.308 188.681 160.268 189.599C162.228 190.517 164.318 193.259 164.318 193.259C164.586 192.155 165.137 191.139 165.917 190.314C166.697 189.488 167.679 188.88 168.766 188.55C172.556 187.372 189.428 181.225 190.998 180.573L193.218 179.655L193.727 180.629L164.449 195.219L132.807 184.363Z" fill="white" stroke="#263238" stroke-width="0.843713" stroke-linecap="round" stroke-linejoin="round"/>
<path d="M132.807 184.364L134.376 203.847L164.449 208.953L164.318 193.259L132.807 184.364Z" fill="#F15E04" stroke="#263238" stroke-width="0.843713" stroke-linecap="round" stroke-linejoin="round"/>
<path d="M164.32 193.259L193.728 180.629L190.869 201.627L164.45 208.952L164.32 193.259Z" fill="#F15E04" stroke="#263238" stroke-width="0.843713" stroke-linecap="round" stroke-linejoin="round"/>
<path d="M172.197 208.847C172.197 208.847 174.058 206.167 174.338 205.007C174.617 203.847 173.717 201.354 174.338 199.834C174.958 198.314 175.497 196.441 176.819 195.461C178.14 194.481 178.872 193.141 176.912 193.141C174.952 193.141 171.825 196.087 170.839 197.781C169.853 199.474 169.239 200.814 167.539 201.441C165.839 202.067 162.006 202.154 159.419 201.174C156.833 200.194 148.98 196.714 147.106 195.821C145.233 194.927 143.893 195.2 144.433 196.534C144.972 197.868 148.775 200.101 149.96 201.174C150.672 201.832 151.33 202.548 151.926 203.314C149.78 202.743 147.665 202.058 145.593 201.261C142.38 200.02 140.86 200.194 141.04 201.527C141.22 202.861 145.146 204.474 145.766 204.92C146.387 205.367 148.446 208.22 149.606 209.027C150.766 209.833 153.328 210.54 156.746 210.987C160.164 211.434 164.952 213.468 167.719 213.84C169.692 214.015 171.68 213.866 173.606 213.4" fill="white"/>
<path d="M172.197 208.847C172.197 208.847 174.058 206.167 174.338 205.007C174.617 203.847 173.717 201.354 174.338 199.834C174.958 198.314 175.497 196.441 176.819 195.461C178.14 194.481 178.872 193.141 176.912 193.141C174.952 193.141 171.825 196.087 170.839 197.781C169.853 199.474 169.239 200.814 167.539 201.441C165.839 202.067 162.006 202.154 159.419 201.174C156.833 200.194 148.98 196.714 147.106 195.821C145.233 194.927 143.893 195.2 144.433 196.534C144.972 197.868 148.775 200.101 149.96 201.174C150.672 201.832 151.33 202.548 151.926 203.314C149.78 202.743 147.665 202.058 145.593 201.261C142.38 200.02 140.86 200.194 141.04 201.527C141.22 202.861 145.146 204.474 145.766 204.92C146.387 205.367 148.446 208.22 149.606 209.027C150.766 209.833 153.328 210.54 156.746 210.987C160.164 211.434 164.952 213.468 167.719 213.84C169.692 214.015 171.68 213.866 173.606 213.4" stroke="#263238" stroke-width="0.843713" stroke-linecap="round" stroke-linejoin="round"/>
<path d="M145.754 204.92C145.754 204.92 151.38 207.401 152.893 207.953C153.589 208.217 154.304 208.425 155.033 208.574" stroke="#263238" stroke-width="0.843713" stroke-linecap="round" stroke-linejoin="round"/>
</svg>
