<svg width="210" height="244" viewBox="0 0 210 244" fill="none" xmlns="http://www.w3.org/2000/svg">
<path d="M168.401 1H7.15991V121.829H168.401V1Z" fill="white" stroke="#263238" stroke-width="0.843713" stroke-linecap="round" stroke-linejoin="round"/>
<path d="M174.561 121.5H1V127.914H174.561V121.5Z" fill="white" stroke="#263238" stroke-width="0.843713" stroke-linecap="round" stroke-linejoin="round"/>
<path d="M163.049 5.01318H12.5137V117.821H163.049V5.01318Z" fill="#263238" stroke="#263238" stroke-width="0.843713" stroke-linecap="round" stroke-linejoin="round"/>
<path d="M44.937 54.3769C44.8058 54.3116 44.698 54.2075 44.6281 54.0788C44.5581 53.9501 44.5295 53.8029 44.5462 53.6574V52.8758C44.52 52.6306 44.5075 52.3842 44.509 52.1376V52.0694L44.5462 46.0587L44.509 29.05C44.509 27.2883 44.4779 25.7686 44.4221 24.4721C44.4104 24.1844 44.4837 23.8996 44.633 23.6533C44.6848 23.5561 44.7614 23.4744 44.8552 23.4167C44.9489 23.3589 45.0564 23.3271 45.1665 23.3246H47.7221C48.0118 23.3138 48.3017 23.3409 48.5844 23.4052C48.8573 23.4859 49 23.7216 49 24.1062C49.0015 24.208 48.9799 24.3089 48.937 24.4013C48.894 24.4937 48.8307 24.5751 48.7518 24.6396C48.5973 24.769 48.411 24.8547 48.2122 24.8877H47.5112L46.8537 24.8443L46.1962 24.8071C46.1278 24.7865 46.0552 24.7846 45.9859 24.8018C45.9166 24.819 45.8532 24.8545 45.8024 24.9047C45.7517 24.9548 45.7153 25.0178 45.6973 25.0868C45.6792 25.1559 45.6802 25.2285 45.6999 25.2971C45.6999 26.5874 45.6999 27.7784 45.7434 28.8019V37.4303C45.7434 37.4861 45.7434 37.5109 45.824 37.5109H45.9109C46.5932 37.4551 47.3375 37.4303 48.1315 37.4303C48.5719 37.4303 48.7891 37.6226 48.7891 38.0071C48.8131 38.2045 48.7622 38.4038 48.6464 38.5654C48.5137 38.6723 48.3446 38.7234 48.175 38.7081H45.824C45.7124 38.7081 45.6627 38.7763 45.6627 38.9128L45.7434 45.0104C45.7971 46.9002 45.824 49.0837 45.824 51.5607V53.0805H49.6947C50.1909 53.0805 50.4391 53.2604 50.4391 53.6202C50.4391 54.0337 50.315 54.2942 50.0669 54.4017C49.4044 54.5404 48.727 54.5946 48.0509 54.563H46.314C45.8473 54.5915 45.3794 54.5283 44.937 54.3769Z" fill="#D9D9D9"/>
<path d="M64.8723 54.2344C64.7508 54.0014 64.6611 53.7531 64.6056 53.4962C64.5873 53.295 64.5304 53.0991 64.4381 52.9194L64.4815 52.7953C64.1667 51.1744 63.6972 49.5875 63.0797 48.0562L62.3415 45.9161C62.0424 45.2301 61.7815 44.5281 61.5599 43.8133L61.2312 42.827C58.7499 35.189 57.1971 31.0537 56.5727 30.421C56.3306 31.3627 56.22 32.3334 56.2439 33.3054C56.2439 33.9257 56.2439 34.484 56.2873 34.9554L56.3246 36.562L56.2873 37.5483C56.2563 37.8761 56.2418 38.2053 56.2439 38.5345C56.2384 39.0588 56.2654 39.583 56.3246 40.1039L56.4114 41.4189H56.2873C56.2873 46.0009 56.3825 48.5276 56.5727 48.999V52.7209C56.6948 52.9935 56.7521 53.2908 56.7402 53.5893C56.7424 53.8042 56.6599 54.0115 56.5107 54.1662C56.4416 54.2445 56.3567 54.3072 56.2615 54.35C56.1662 54.3928 56.063 54.4147 55.9586 54.4143C55.3817 54.4143 55.0902 53.6699 55.0902 52.1874L55.1708 50.8724C55.2299 50.422 55.2589 49.9681 55.2576 49.5139C55.2576 48.1906 55.2163 46.2118 55.1336 43.5776C55.0529 40.9413 55.0095 38.9688 55.0095 37.6475C55.0095 36.8535 55.0509 35.6315 55.1336 33.9815C55.2163 32.3315 55.2576 31.124 55.2576 30.359V29.8255C55.2576 28.4794 55.5058 27.5986 55.9958 27.1892L56.1199 27.3133L56.5355 27.2264C56.6757 27.2783 56.8013 27.3635 56.9014 27.4746C56.9533 27.5219 56.9948 27.5793 57.0236 27.6433C57.0524 27.7073 57.0678 27.7766 57.0689 27.8467L57.1496 28.0949C57.1514 28.1652 57.1661 28.2345 57.193 28.2995C57.938 31.113 58.9302 33.855 60.158 36.4937C61.7212 40.2156 62.6951 42.674 63.0797 43.8691C63.3588 44.8306 63.5759 45.6804 63.7434 46.4248C64.1057 48.3005 64.7322 50.1154 65.6043 51.8152L65.6911 51.6912C66.3156 45.5998 66.6298 38.1189 66.634 29.2486L66.5968 28.7524C66.5634 28.5766 66.5489 28.3978 66.5533 28.2189C66.5533 27.642 66.7456 27.3505 67.1302 27.3505C67.2561 27.3574 67.3784 27.395 67.4864 27.4598C67.5945 27.5247 67.6852 27.6149 67.7505 27.7227C67.9268 27.9614 68.0204 28.251 68.0173 28.5477V31.308L67.8126 31.6368C67.8126 34.242 67.6616 38.5263 67.3597 44.4894C67.0579 50.4526 66.7684 53.6927 66.4913 54.2096L65.7966 54.3709V54.4143L65.7532 54.3709L65.3438 54.4949C65.2487 54.5 65.1541 54.4782 65.0707 54.4322C64.9874 54.3861 64.9186 54.3176 64.8723 54.2344Z" fill="#D9D9D9"/>
<path d="M75.8514 54.1536C75.5217 53.9674 75.2331 53.7164 75.0029 53.4158C74.7726 53.1152 74.6055 52.7712 74.5115 52.4044C74.126 51.0506 73.8705 49.6631 73.7486 48.2608C73.4645 46.117 73.2988 43.9592 73.2523 41.7972C73.2523 40.8606 73.3081 39.7936 73.4198 38.5841L73.6679 35.9912C73.8044 33.9318 73.9595 32.3686 74.1394 31.3141C74.3012 30.297 74.7125 29.3359 75.3365 28.5165C75.6865 28.0915 76.122 27.7449 76.6146 27.4991C77.1073 27.2533 77.6461 27.1139 78.1961 27.0898C78.414 27.06 78.6338 27.0475 78.8537 27.0526C79.7097 27.0526 80.1315 27.2449 80.1315 27.6295C80.1275 27.7177 80.1008 27.8035 80.0541 27.8784C80.0074 27.9534 79.9422 28.015 79.8647 28.0575C79.7023 28.1756 79.5073 28.2406 79.3065 28.2436L78.8971 28.2064L78.5249 28.163C78.0707 28.1616 77.6308 28.3222 77.2843 28.6158C76.8724 28.975 76.5533 29.4282 76.3538 29.937C75.8021 31.2243 75.4286 32.5808 75.2435 33.969C75.0264 35.6997 74.8837 37.2132 74.8341 38.5034L74.7907 41.6732C74.7761 42.6775 74.8175 43.6819 74.9147 44.6816C75.1453 45.1061 75.2788 45.5764 75.3055 46.0587C75.3758 46.679 75.4379 47.5226 75.4916 48.5895C75.5252 49.4277 75.65 50.2597 75.8638 51.0707C76.0371 51.7136 76.3951 52.2916 76.8935 52.7332C77.5378 53.2344 78.3428 53.4836 79.1576 53.4341C79.5453 53.4346 79.9219 53.3055 80.2277 53.0672C80.5334 52.8288 80.7507 52.4951 80.8448 52.1191C81.2241 51.2012 81.4464 50.2262 81.5023 49.2346C81.5892 47.994 81.6264 46.9581 81.6264 46.1331V43.869C81.217 43.553 80.7018 43.4064 80.1873 43.4596H79.8585C79.7092 43.4876 79.5577 43.5021 79.4057 43.5031C78.742 43.5031 78.4132 43.3356 78.4132 43.0068C78.4132 42.5416 78.742 42.3059 79.4057 42.3059C79.871 42.3059 80.2555 42.3059 80.5595 42.3493L81.4651 42.3865C81.8865 42.4465 82.3017 42.5441 82.7057 42.6781C83.0345 42.7835 83.202 42.9386 83.202 43.1309C83.1593 43.6383 83.0616 44.1395 82.9104 44.6258C82.8048 45.1434 82.7364 45.6678 82.7057 46.1952C82.7057 47.3489 82.7057 48.391 82.7864 49.2967C82.867 50.2023 82.8236 51.3189 82.8236 52.4726C81.43 53.8993 80.0302 54.6127 78.6241 54.6127C77.6775 54.6631 76.7313 54.5064 75.8514 54.1536Z" fill="#D9D9D9"/>
<path d="M87.7932 53.9302C87.8695 53.4817 87.8966 53.0262 87.8739 52.5718C87.8739 50.0451 87.9152 46.2964 87.9979 41.3257C88.0806 36.355 88.122 32.7862 88.122 30.6193L88.2088 29.1367L88.3329 27.8961C88.3267 27.857 88.3298 27.8169 88.3419 27.7792C88.3539 27.7415 88.3746 27.7071 88.4024 27.6787C88.4301 27.6504 88.464 27.629 88.5015 27.6161C88.539 27.6032 88.5789 27.5993 88.6182 27.6046C88.8155 27.618 89.0098 27.6597 89.1951 27.7286L89.3192 27.7721C89.3192 28.3924 89.3192 28.9258 89.2757 29.4159V35.5134C89.3068 36.8285 89.3192 38.3296 89.3192 40.0044C89.2795 40.3046 89.265 40.6075 89.2757 40.9101L89.2385 41.7723C89.2385 42.3244 89.1951 42.8888 89.1951 43.4657C89.1951 44.0426 89.1951 44.6691 89.2385 45.1902L89.2757 46.9642L89.1517 47.293L89.1951 47.2496C89.1951 47.3364 89.1951 47.3922 89.1517 47.4171V47.5783C89.1475 47.7777 89.1899 47.9752 89.2757 48.1552L89.1517 52.1127V52.3609C89.1374 52.6366 89.1519 52.9131 89.1951 53.1859C89.1909 53.2137 89.1933 53.2422 89.2021 53.2689C89.2109 53.2957 89.2259 53.32 89.2458 53.3399C89.2657 53.3598 89.29 53.3748 89.3168 53.3836C89.3435 53.3924 89.372 53.3948 89.3998 53.3906L91.5398 53.4712C92.1726 53.4712 92.6068 53.4712 92.8425 53.4712H93.2705H93.3945C93.5571 53.488 93.7064 53.5682 93.8102 53.6945C93.936 53.8223 94.0091 53.9929 94.0148 54.1721C94.0148 54.5009 93.7915 54.6746 93.3573 54.7056C92.9231 54.7366 91.7507 54.6622 89.9333 54.6622L90.0201 54.7056C89.7591 54.7047 89.4982 54.7171 89.2385 54.7428C88.9949 54.8021 88.7449 54.8313 88.4942 54.8297C88.1096 54.8545 87.8739 54.5505 87.7932 53.9302Z" fill="#D9D9D9"/>
<path d="M99.1192 53.9305C99.008 53.9257 98.8967 53.9404 98.7905 53.9739H98.4617C97.8414 53.9739 97.4754 53.8374 97.308 53.5583C97.3142 53.4547 97.348 53.3547 97.4058 53.2686C97.4636 53.1825 97.5433 53.1133 97.6367 53.0682L97.8414 52.8573H99.0386L99.1999 52.6961L99.2867 52.3239L99.3239 51.8276C99.3239 50.1528 99.2867 48.6579 99.1999 47.3428L99.1192 45.8169L99.0386 42.765C99.0386 41.6981 99.0799 40.0915 99.1627 37.9453L99.2433 33.1689C99.2665 31.5742 99.1981 29.9795 99.0386 28.3926C98.6331 28.2925 98.2153 28.2507 97.798 28.2685L97.3452 28.312C97.1664 28.3376 96.9861 28.35 96.8055 28.3492C96.2844 28.3492 96.0239 28.1197 96.0239 27.6482C96.0239 27.5428 96.148 27.4311 96.3961 27.3195C96.5905 27.226 96.8011 27.1712 97.0164 27.1582C98.0523 27.1601 99.0874 27.214 100.118 27.3195C100.765 27.3533 101.404 27.4786 102.016 27.6917C102.506 27.8591 102.754 28.0887 102.754 28.3926C102.731 28.5083 102.689 28.6194 102.63 28.7214L101.681 28.802C101.32 28.5971 100.903 28.5103 100.49 28.5539L100.285 28.6779C100.402 29.3995 100.443 30.1313 100.409 30.8614C100.409 32.6727 100.409 34.3103 100.366 35.7618L100.285 40.6684C100.285 41.909 100.339 43.4039 100.447 45.1532C100.534 47.163 100.571 48.6703 100.571 49.6876V50.2211C100.543 50.4682 100.531 50.7168 100.534 50.9654C100.502 51.354 100.541 51.7451 100.651 52.1192L100.614 52.1998C100.614 52.4728 100.918 52.6092 101.52 52.6092C101.727 52.6116 101.934 52.5992 102.14 52.572H102.76C103.554 52.572 103.958 52.7643 103.958 53.1489C103.964 53.2641 103.945 53.3794 103.903 53.4866C103.86 53.5938 103.794 53.6903 103.709 53.7692C103.526 53.924 103.291 54.0038 103.052 53.9925C102.828 53.9967 102.605 53.9696 102.388 53.9119C102.156 53.8841 101.922 53.8696 101.687 53.8684C101.431 53.8956 101.181 53.9669 100.949 54.0793C100.72 54.2103 100.467 54.2927 100.205 54.3213C99.6031 54.315 99.2309 54.1786 99.1192 53.9305Z" fill="#D9D9D9"/>
<path d="M107.357 54.4636C107.24 54.4007 107.138 54.3123 107.06 54.2049C106.982 54.0976 106.928 53.974 106.904 53.8433L107.109 53.5145C107.36 53.5339 107.609 53.5754 107.853 53.6386C108.089 53.7319 108.338 53.7863 108.592 53.7998C108.897 53.7965 109.198 53.729 109.476 53.6019C109.754 53.4747 110.002 53.2907 110.204 53.0617C110.7 52.5322 111.068 51.8954 111.277 51.2008C111.646 49.8859 111.84 48.5281 111.854 47.1626C111.786 45.019 111.191 42.925 110.124 41.065C109.41 39.8244 108.883 38.8009 108.474 38.0628C108.059 37.2416 107.714 36.3867 107.444 35.5071C107.101 34.4552 106.921 33.3569 106.911 32.2505C106.954 31.05 107.206 29.8663 107.655 28.752C107.872 28.1588 108.232 27.6282 108.703 27.2075C109.096 26.8235 109.618 26.602 110.167 26.5872C110.546 26.596 110.913 26.724 111.215 26.9531C111.358 27.0333 111.48 27.1468 111.569 27.2839C111.659 27.4211 111.714 27.5779 111.73 27.7409C111.73 27.958 111.55 28.0697 111.197 28.0697C111.051 28.0587 110.909 28.0164 110.781 27.9456C110.642 27.8704 110.487 27.8279 110.328 27.8216C110.119 27.8245 109.913 27.87 109.722 27.9553C109.531 28.0406 109.36 28.164 109.218 28.3178C108.871 28.6757 108.616 29.1119 108.474 29.5894C108.166 30.4929 108 31.4388 107.984 32.3932C107.986 32.935 108.055 33.4745 108.188 33.9998C108.188 34.161 108.244 34.3037 108.269 34.4092C108.294 34.4897 108.309 34.5731 108.312 34.6573L108.561 35.4823L108.765 36.2205L109.094 36.9648C109.169 37.1433 109.258 37.3155 109.361 37.4797C109.46 37.6285 109.547 37.7774 109.627 37.9139L110.124 38.7761C110.235 38.9436 110.465 39.3344 110.825 39.9485C111.187 40.5846 111.516 41.2388 111.811 41.9086C112.066 42.4308 112.273 42.9747 112.431 43.5338C112.588 44.1471 112.712 44.7683 112.803 45.3947C112.889 46.1464 112.93 46.9024 112.927 47.6588C112.938 48.9197 112.756 50.1747 112.388 51.3806C112.04 52.5661 111.282 53.5888 110.248 54.2651C109.704 54.6008 109.075 54.773 108.436 54.7613L108.232 54.8419C107.918 54.7747 107.621 54.6461 107.357 54.4636ZM111.519 27.958C111.52 27.9521 111.52 27.946 111.518 27.9402C111.517 27.9344 111.513 27.9292 111.509 27.9249C111.505 27.9206 111.5 27.9174 111.494 27.9156C111.488 27.9138 111.482 27.9135 111.476 27.9146V27.958H111.519Z" fill="#D9D9D9"/>
<path d="M124.08 54.3582C123.927 49.28 123.85 45.6016 123.85 43.3231L123.726 43.1556L123.888 42.7834C123.884 42.2727 123.83 41.7636 123.726 41.2637L123.106 41.0962C122.839 41.1809 122.561 41.2227 122.281 41.2202C121.824 41.1865 121.369 41.1181 120.923 41.0155C120.508 40.8872 120.078 40.8183 119.645 40.8108L119.192 40.9721C119.192 41.9336 119.192 42.802 119.155 43.565C119.117 44.328 119.111 45.2026 119.111 46.164L119.192 46.3253C119.192 47.0945 119.235 48.2483 119.316 49.7866C119.397 51.325 119.44 52.4353 119.44 53.2045C119.448 53.468 119.392 53.7296 119.279 53.9675C119.235 54.0614 119.164 54.1406 119.076 54.1956C118.988 54.2506 118.886 54.2791 118.782 54.2776C118.162 54.2776 117.877 53.4526 117.877 51.7964C117.877 50.4007 117.877 49.1353 117.92 48.0126L117.957 44.2597C118.012 42.9145 117.971 41.5671 117.833 40.2278C118.031 39.3345 118.1 38.4175 118.038 37.5046C118.038 36.1896 117.988 34.583 117.877 32.6849L117.796 31.0845L117.709 27.8713C117.711 27.6716 117.786 27.4795 117.92 27.3317C117.977 27.2555 118.051 27.1934 118.136 27.1504C118.221 27.1074 118.315 27.0845 118.41 27.0835C118.962 27.0835 119.235 27.8837 119.235 29.4779C119.235 31.343 119.221 33.0302 119.192 34.5396C119.163 36.049 119.136 37.7031 119.111 39.502C119.111 39.8308 120.153 39.992 122.244 39.992H122.405C122.807 40.0278 123.21 39.9202 123.54 39.6881C123.668 39.5463 123.766 39.3792 123.825 39.1976C123.885 39.016 123.906 38.8239 123.888 38.6336C123.888 37.1821 123.795 35.2839 123.602 32.9516C123.435 30.427 123.354 28.5289 123.354 27.2696C123.354 27.1867 123.373 27.1047 123.408 27.0297C123.443 26.9546 123.495 26.8883 123.559 26.8354C123.694 26.712 123.872 26.6453 124.055 26.6493L124.427 26.7734C124.559 26.7772 124.686 26.8204 124.793 26.8975C124.793 29.0354 124.876 32.2341 125.041 36.4935C125.209 40.7798 125.289 43.9868 125.289 46.133C125.289 49.371 125.387 52.0879 125.581 54.2838L125.289 54.7366C125.314 54.4947 124.905 54.3582 124.08 54.3582ZM122.721 39.471L122.802 39.5578H122.721V39.471Z" fill="#D9D9D9"/>
<path d="M46.4427 91.0924C45.956 90.945 45.5014 90.7072 45.1029 90.3914C44.6674 90.012 44.3111 89.5504 44.0546 89.0329C43.389 87.5518 43.0383 85.9486 43.0248 84.3249C42.969 83.3944 42.9442 82.5694 42.9442 81.8436V77.1293C42.9442 75.3429 42.9938 73.6184 43.1055 71.9374C43.1646 70.8968 43.2889 69.8609 43.4777 68.8359C43.6467 67.9587 43.9087 67.102 44.2593 66.2803C44.528 65.5655 44.9665 64.9269 45.5371 64.4194C45.8795 64.1779 46.253 63.9839 46.6474 63.8425C46.9986 63.7104 47.3424 63.5592 47.6771 63.3896H49.4512C49.4672 63.4059 49.4867 63.4183 49.5082 63.4258C49.5297 63.4333 49.5526 63.4358 49.5752 63.4331L49.7799 63.4765L49.9412 63.6005C50.0281 63.6812 50.0653 63.737 50.0653 63.7618C50.0998 63.8397 50.1147 63.9249 50.1087 64.01L49.5752 64.6303H47.8446C47.5663 64.642 47.2942 64.7161 47.0483 64.8471C46.8024 64.9781 46.5891 65.1626 46.4241 65.387C45.9685 65.9496 45.6386 66.6031 45.4564 67.3038C45.2089 68.0978 45.0284 68.9112 44.9168 69.7353C44.7803 70.6658 44.6997 71.4784 44.6687 72.1669C44.6128 73.0416 44.588 73.6495 44.588 73.9782L44.5074 74.1829C44.5074 75.7213 44.4764 77.1045 44.4267 78.3451L44.3399 82.5012C44.335 83.6184 44.418 84.7342 44.588 85.8384C44.7144 86.9161 45.1279 87.9401 45.7852 88.8034C46.1229 89.2504 46.5672 89.6055 47.0776 89.8364C47.588 90.0672 48.1482 90.1663 48.7068 90.1247C49.0852 90.1378 49.454 90.0045 49.7365 89.7525C50.1521 89.7525 50.3568 89.9014 50.3568 90.2053C50.3568 90.3976 50.1831 90.6209 49.842 90.8876C49.5218 91.1436 49.1667 91.3525 48.7875 91.5079H47.429L46.4427 91.0924Z" fill="#D9D9D9"/>
<path d="M55.177 90.3917C55.2505 89.9428 55.2776 89.4876 55.2576 89.0332C55.2576 86.5106 55.299 82.7619 55.3817 77.7871C55.4644 72.8123 55.5058 69.2435 55.5058 67.0807L55.5864 65.5982L55.7105 64.3576C55.7043 64.3184 55.7074 64.2784 55.7194 64.2406C55.7315 64.2029 55.7522 64.1685 55.7799 64.1402C55.8077 64.1118 55.8416 64.0904 55.8791 64.0775C55.9166 64.0646 55.9565 64.0607 55.9958 64.066C56.1931 64.0794 56.3874 64.1212 56.5727 64.1901L56.6968 64.2335C56.6968 64.8538 56.6967 65.3873 56.6595 65.8773V71.9749C56.6843 73.2941 56.6968 74.791 56.6968 76.4659C56.6637 76.7665 56.6513 77.0691 56.6595 77.3715L56.6161 78.2337C56.5851 78.7858 56.5727 79.3503 56.5727 79.9272C56.5727 80.504 56.5727 81.1305 56.6161 81.6516L56.6595 83.4257L56.5355 83.7544L56.5727 83.7172C56.5796 83.7737 56.5664 83.8308 56.5355 83.8785V84.046C56.5298 84.2454 56.5724 84.4433 56.6595 84.6228L56.5355 88.5742V88.8223C56.5242 89.0979 56.5366 89.3739 56.5727 89.6473C56.5685 89.6751 56.5709 89.7036 56.5797 89.7303C56.5885 89.7571 56.6035 89.7814 56.6234 89.8013C56.6433 89.8212 56.6676 89.8362 56.6943 89.845C56.7211 89.8538 56.7495 89.8562 56.7774 89.852L58.9236 89.9326C59.5439 89.9326 59.9843 89.9326 60.2201 89.9326H60.6543H60.7783C60.8585 89.9389 60.9363 89.9621 61.0069 90.0006C61.0774 90.039 61.1391 90.092 61.1877 90.1559C61.3136 90.2837 61.3867 90.4543 61.3924 90.6336C61.3924 90.9623 61.1753 91.1422 60.7349 91.167C60.2945 91.1918 59.1283 91.1236 57.3171 91.1236L57.3977 91.167C57.1365 91.1653 56.8755 91.1799 56.6161 91.2105C56.3717 91.2648 56.1221 91.2919 55.8717 91.2911C55.4872 91.3407 55.2576 91.0244 55.177 90.3917Z" fill="#D9D9D9"/>
<path d="M72.7193 91.0304C72.5603 90.8076 72.4737 90.5412 72.4712 90.2675C72.2231 88.2659 72.0722 87.0253 72.0184 86.5456L71.8137 84.8957C71.1369 84.7516 70.4462 84.6829 69.7543 84.6909L68.2718 84.6103C67.7946 84.5434 67.3142 84.502 66.8327 84.4862C66.6652 84.4862 66.5659 84.5545 66.5411 84.6909C66.5163 84.8274 66.5411 84.815 66.4977 84.815L66.4171 85.64C66.3171 86.6355 66.166 87.6251 65.9642 88.605C65.8699 89.2 65.7032 89.7812 65.468 90.3357C65.2509 90.8009 65.0462 91.0366 64.8477 91.0366C64.6485 91.0252 64.4596 90.9439 64.3142 90.8071C64.2324 90.7565 64.1635 90.6876 64.1129 90.6058C64.0623 90.524 64.0314 90.4315 64.0227 90.3357L64.0661 90.2116L64.1033 90.0876C64.5996 88.1398 65.009 86.2045 65.3439 84.2815L65.834 81.7259L66.3302 78.6244L66.783 75.9013C66.9195 75.1631 67.1676 73.9659 67.5212 72.3221C67.9058 70.4571 68.1394 69.1792 68.2222 68.4886C68.3045 67.9833 68.3604 67.4739 68.3896 66.9627C68.5013 65.9206 68.5943 65.1514 68.675 64.6614C68.6946 64.2377 68.7783 63.8194 68.9231 63.4208H69.2146C69.3063 63.4527 69.403 63.4674 69.5 63.4642C69.6343 63.4745 69.7694 63.4579 69.8972 63.4153C70.025 63.3727 70.1431 63.3049 70.2443 63.2161C70.4326 63.2151 70.6151 63.2811 70.7592 63.4022C70.8272 63.4526 70.8827 63.5179 70.9215 63.5932C70.9602 63.6685 70.9811 63.7517 70.9825 63.8364C70.9959 65.35 71.0932 66.8617 71.274 68.3646C71.3795 69.2454 71.4663 69.9712 71.5222 70.548C71.8199 74.0879 72.587 80.7334 73.8235 90.4846V90.6086C73.8314 90.7323 73.8049 90.8558 73.7469 90.9653C73.6888 91.0748 73.6015 91.1661 73.4947 91.2289C73.222 91.2437 72.9514 91.1744 72.7193 91.0304ZM71.609 83.7605C71.3319 79.8112 70.8088 73.9763 70.0396 66.2556L67.819 77.2535C67.3627 79.2199 67.0456 81.216 66.8699 83.227C66.8699 83.3635 67.3909 83.4876 68.4393 83.5992C69.4876 83.7109 70.3994 83.7605 71.1934 83.7605H71.609Z" fill="#D9D9D9"/>
<path d="M77.8674 90.9501C77.7502 90.8872 77.6487 90.7988 77.5703 90.6915C77.492 90.5841 77.4387 90.4605 77.4146 90.3298L77.6193 90.001C77.8705 90.0204 78.1196 90.062 78.3636 90.1251C78.5993 90.2184 78.8486 90.2728 79.1018 90.2863C79.4051 90.286 79.7049 90.2218 79.9817 90.0978C80.2586 89.9738 80.5061 89.7929 80.7084 89.5668C81.2045 89.0374 81.5717 88.4005 81.7815 87.7059C82.1504 86.391 82.3444 85.0333 82.3584 83.6677C82.2898 81.5241 81.6955 79.4302 80.6277 77.5702C79.9144 76.3295 79.3871 75.3061 78.9777 74.5679C78.561 73.7368 78.2165 72.8714 77.948 71.9812C77.6053 70.9314 77.4254 69.8352 77.4146 68.7308C77.4581 67.529 77.7078 66.3435 78.1527 65.2261C78.3742 64.6336 78.7361 64.1037 79.2072 63.6816C79.5996 63.2977 80.1224 63.0761 80.6711 63.0613C81.0513 63.0706 81.4185 63.201 81.7195 63.4335C81.8619 63.5126 81.9831 63.625 82.0728 63.7611C82.1624 63.8972 82.2178 64.0529 82.2343 64.215C82.2343 64.4321 82.0544 64.5438 81.7008 64.5438C81.555 64.5328 81.4132 64.4905 81.2852 64.4197C81.1457 64.3445 80.9908 64.3021 80.8324 64.2957C80.6233 64.2986 80.417 64.3441 80.2261 64.4294C80.0352 64.5147 79.8637 64.6381 79.7221 64.7919C79.3746 65.1516 79.1192 65.59 78.9777 66.0697C78.6692 66.9709 78.5038 67.9149 78.4877 68.8673C78.4901 69.4092 78.5588 69.9487 78.6924 70.4739C78.6924 70.6414 78.7482 70.7778 78.773 70.8833C78.795 70.9645 78.8095 71.0476 78.8164 71.1314L79.0646 71.9564L79.2693 72.7008L79.598 73.4389C79.673 73.6174 79.7622 73.7896 79.8647 73.9538C79.964 74.1089 80.0508 74.2515 80.1315 74.388L80.6277 75.2502C80.7394 75.4177 80.9689 75.8085 81.3287 76.4288C81.6919 77.0621 82.0212 77.7144 82.3149 78.3827C82.5696 78.905 82.7772 79.4488 82.9352 80.0079C83.0921 80.6212 83.2163 81.2424 83.3074 81.8688C83.3907 82.6206 83.43 83.3766 83.4253 84.133C83.4376 85.3935 83.2577 86.6485 82.8918 87.8548C82.5406 89.0367 81.7825 90.0562 80.7518 90.733C80.2081 91.0687 79.5794 91.2409 78.9405 91.2292L78.7296 91.3099C78.4209 91.2491 78.1277 91.1268 77.8674 90.9501ZM82.0296 64.4756C82.0296 64.4641 82.025 64.453 82.0169 64.4449C82.0087 64.4367 81.9977 64.4321 81.9862 64.4321V64.4756H82.0296Z" fill="#D9D9D9"/>
<path d="M87.1783 90.9501C87.0603 90.8883 86.9581 90.8003 86.8796 90.6927C86.801 90.5851 86.7483 90.461 86.7254 90.3298L86.9301 90.001C87.1793 90.021 87.4263 90.0626 87.6683 90.1251C87.9063 90.218 88.1576 90.2724 88.4127 90.2863C88.7158 90.2849 89.0153 90.2201 89.2919 90.0962C89.5686 89.9723 89.8163 89.792 90.0193 89.5668C90.5156 89.0385 90.881 88.4011 91.0862 87.7059C91.4551 86.391 91.649 85.0333 91.663 83.6677C91.5945 81.5241 91.0002 79.4302 89.9324 77.5702C89.2191 76.3295 88.6918 75.3061 88.2886 74.5679C87.8697 73.737 87.5232 72.8716 87.2527 71.9812C86.9071 70.9321 86.7271 69.8354 86.7192 68.7308C86.7597 67.5286 87.0095 66.3426 87.4574 65.2261C87.6767 64.634 88.0364 64.104 88.5057 63.6816C88.8984 63.2982 89.421 63.0767 89.9696 63.0613C90.3501 63.0689 90.7179 63.1994 91.0179 63.4335C91.1614 63.5113 91.2835 63.6234 91.3733 63.7598C91.4631 63.8961 91.5179 64.0525 91.5328 64.215C91.5328 64.4321 91.3591 64.5438 90.9993 64.5438C90.8553 64.5335 90.7154 64.4911 90.5899 64.4197C90.4502 64.3451 90.2954 64.3027 90.1371 64.2957C89.9271 64.2988 89.72 64.3444 89.5281 64.4297C89.3362 64.515 89.1636 64.6382 89.0206 64.7919C88.6737 65.1511 88.4202 65.5898 88.2824 66.0697C87.972 66.9707 87.8046 67.9146 87.7862 68.8673C87.7886 69.4092 87.8573 69.9487 87.9909 70.4739C88.0219 70.6414 88.0467 70.7778 88.0777 70.8833C88.0985 70.9645 88.1109 71.0477 88.1149 71.1314L88.363 71.9564L88.5677 72.7008L88.8965 73.4389C88.9735 73.6176 89.0648 73.7898 89.1694 73.9538L89.4362 74.388L89.9262 75.2502C90.0379 75.4177 90.2736 75.8085 90.6271 76.4288C90.9949 77.0607 91.3263 77.7131 91.6196 78.3827C91.8746 78.9048 92.0822 79.4487 92.2399 80.0079C92.3968 80.6212 92.521 81.2424 92.6121 81.8688C92.6976 82.6205 92.739 83.3765 92.7362 84.133C92.7452 85.3932 92.5654 86.6478 92.2027 87.8548C91.8514 89.0384 91.0906 90.0585 90.0565 90.733C89.5131 91.0693 88.8841 91.2417 88.2452 91.2292L88.0405 91.3099C87.7315 91.2503 87.438 91.1278 87.1783 90.9501ZM91.3343 64.4446C91.3343 64.4446 91.3343 64.4011 91.2971 64.4011V64.4756L91.3343 64.4446Z" fill="#D9D9D9"/>
<path d="M105.36 91.8369C105.211 91.75 105.13 91.657 105.13 91.5453C105.13 90.4495 105.295 88.4169 105.626 85.4478C105.957 82.4786 106.288 80.2414 106.619 78.7361L105.75 78.8167C105.254 78.8726 104.956 78.9036 104.845 78.9036C104.02 78.9036 103.604 78.612 103.604 78.0352C103.604 77.7622 104.069 77.6257 105.006 77.6257H105.862C106.138 77.6404 106.414 77.6258 106.687 77.5823C106.897 76.6047 107.042 75.6142 107.121 74.6173C107.326 72.806 107.425 71.6957 107.425 71.2801C107.205 71.2772 106.985 71.2917 106.768 71.3235L106.067 71.3607C105.025 71.3607 104.473 71.1188 104.423 70.6225L104.752 70.2504H105.614C106.249 70.284 106.886 70.2424 107.512 70.1263L107.878 67.4528C108.215 65.4929 108.408 63.5108 108.455 61.5227V61.1071L108.418 60.6977C108.418 60.0774 108.622 59.7921 109.038 59.7921L109.33 60.3689C109.291 61.9665 109.166 63.5609 108.957 65.1453C108.758 66.7299 108.648 68.3246 108.629 69.9216C109.194 70.0598 109.777 70.1162 110.359 70.0891H110.893C111.632 70.125 112.372 70.0262 113.076 69.7975C113.798 66.6076 114.32 63.3757 114.639 60.1208C114.701 60.023 114.786 59.9418 114.887 59.8845C114.987 59.8272 115.1 59.7954 115.216 59.7921C115.334 59.7902 115.449 59.8304 115.54 59.9055C115.631 59.9805 115.692 60.0854 115.712 60.2015C115.633 61.7745 115.383 63.3343 114.968 64.8537C114.552 66.4023 114.305 67.9912 114.23 69.5928L114.311 69.7975H115.836L116.37 70.3744C116.209 70.8148 116.029 71.0319 115.836 71.0319C115.533 71.0319 115.247 71.0319 114.968 70.9947L114.106 70.9513C113.654 72.9871 113.446 75.0694 113.486 77.1543L113.734 77.235L114.062 77.1915H114.478C115.247 77.1915 115.632 77.4583 115.632 77.9793C115.632 78.1716 115.408 78.3453 114.968 78.5128H113.368C113.343 79.0587 113.151 80.9671 112.791 84.2382C112.473 86.6144 112.282 89.006 112.22 91.4027L111.767 91.9361C111.271 91.9361 111.023 91.7997 111.023 91.5267C111.068 90.67 111.164 89.8167 111.308 88.9711C111.448 88.1133 111.531 87.2471 111.556 86.3782C111.619 85.081 111.758 83.7886 111.972 82.5075C112.179 81.2393 112.301 79.9586 112.338 78.6741C111.6 78.5934 110.477 78.5562 109.007 78.5562C108.52 78.5434 108.034 78.5977 107.562 78.7175C107.231 81.7404 107.094 83.0182 107.152 82.551L107.028 83.7916C106.834 86.1529 106.627 88.1151 106.408 89.6782C106.34 90.2605 106.238 90.8383 106.104 91.4089C106.005 91.7687 105.899 91.9423 105.794 91.9423C105.643 91.9435 105.493 91.9072 105.36 91.8369ZM112.257 77.3342L112.71 74.946C112.835 74.1695 112.918 73.3868 112.958 72.6013C112.958 72.3222 113.002 71.9376 113.002 71.4475C113.002 71.1746 111.941 71.0319 109.826 71.0319C109.359 71.0014 108.893 71.0866 108.467 71.2801C108.225 72.168 108.073 73.0783 108.014 73.997C107.853 75.5105 107.766 76.5961 107.766 77.2536V77.3342L107.81 77.421L108.467 77.5017C109.733 77.5091 110.998 77.4532 112.257 77.3342Z" fill="#D9D9D9"/>
<path d="M120.246 90.5279C120.118 90.3477 120.061 90.1272 120.085 89.9076C120.09 89.8107 120.124 89.7177 120.184 89.6409C120.208 89.6007 120.242 89.5668 120.282 89.542C120.321 89.5172 120.367 89.5022 120.413 89.4982H121.604L122.758 89.5417C123.047 89.5722 123.339 89.5228 123.602 89.399C123.726 89.2997 123.788 89.0764 123.788 88.7167C123.788 82.3193 123.486 74.4104 122.882 64.9901V63.6751L122.926 62.3538C122.943 62.0406 122.901 61.727 122.802 61.4295C122.755 61.3341 122.686 61.252 122.599 61.1912C122.512 61.1304 122.411 61.0928 122.305 61.0822C121.885 61.0115 121.459 60.9824 121.034 60.9953C120.88 60.9963 120.726 61.0109 120.575 61.0388L120.085 61.0822C119.613 61.0822 119.384 60.9271 119.384 60.6232C119.386 60.5529 119.408 60.4847 119.448 60.4265C119.487 60.3683 119.543 60.3225 119.607 60.2944C119.801 60.2008 120.012 60.146 120.227 60.1331C120.612 60.0773 121.691 60.0525 123.478 60.0525C123.567 60.05 123.656 60.0671 123.739 60.1024C123.821 60.1377 123.895 60.1905 123.955 60.2572C124.014 60.3166 124.061 60.3874 124.092 60.4652C124.122 60.543 124.137 60.6263 124.135 60.71V61.994C124.135 62.8459 124.177 64.1361 124.259 65.8647L124.346 69.7788C124.346 70.3495 124.439 72.26 124.631 75.5849C124.797 79.1537 124.88 81.8168 124.88 83.5743V84.1078L125.004 86.3719L125.084 88.7663L125.047 89.095L125.004 89.3804L125.165 89.5044L126.114 89.4238C126.415 89.3925 126.717 89.378 127.02 89.3804C127.869 89.3804 128.297 89.5727 128.297 89.9573C128.297 90.3418 127.993 90.5342 127.392 90.5342L124.098 90.6148C123 90.6706 121.883 90.7016 120.761 90.7016C120.668 90.7099 120.574 90.6987 120.485 90.6688C120.396 90.6389 120.315 90.5909 120.246 90.5279Z" fill="#D9D9D9"/>
<path d="M150.226 32.3188C150.226 32.3188 150.27 32.3188 150.295 32.3188C150.32 32.3188 150.239 32.3625 150.226 32.3188Z" fill="#F15E04"/>
<path d="M150.926 31.773C150.76 31.9901 150.549 32.168 150.306 32.294C150.405 32.1204 150.635 31.5993 150.926 31.773Z" fill="#F15E04"/>
<path d="M149.805 31.9775L150.065 31.8411C150.022 32.0272 149.904 31.8969 149.805 31.9775Z" fill="#F15E04"/>
<path d="M150.102 32.1206L150.183 32.2141L149.99 32.239L150.102 32.1206Z" fill="#F15E04"/>
<path d="M141.256 43.4966C141.321 43.5077 141.379 43.5434 141.418 43.5963L141.256 43.4966Z" fill="#F15E04"/>
<path d="M140.407 43.5962C140.364 43.6153 140.324 43.6405 140.288 43.671C140.307 43.6336 140.344 43.6149 140.407 43.5962Z" fill="#F15E04"/>
<path d="M141.623 43.0251L141.555 43.1249C141.564 43.084 141.588 43.0483 141.623 43.0251Z" fill="#F15E04"/>
<path d="M146.182 37.4053C146.303 37.3913 146.423 37.3706 146.542 37.3433C146.461 37.5666 146.3 37.4425 146.182 37.4053Z" fill="#F15E04"/>
<path d="M137.057 44.5698L137.113 44.6633C137.057 44.6259 137.019 44.6259 137.057 44.5698Z" fill="#F15E04"/>
<path d="M139.092 42.5913C139.127 42.6175 139.154 42.6517 139.173 42.691H139.136L139.092 42.5913Z" fill="#F15E04"/>
<path d="M141.784 42.554H141.896C141.889 42.5619 141.88 42.5683 141.871 42.5727C141.861 42.577 141.85 42.5793 141.84 42.5793C141.829 42.5793 141.819 42.577 141.809 42.5727C141.799 42.5683 141.791 42.5619 141.784 42.554Z" fill="#F15E04"/>
<path d="M136.337 45.1528C136.256 45.1408 136.177 45.12 136.101 45.0908C136.142 45.0745 136.186 45.0717 136.229 45.0829C136.271 45.0941 136.309 45.1186 136.337 45.1528Z" fill="#F15E04"/>
<path d="M139.806 41.9708L139.669 42.0518C139.678 42.0245 139.697 42.0014 139.723 41.9866C139.748 41.9718 139.777 41.9662 139.806 41.9708Z" fill="#F15E04"/>
<path d="M146.183 37.4056H146.064C146.089 37.3869 146.126 37.3931 146.183 37.4056Z" fill="#F15E04"/>
<path d="M149.904 33.0263C149.842 33.0949 149.779 33.0637 149.711 33.0263C149.774 33.0108 149.841 33.0108 149.904 33.0263Z" fill="#F15E04"/>
<path d="M130.004 47.7273L129.954 47.8021C129.917 47.7896 129.948 47.7273 130.004 47.7273Z" fill="#F15E04"/>
<path d="M133.038 48.4466C132.932 48.5583 133.087 48.2047 133.094 48.1923L133.019 48.3101C133.035 48.2717 133.054 48.2344 133.075 48.1985L132.951 48.3349C132.951 48.2729 132.951 48.2605 132.914 48.2357C132.876 48.2109 132.914 48.2357 132.914 48.1675C132.91 48.1338 132.914 48.0998 132.924 48.0677C132.935 48.0355 132.953 48.0061 132.976 47.9814L132.74 48.1426L132.783 47.727L132.703 47.9938C132.538 47.6696 132.423 47.3225 132.362 46.9641L132.287 47.0385C132.207 47.0385 132.25 46.9331 132.25 46.8586L132.132 46.9703C131.903 46.4244 131.512 46.4368 131.369 45.7731C131.251 45.6304 131.369 45.8848 131.288 45.9282C131.208 45.9716 131.14 45.6366 131.177 45.556C130.985 45.7173 131.177 45.9282 130.904 45.8289C130.941 45.6428 130.749 46.0212 130.668 45.7669L130.904 45.5312C130.792 45.4257 130.674 45.6118 130.594 45.3947C130.513 45.1776 131.059 45.525 130.91 45.1218C130.798 44.9357 130.06 45.0411 130.023 44.5945C129.719 44.3464 129.669 44.9853 129.521 44.5015L129.477 44.8799C129.359 44.8799 129.248 44.9605 129.21 44.7434C129.298 44.6235 129.34 44.476 129.328 44.3278C129.328 44.8488 128.826 44.1231 128.745 44.6441L128.683 44.4953C128.682 44.5018 128.68 44.5081 128.677 44.5139C128.674 44.5196 128.67 44.5246 128.664 44.5287C128.659 44.5327 128.653 44.5357 128.647 44.5374C128.641 44.5391 128.634 44.5396 128.627 44.5387L128.516 44.3588C128.516 44.5077 128.627 44.7992 128.354 44.7744L128.162 44.5201C128.044 44.6752 127.933 44.6069 127.815 44.6814L127.92 45.649C128.001 45.5684 128.001 45.4257 128.119 45.4195C128.311 45.5932 128.038 45.68 128.268 45.8227L128.348 45.6676C128.311 45.7111 128.305 45.7483 128.268 45.7111C128.23 45.6738 128.23 45.5994 128.311 45.5622C128.503 45.5622 128.497 45.8103 128.423 45.9282C128.572 46.1825 128.733 45.8413 128.807 45.8723C128.615 46.1453 129.037 46.3128 129 46.5361L129.117 46.35C129.421 46.443 129.347 46.7098 129.341 46.8586L129.459 46.7408C129.576 47.0385 130.116 46.9393 129.725 47.4045L129.806 47.3301C129.905 47.4231 130.097 47.541 130.004 47.727C130.06 47.727 130.147 47.6836 130.184 47.727C130.023 47.8883 130.228 47.9317 130.352 48.0868C130.352 47.9504 130.612 47.8573 130.612 47.7084C130.997 47.8449 130.451 48.0868 130.569 48.3287C130.761 48.397 130.65 48.1364 130.724 48.062C130.761 48.4652 131.648 48.4714 131.257 48.9304L131.028 48.8684C130.985 49.0545 131.028 49.1289 131.065 49.0917C131.102 49.0545 131.065 49.0173 131.102 48.9739C131.332 49.1103 131.35 49.3771 131.35 49.6562C131.33 49.9675 131.401 50.278 131.555 50.5494C131.605 50.4068 131.586 50.2951 131.642 50.2145C131.828 50.3385 131.431 50.996 131.785 51.2256V51.0022C131.896 51.0581 131.859 51.3744 131.828 51.3992C131.952 51.1139 132.058 51.3372 132.194 51.5729C132.331 51.8086 132.486 52.063 132.628 51.6598C132.622 51.7548 132.622 51.8501 132.628 51.9451C132.746 52.1188 133.1 51.9451 133.211 51.6287C133.379 51.0084 133.056 51.3372 133.131 50.8658C133.236 50.7417 133.317 51.0395 133.497 50.7107C133.494 50.9419 133.458 51.1716 133.391 51.393C133.348 51.6163 133.342 51.7838 133.584 51.6287L133.621 51.3806C133.577 51.4489 133.522 51.5915 133.453 51.6163C133.317 51.5357 133.509 51.2938 133.528 51.1759L133.987 50.7975C134.111 51.0705 133.801 51.3124 133.782 51.4178C133.983 51.1293 134.16 50.8242 134.309 50.506C134.416 50.2491 134.6 50.0321 134.837 49.8857L134.731 49.8423C135.029 49.6934 134.961 49.5755 134.93 49.4639C134.899 49.3522 134.868 49.2716 135.159 49.284C135.24 49.0917 134.892 49.1351 135.079 48.9056C135.134 48.8436 135.178 48.949 135.19 48.9863C135.513 48.7878 135.103 48.6885 135.519 48.6141L135.252 48.4652C135.674 48.3163 136.344 48.3598 136.493 48.0186C136.313 47.8759 136.183 48.0496 135.997 48.0186C136.617 47.9566 136.797 47.2308 137.237 47.0633C137.293 47.2928 137.709 47.2184 137.64 47.5348C137.374 47.3859 137.429 47.6154 137.305 47.7022C137.926 47.9628 137.752 46.7532 138.217 47.0819L138.087 46.8834C138.161 46.8834 138.403 46.8834 138.372 46.9827L138.589 46.5361C138.348 46.5361 137.814 46.5361 137.926 46.778C137.653 46.7098 137.926 46.5237 137.653 46.4244C138.149 46.4244 137.653 46.1701 137.951 45.984C138.093 46.319 138.503 46.046 138.608 46.1701C138.639 46.046 138.912 45.9716 139.061 45.984C139.21 45.8599 139.315 45.3637 139.607 45.2148C139.452 45.2148 139.228 45.2706 139.079 45.1156C139.272 45.0846 139.377 44.9667 139.216 44.7744C138.527 44.8613 139.514 45.2831 138.974 45.4443C138.868 45.3987 138.753 45.3815 138.638 45.3946C138.524 45.4077 138.415 45.4505 138.323 45.5188C138.279 45.3265 138.192 45.3141 138.081 45.1528C138.701 45.3265 138.664 44.6069 139.148 44.5325C139.39 44.5325 139.576 44.8737 139.88 44.6379L139.793 44.9977C139.917 44.6255 139.979 45.0535 140.227 44.8799L140.004 44.8364C140.029 44.7722 140.077 44.7199 140.139 44.69C140.202 44.66 140.273 44.6547 140.339 44.6752L140.016 44.5821C140.06 44.4891 140.153 44.3278 140.283 44.4457C140.255 44.3911 140.22 44.3409 140.177 44.2968C140.221 44.2968 140.277 44.2968 140.351 44.2161C140.277 44.2161 140.258 44.2906 140.196 44.2161C140.543 43.9432 140.029 43.9246 140.233 43.7447C140.153 43.7447 140.14 43.6206 140.184 43.5214C140.519 43.844 140.928 43.4904 141.213 43.5648L141.598 43.4221C141.523 43.4532 141.48 43.3105 141.517 43.1988C141.548 43.0624 141.052 42.9569 141.387 42.7894L141.617 42.7522C141.579 42.7522 141.548 42.6902 141.536 42.653L141.753 42.6034C141.629 42.0947 142.305 42.3676 142.373 41.983C142.33 42.0761 142.206 42.1629 142.144 42.0203C142.082 41.8776 142.255 41.9024 142.342 41.9086H142.293L142.944 41.6295C142.789 41.5612 142.535 41.8218 142.516 41.5798C142.497 41.3379 142.714 41.3876 142.807 41.3131C142.888 41.4062 142.807 41.6357 143.018 41.524C142.987 41.462 143.018 41.2263 142.907 41.2325C143.16 41.1045 143.432 41.0186 143.713 40.9782C143.713 40.8913 143.614 40.9347 143.583 40.9471V40.9782C143.44 41.034 143.335 40.7797 143.254 41.0588C142.944 40.8045 143.428 40.7052 143.539 40.5005L143.093 40.5812C143.093 39.7562 144.11 39.5515 144.526 39.1048C144.526 39.322 144.309 39.353 144.557 39.5515C144.775 39.445 144.975 39.3024 145.146 39.1297H145.109C145.109 38.8753 145.531 38.8939 145.413 38.6024C145.227 38.5466 145.345 38.9188 145.084 38.683L145.425 38.3543C145.171 38.3543 145.084 38.683 144.923 38.7823C144.761 38.8815 145.14 38.621 145.264 38.8257C144.954 39.1421 144.718 39.0676 144.327 39.0056C144.054 38.9374 144.278 38.6892 144.327 38.6272C144.541 38.6617 144.761 38.6229 144.95 38.5171C145.139 38.4112 145.287 38.2446 145.369 38.0441V37.6843C145.698 37.6843 145.99 38.0751 146.207 37.7464L145.983 37.703C145.978 37.6304 145.998 37.5582 146.039 37.4983C145.816 37.5293 145.574 37.5479 145.357 37.5603C145.214 37.1199 145.946 37.2253 146.232 37.033C146.182 37.033 146.089 37.0889 145.99 37.033C146.25 36.605 146.957 36.5554 147.23 36.3197C147.23 36.084 146.932 36.4748 146.79 36.2328C147.001 36.1584 146.982 35.8358 147.199 35.9599C146.883 35.7862 147.497 35.6063 146.995 35.6684C147.475 35.0685 148.089 34.5886 148.787 34.2665C148.703 34.2329 148.633 34.1716 148.589 34.0928C148.498 34.2017 148.382 34.2872 148.252 34.3422C148.121 34.3973 147.979 34.4202 147.838 34.4092C147.838 34.1672 148.272 34.2913 148.229 34.1858C148.105 34.1858 147.999 34.3099 147.869 34.1858C147.869 33.8943 148.148 33.9997 148.272 33.9129V34.0308C148.762 33.8509 148.893 34.2541 149.159 33.8323C149.122 33.5531 149.029 33.7144 148.831 33.5345C148.986 33.5345 149.029 33.0507 149.321 33.1499L149.135 33.3857C149.288 33.2725 149.452 33.1749 149.625 33.0941C149.604 33.0773 149.58 33.0647 149.555 33.0573C149.529 33.0498 149.502 33.0476 149.476 33.0507C149.649 32.9887 149.78 32.815 149.966 32.877L149.792 32.6475C149.792 32.8088 149.631 33.0383 149.482 32.9701C149.321 32.7778 149.637 32.6661 149.711 32.5544C149.259 32.9266 148.936 32.6351 148.738 33.1189H148.855C148.806 33.4911 148.334 33.4787 148.161 33.6834C148.167 33.645 148.159 33.6056 148.139 33.5726C148.118 33.5395 148.086 33.515 148.049 33.5035C147.807 34.0866 147.292 34.3967 146.932 34.9798L146.591 34.9426L146.74 35.0915C146.585 35.3954 146.473 34.9426 146.343 35.0915C146.399 35.0295 146.418 35.0915 146.467 35.0915C146.027 35.2093 146.467 35.383 146.269 35.4947C146.504 35.5753 146.61 35.2466 146.765 35.4947C146.331 35.6125 146.027 36.115 145.617 35.8358C145.289 36.4934 144.457 36.9214 144.023 37.3246C144.023 37.4424 144.11 37.3246 144.141 37.4052C143.763 37.4052 143.757 38.1248 143.558 37.9511C143.558 38.0813 143.645 38.2488 143.676 38.3171C143.485 38.3499 143.306 38.431 143.155 38.5528L143.304 38.4969V38.5342L143.093 38.6086C142.714 38.9126 142.386 39.3592 141.883 39.4832C142.181 39.415 142.076 39.7438 142.231 39.7313C141.778 39.6073 141.412 39.9857 141.151 40.3517C141.22 40.4075 141.244 40.4819 141.331 40.4881L141.04 40.5564L141.139 40.5998C140.891 40.9782 140.221 41.0216 140.171 41.3689C140.326 41.2697 140.395 41.3317 140.506 41.4124C140.283 41.6594 140.021 41.8689 139.731 42.0327C139.762 42.0374 139.792 42.0502 139.818 42.0699C139.78 42.1629 139.625 42.1815 139.52 42.2188L139.663 42.3738C139.464 42.4483 139.377 42.7026 139.098 42.7522C139.21 42.9755 138.571 43.0065 138.478 43.2671C138.372 43.3043 138.807 43.2671 138.608 43.4656C138.242 43.1864 138.354 43.7261 137.988 43.4097L137.951 43.7137L137.733 43.5834C137.932 44.0487 137.374 43.6765 137.268 44.0052C137.318 44.0052 137.355 44.0052 137.367 44.0487C137.262 44.0859 137.082 44.2347 137.113 44.0176C137.001 44.1417 136.536 44.4767 136.896 44.4705C136.784 44.3898 137.026 44.2968 137.132 44.2596C137.281 44.4146 137.051 44.5387 137.175 44.7372H137.063L137.132 44.8488C136.753 44.9171 136.66 45.2644 136.288 45.2272C136.332 45.2769 136.332 45.3513 136.245 45.4195L136.052 45.2458L135.829 45.494L136.214 45.6366C136.028 45.953 135.538 45.8475 135.283 46.0212C135.556 46.3748 134.768 46.3314 134.886 46.7904L135.128 46.6973C134.731 47.0075 134.874 47.2432 134.452 47.4851C134.623 47.1765 134.741 46.8408 134.799 46.4926C134.545 47.0385 133.943 47.0509 133.776 47.6092C133.875 47.6526 134.012 47.6092 134.005 47.7705C133.77 47.6898 133.677 48.1364 133.534 47.9007C133.491 48.0806 133.652 48.2729 133.608 48.366C133.565 48.459 133.497 48.4156 133.472 48.397L133.397 48.3598C133.351 48.3315 133.309 48.2959 133.273 48.2543L133.304 48.2977C133.41 48.5645 133.304 48.6513 133.23 48.5582C133.172 48.4388 133.151 48.3052 133.168 48.1737C133.168 48.1737 133.168 48.1737 133.168 48.2233L133.156 48.3473C133.172 48.2402 133.197 48.1344 133.23 48.031C133.174 48.2357 133.156 48.2791 133.1 48.4404C133.124 48.2945 133.167 48.1526 133.23 48.0186C133.156 48.1675 132.994 48.4776 133.038 48.4466ZM136.313 45.3823L136.418 45.2955C136.423 45.2798 136.431 45.2656 136.444 45.2546C136.456 45.2437 136.471 45.2363 136.487 45.2334L136.418 45.2955C136.394 45.3699 136.443 45.4816 136.313 45.3823ZM145.562 36.146C145.698 36.146 145.524 36.239 145.506 36.2887L145.686 36.1398C145.63 36.0654 145.562 36.1274 145.562 36.146ZM137.591 46.5299L137.665 46.7098H137.498L137.591 46.5299ZM136.238 48.0186L136.449 47.9379V47.9752L136.245 48.0558L136.238 48.0186ZM133.757 48.6389C133.639 48.5769 133.801 48.8684 133.596 48.6389C133.391 48.4094 133.627 48.5645 133.732 48.6141L133.757 48.6389ZM136.071 46.1267C136.145 46.1267 136.176 46.0832 136.195 46.0336C136.096 45.9902 135.891 45.984 135.928 45.8847C136.065 45.922 136.245 45.7731 136.375 45.8847C136.077 45.8661 136.344 46.319 136.046 46.1019L136.071 46.1267ZM139.359 42.7026V42.7522L139.582 42.7088L139.359 42.7026ZM140.072 42.1939C140.308 42.2746 140.457 42.0513 140.618 41.952C140.586 41.9131 140.546 41.8817 140.5 41.8601C140.454 41.8386 140.405 41.8274 140.354 41.8274C140.304 41.8274 140.254 41.8386 140.208 41.8601C140.163 41.8817 140.123 41.9131 140.091 41.952C139.774 42.0079 140.227 42.2126 140.053 42.1939H140.072ZM135.271 47.4603L135.42 47.5348V47.5782L135.631 47.5037C135.631 47.8387 135.19 47.7084 135.047 47.7581C135.103 47.6836 135.6 47.7271 135.252 47.4603H135.271ZM141.381 40.9037C141.604 40.8603 141.951 40.73 142.051 40.8603C141.98 40.7881 141.886 40.744 141.786 40.736C141.686 40.728 141.586 40.7567 141.505 40.8169C141.486 40.9037 141.449 40.9037 141.381 40.9037ZM141.784 41.2883C141.505 41.3938 141.387 41.2883 141.046 41.2883C141.133 41.0092 141.461 41.2201 141.561 41.3503C141.784 41.3069 141.616 41.2015 141.66 41.1084L141.784 41.2883ZM140.984 40.9223L140.94 41.0278C140.94 41.2077 141.176 41.4558 140.804 41.3627L140.94 41.0278C140.941 41.012 140.946 40.9967 140.953 40.9828C140.961 40.9689 140.971 40.9568 140.984 40.9471V40.9223ZM142.51 39.2971H142.361C142.441 39.2289 142.479 39.2475 142.51 39.2971H142.634C142.553 39.5577 142.559 39.3964 142.51 39.3219V39.2971ZM141.412 40.5998L141.176 40.8107C141.294 40.9037 141.375 40.7238 141.412 40.6246V40.5998ZM142.652 39.5266C142.574 39.6467 142.487 39.7607 142.392 39.8678C142.299 39.7624 142.535 39.5515 142.659 39.5515L142.652 39.5266ZM147.652 34.7255L147.503 34.8558L147.423 34.7007L147.652 34.7255ZM146.182 36.5616L146.138 36.45L146.225 36.3755L146.182 36.5616ZM144.743 38.1434C144.712 38.0992 144.669 38.0648 144.619 38.0441C144.602 38.0534 144.582 38.0582 144.563 38.0582C144.543 38.0582 144.524 38.0534 144.507 38.0441C144.507 38.0441 144.575 38.0441 144.619 38.0441C144.665 38.0275 144.704 37.9971 144.732 37.9571C144.76 37.9171 144.774 37.8695 144.774 37.8208C144.675 37.7712 144.6 37.8828 144.513 37.8766C144.464 37.5603 145.313 37.7464 144.699 37.3494C144.817 37.3494 145.146 37.2687 145.171 37.4238C144.955 37.6115 144.805 37.8638 144.743 38.1434C144.754 38.1575 144.76 38.175 144.76 38.193C144.76 38.211 144.754 38.2285 144.743 38.2426C144.739 38.2084 144.746 38.174 144.761 38.1434H144.743ZM142.882 40.3641C142.843 40.3951 142.795 40.4145 142.745 40.4199C142.701 40.4289 142.655 40.4255 142.612 40.4102C142.57 40.3949 142.532 40.3682 142.504 40.333C142.683 40.271 142.671 40.4013 142.745 40.4199C142.807 40.4133 142.866 40.3943 142.919 40.3641H142.882ZM142.566 40.7673L142.845 40.6618H142.64L143.124 40.5688C143.105 40.6181 143.076 40.6629 143.039 40.7003C143.002 40.7376 142.957 40.7666 142.908 40.7854C142.859 40.8042 142.806 40.8122 142.753 40.8091C142.701 40.806 142.649 40.7917 142.603 40.7673H142.566ZM142.603 40.9285L142.441 40.8541L142.628 40.9099H142.665L142.293 41.1704L142.603 40.9285ZM139.266 44.03C139.582 44.5511 139.836 44.03 140.109 44.1541C139.973 44.0052 139.861 43.6703 139.576 43.999C139.681 43.5834 140.016 44.0859 139.805 43.5834C139.702 43.6971 139.565 43.7752 139.414 43.8067L139.545 43.6393C139.228 43.4904 139.489 44.0052 139.303 44.0424L139.266 44.03ZM137.777 45.7669L137.578 45.9654L137.789 45.8041L137.777 45.7669ZM133.156 51.1015C133.156 51.2814 132.833 52.0257 132.808 51.666C132.958 51.5011 133.076 51.3097 133.156 51.1015ZM131.605 49.1351L131.667 49.5197C131.388 49.6748 131.53 49.2158 131.413 49.1041C131.493 48.9677 131.462 49.1475 131.574 49.1351H131.605ZM130.687 47.2742V47.1626L130.451 47.3983L130.687 47.2742ZM130.37 47.5844C130.222 47.5844 130.253 47.8139 130.296 47.8511L130.37 47.5844ZM129.303 46.0584L129.378 46.1701L129.576 45.9406L129.303 46.0584ZM129.688 46.1019C129.527 46.2197 129.279 46.3252 129.533 46.5361C129.725 46.4554 129.688 46.381 129.961 46.3686C129.961 46.2569 129.843 46.2259 129.806 46.1887C129.806 46.2631 129.924 46.3004 129.806 46.3748C129.755 46.3528 129.715 46.3124 129.693 46.2617C129.671 46.2109 129.669 46.1538 129.688 46.1019C129.75 46.0584 129.8 46.015 129.806 45.9654C129.772 45.9801 129.742 46.0014 129.716 46.028C129.69 46.0546 129.67 46.0861 129.657 46.1205L129.688 46.1019ZM130.377 46.9765C130.411 47.0016 130.452 47.0167 130.494 47.0199L130.457 47.0571C130.358 47.0571 130.358 47.0199 130.377 46.9765L130.24 46.8834C130.066 46.9331 130.054 47.1688 129.986 47.2618C129.986 47.1502 130.11 47.0013 129.986 46.9331C129.949 46.9703 129.905 46.9703 129.942 47.0447L129.831 46.902C129.961 46.6043 130.116 46.747 130.271 46.902C130.318 46.8894 130.367 46.8894 130.414 46.902C130.389 46.9082 130.358 46.9579 130.346 46.9951L130.377 46.9765ZM130.085 45.5064V45.618C130.042 45.6987 129.967 45.6987 129.924 45.7359C129.856 45.649 129.899 45.4567 130.054 45.525L130.085 45.5064ZM132.684 50.568C132.635 50.568 132.628 51.0457 132.715 51.0953L132.597 51.4551C132.621 51.2425 132.584 51.0276 132.492 50.8348C132.535 50.475 132.535 50.7355 132.653 50.5866L132.684 50.568ZM137.026 46.3438C137.312 46.5299 137.417 46.1205 137.541 46.1205C137.442 46.3314 137.194 46.7098 137.008 46.3624L137.026 46.3438ZM137.374 45.7731C137.442 45.7049 137.442 45.6614 137.56 45.7731C137.64 45.7731 137.634 45.6676 137.715 45.6738C137.715 45.922 137.504 45.7297 137.374 45.7669C137.351 45.7906 137.326 45.8114 137.299 45.8289C137.314 45.8114 137.333 45.7984 137.355 45.7917L137.374 45.7731ZM134.632 48.7071L134.359 48.6451L134.229 48.8126L134.632 48.7071ZM133.292 49.5135C133.292 49.7058 133.199 49.8299 133.18 49.7492C133.18 50.0222 133.255 49.9043 133.323 49.8609C133.391 49.8175 133.323 49.8609 133.366 49.8609H133.323C133.292 49.8237 133.323 49.6748 133.323 49.5818V49.4825H133.255L133.292 49.5135ZM132.219 47.8821C132.027 47.8139 132.064 47.7767 132.064 47.665C132.126 47.6836 132.2 47.7891 132.2 47.9007L132.219 47.8821ZM133.689 48.856C133.639 49.0421 133.869 49.0669 133.85 49.222L133.9 49.1413C133.9 49.4329 133.732 49.0173 133.701 49.1413V49.0669C133.652 48.8622 133.596 49.0049 133.534 48.8622C133.472 48.7195 133.677 48.8064 133.67 48.8746L133.689 48.856ZM132.219 47.6154C131.952 47.4789 132.3 47.3549 132.262 47.206C132.473 47.3301 132.163 47.4541 132.2 47.6402L132.219 47.6154ZM133.218 48.5707V48.5148C133.215 48.4673 133.215 48.4197 133.218 48.3722V48.428C133.207 48.4832 133.201 48.5392 133.199 48.5955L133.218 48.5707ZM139.576 101.973L139.768 102.022C139.563 102.035 139.47 102.022 139.557 101.997L139.576 101.973ZM142.144 102.376C141.344 102.317 140.55 102.199 139.768 102.022C140.345 102.072 141.964 102.047 142.125 102.401L142.144 102.376ZM139.514 101.42L140.339 101.6C139.818 101.693 139.929 101.52 139.495 101.445L139.514 101.42ZM139.78 101.762L139.725 101.879L139.297 101.712L139.78 101.762ZM97.1408 101.141C97.2277 101.191 97.2835 101.253 97.2401 101.327L97.1408 101.141ZM95.2055 100.602L94.8085 100.571C94.9369 100.578 95.0639 100.601 95.1869 100.639L95.2055 100.602ZM98.9273 101.073H98.5861C98.6843 101.076 98.7819 101.089 98.8777 101.11L98.9273 101.073ZM120.359 101.017L121.196 101.284C121.044 101.342 120.878 101.352 120.72 101.315C120.562 101.277 120.419 101.193 120.309 101.073L120.359 101.017ZM86.3103 98.9578L86.2297 99.0571C86.087 99.0571 86.0436 99.0137 86.2607 98.995L86.3103 98.9578ZM94.7589 98.9578C94.7631 98.982 94.7607 99.0069 94.7519 99.0298C94.7432 99.0527 94.7284 99.0728 94.7092 99.0881H94.61L94.7589 98.9578ZM100.286 100.875L100.565 100.937C100.512 100.958 100.455 100.967 100.398 100.963C100.341 100.958 100.285 100.941 100.236 100.912L100.286 100.875ZM83.5314 98.9268C83.4055 98.8747 83.2883 98.8036 83.184 98.7159C83.4569 98.7531 83.581 98.8462 83.5314 98.9268ZM97.5006 99.0757L97.054 99.0323C97.2061 99.0062 97.3624 99.0212 97.5068 99.0757H97.5006ZM120.309 101.073L120.042 100.986C120.138 100.987 120.231 101.017 120.309 101.073ZM137.299 102.01C137.032 101.979 136.977 101.904 136.933 101.83C137.063 101.862 137.187 101.917 137.299 101.991V102.01ZM50.1901 103.077C50.2409 103.092 50.2891 103.115 50.3328 103.145C50.246 103.157 50.1963 103.114 50.1901 103.058V103.077ZM59.5381 100.043C58.8744 100.229 58.1548 99.9813 57.5655 100.006L57.7764 100.112L57.1561 100.05V100.223C56.1698 100.223 54.9665 100.465 54.5881 100.223L54.7245 100.496L53.67 100.341L54.2903 100.49C53.1242 100.633 51.3377 100.54 51.0896 100.564L51.2012 100.657C51.0219 100.701 50.8347 100.701 50.6554 100.657L50.8228 100.8C49.0612 100.881 48.6084 101.272 46.6358 101.265C46.1023 101.346 46.9335 101.265 46.9459 101.377C46.5769 101.482 46.186 101.482 45.817 101.377C45.9907 101.613 46.8095 101.47 46.2016 101.718C45.7426 101.631 46.5241 101.917 45.7364 101.929L45.4014 101.644C44.9672 101.731 45.3332 101.892 44.6384 101.917C43.8444 101.848 45.5751 101.482 44.3035 101.544C43.6832 101.619 43.0256 102.382 41.7788 102.32C40.7367 102.58 42.3991 102.754 40.9104 102.81L41.8657 102.928C41.63 103.039 41.7974 103.182 41.1585 103.17C40.8538 103.034 40.5242 102.965 40.1909 102.965C41.5865 103.077 39.0185 103.43 40.3273 103.622L39.8497 103.654C39.9117 103.654 39.9303 103.691 39.8993 103.716L39.279 103.796C39.6698 103.827 40.6003 103.796 40.1909 104.044L39.2852 104.187C39.5457 104.336 39.2232 104.441 39.2852 104.572L42.0021 104.658C41.8843 104.565 41.4935 104.534 41.63 104.417C42.3371 104.261 42.2503 104.553 42.8706 104.348L42.5604 104.237C42.6162 104.286 42.7155 104.292 42.5604 104.323C42.4053 104.354 42.2192 104.323 42.2068 104.249C42.5651 104.093 42.9696 104.082 43.3358 104.218C44.2104 104.125 43.4909 103.889 43.677 103.821C44.1546 104.075 45.1409 103.685 45.6929 103.784L45.327 103.616C45.8594 103.432 46.4325 103.397 46.9832 103.517L46.8219 103.368C47.7523 103.325 48.1741 102.748 48.9247 103.263L48.8193 103.17C49.2443 103.026 49.6988 102.992 50.1405 103.07C50.1405 103.002 50.2025 102.915 50.3576 102.884C50.5809 103.089 50.9779 102.884 51.5238 102.816C51.1454 102.785 51.2446 102.5 50.8476 102.463C51.6913 102.115 51.6664 102.717 52.3922 102.661C52.8202 102.487 51.989 102.531 51.8773 102.432C53.0125 102.506 54.1477 101.619 54.892 102.134L54.4206 102.345C54.8796 102.432 55.1215 102.419 55.0409 102.345C54.9958 102.357 54.9481 102.356 54.9033 102.343C54.8584 102.33 54.818 102.305 54.7866 102.27C56.1202 101.898 56.9328 102.543 58.2851 102.345C58.1796 102.245 57.9811 102.227 57.9687 102.14C58.589 101.991 58.589 102.642 59.6125 102.357L59.4078 102.252C59.7428 102.159 60.0281 102.314 59.9599 102.351C59.9599 101.873 62.1061 102.252 62.7823 101.594C63.5438 101.854 64.3583 101.92 65.1518 101.786C65.7721 101.464 64.5873 101.501 64.8044 101.228C65.2945 101.228 65.5612 101.445 66.287 101.309C66.287 101.576 64.8727 101.929 66.287 101.997L66.4669 101.848C66.2933 101.897 66.1136 101.92 65.9334 101.917C65.5302 101.78 66.1629 101.724 66.2498 101.65H67.7261C67.8501 101.923 66.9631 101.904 66.8763 101.979C68.0362 101.861 69.4195 101.358 70.5112 101.526L70.4058 101.427C71.7953 101.6 71.1874 100.875 72.3039 101.272C72.8808 101.172 72.0868 100.986 72.9614 100.924C73.2096 100.924 73.0669 101.023 73.0235 101.061C74.1028 101.11 73.4887 100.775 74.4936 100.986L74.2641 100.695C75.4612 100.856 76.7453 101.315 77.7378 101.166C77.6695 100.943 77.0368 100.986 76.7763 100.819C78.1844 101.185 80.1073 100.75 81.3975 100.93C81.0192 101.135 82.0178 101.358 81.2052 101.551C80.9819 101.259 80.5849 101.47 80.1631 101.451C80.8951 102.072 83.122 101.03 83.3577 101.594L83.5376 101.365C83.7361 101.365 84.2385 101.551 83.8974 101.631L85.3054 101.451C84.803 101.29 83.7485 100.918 83.4445 101.172C83.0351 100.937 84.0214 100.999 83.6554 100.726C84.6107 101.085 84.2323 100.552 85.2186 100.608C84.7782 100.955 86.2049 101.036 86.1615 101.228C86.607 101.198 87.0542 101.257 87.4765 101.402C88.3968 101.291 89.3224 101.229 90.2493 101.216C89.9019 101.116 89.356 100.992 89.3932 100.782C89.8398 100.893 90.3299 100.881 90.4105 100.633C88.8164 100.223 89.9081 101.21 88.469 100.949C88.0193 100.676 87.4998 100.54 86.9741 100.558C87.309 100.391 87.1601 100.322 87.2904 100.124C88.2085 100.695 89.6476 100.124 90.8323 100.391C91.3348 100.558 90.9688 100.937 92.0729 101.011L91.1053 101.203C92.166 101.03 91.3596 101.371 92.2404 101.427L91.8869 101.241C92.2367 101.176 92.5981 101.219 92.9228 101.365L92.4637 101.073C92.7553 101.036 93.2887 100.992 93.3011 101.166C93.3288 101.144 93.3517 101.117 93.3688 101.086C93.3858 101.055 93.3966 101.021 93.4004 100.986C93.4562 101.036 93.5927 101.067 93.9338 101.054C93.7354 101.017 93.5865 101.054 93.5865 100.955C94.8829 101.011 93.8842 100.626 94.6844 100.651C94.5603 100.583 94.7837 100.496 95.0752 100.453C95.0752 100.924 96.6508 100.968 97.0726 101.222L98.1581 101.396C97.941 101.358 98.1581 101.234 98.4931 101.179H98.4372C98.7846 101.098 98.0278 100.676 99.0575 100.8L99.5972 100.937C99.5042 100.937 99.5972 100.85 99.6468 100.813L100.205 100.943C101.061 100.509 101.818 101.197 102.823 100.986C102.537 101.023 102.091 100.986 102.283 100.85C102.492 100.812 102.708 100.836 102.903 100.918L102.854 100.868L104.771 101.166C104.615 101.005 103.53 100.986 104.026 100.813C104.312 100.602 104.857 100.813 105.205 100.85C105.155 100.974 104.522 101.079 105.161 101.147C105.242 101.085 105.85 100.961 105.565 100.875C106.305 100.969 107.039 101.112 107.76 101.303C107.946 101.253 107.655 101.197 107.556 101.185L107.506 101.216C107.115 101.148 107.45 100.899 106.675 101.023C106.613 100.626 107.791 100.912 108.474 100.875L107.394 100.583C109.255 100.056 111.699 100.732 113.511 100.775C112.971 100.887 112.531 100.775 112.586 101.073C113.28 101.182 113.981 101.249 114.683 101.272H114.59C115.173 101.123 115.955 101.451 116.345 101.179C116.103 100.999 115.514 101.321 115.514 100.974C115.986 100.974 116.457 101.005 116.928 101.042C116.494 100.806 115.514 100.974 114.975 100.912C114.584 100.912 115.756 100.974 115.564 101.203C114.765 101.234 113.977 101.017 113.306 100.583C112.915 100.329 113.889 100.347 114.137 100.347C115.206 100.778 116.365 100.94 117.512 100.819L118.243 100.583C118.864 100.856 118.591 101.315 119.763 101.309L119.509 101.073C119.689 101.023 119.874 100.998 120.061 100.999C119.565 100.831 119.025 100.645 118.578 100.471C119.261 100.099 120.489 100.763 121.463 100.887C121.413 100.831 121.072 100.8 120.973 100.695C122.443 100.695 123.956 101.216 125.079 101.315C125.569 101.16 124.149 101.16 124.397 100.906C124.986 101.03 125.638 100.831 125.811 101.092C125.575 100.726 127.176 101.166 126.059 100.757C128.29 100.863 130.51 101.145 132.697 101.6C132.597 101.489 132.604 101.402 132.697 101.334C131.941 101.314 131.197 101.145 130.507 100.837C131.003 100.695 131.63 101.16 131.747 101.061C131.512 100.961 131.022 100.93 131.028 100.751C131.648 100.602 132.002 100.906 132.436 100.968L132.194 101.042C133.546 101.383 132.901 101.662 134.365 101.724C134.911 101.563 134.365 101.551 134.365 101.284C134.7 101.427 135.835 101.253 136.164 101.563L135.283 101.501C135.904 101.638 136.474 101.693 136.896 101.83C136.877 101.79 136.849 101.755 136.815 101.727C136.78 101.699 136.74 101.679 136.697 101.669C137.161 101.733 137.614 101.86 138.044 102.047L138.211 101.78C137.769 101.876 137.307 101.826 136.896 101.638C137.001 101.402 137.876 101.638 138.261 101.638C136.561 101.383 136.58 100.949 135.116 100.98L135.351 101.092C134.433 101.203 133.534 100.769 132.74 100.732C132.969 100.688 133.019 100.589 132.92 100.54C131.152 100.633 129.44 100.341 127.436 100.335L126.853 100.012L126.797 100.223C125.817 100.223 126.605 99.9131 125.972 99.8883C126.214 99.8883 126.171 99.9379 126.214 99.9937C125.092 99.6712 125.594 100.143 124.943 100.043C125.228 100.273 126.183 100.198 125.861 100.478C124.744 100.167 122.976 100.236 122.834 99.7146C120.725 99.8263 118.126 99.3734 116.358 99.268C116.116 99.3548 116.507 99.3424 116.414 99.4107C115.719 99.1005 114.056 99.5595 114.056 99.299C113.834 99.3458 113.631 99.4581 113.473 99.6216C112.967 99.4824 112.447 99.3951 111.923 99.361L112.338 99.4417L112.289 99.4727L111.699 99.361C110.245 99.331 108.794 99.2025 107.357 98.9764C108.095 99.1501 107.165 99.2928 107.518 99.3982C106.898 98.9764 105.298 98.9578 104.02 98.995C104.02 99.0819 103.927 99.1501 104.076 99.2184L103.338 99.0447L103.437 99.1501C102.116 99.2184 100.677 98.7469 99.8019 98.9392C100.342 98.9888 100.342 99.0819 100.422 99.2184C99.4731 99.2184 98.5613 99.2183 97.4758 99.0881C97.5378 99.0881 97.575 99.1439 97.575 99.1749C97.2596 99.1796 96.9449 99.1442 96.6384 99.0695L96.6012 99.2804C96.0367 99.1873 95.3047 99.2804 94.6286 99.1377C94.3681 99.3734 92.9972 98.9454 92.2218 99.0447C91.9241 99.0013 92.8731 99.2804 92.0419 99.2804C91.9179 98.8214 90.9564 99.2804 90.8882 98.7904L90.1624 98.9826L89.9949 98.7407C89.3746 99.2121 89.0459 98.5546 88.134 98.7407C88.1836 98.7965 88.2829 98.809 88.2395 98.8462C87.9355 98.8028 87.2532 98.7841 87.7805 98.6477C87.2904 98.6477 85.6156 98.5857 86.3724 98.8276C86.3103 98.6911 86.9927 98.7966 87.3028 98.8276C87.2656 99.0385 86.5274 98.9702 86.3475 99.2059C86.2859 99.1701 86.2216 99.139 86.1553 99.1129L86.056 99.2494C85.1256 99.0385 84.1951 99.2494 83.5128 98.9454C83.4755 99.0075 83.3143 99.0633 82.9979 99.0571V98.7965L82.0178 98.8276L82.4831 99.1935C81.4099 99.3052 80.6222 98.902 79.7537 98.8648C79.5428 99.3176 78.0231 98.7655 77.2725 99.1811L77.9673 99.2742C76.4909 99.2742 76.2676 99.5223 74.8658 99.4168C75.8303 99.3124 76.786 99.1383 77.7253 98.8958C76.0257 99.1501 74.7603 98.7469 73.2095 99.0819C73.3212 99.1811 73.712 99.2308 73.3398 99.3548C73.0235 99.1439 71.8635 99.4293 72.0992 99.1563C71.6154 99.268 71.5409 99.5161 71.2494 99.5657L69.6056 99.3176L69.6552 99.3672C66.9197 100.099 64.4695 99.2308 61.7091 99.6402L61.7712 99.7766L61.064 99.6092C61.6161 99.7146 60.8345 99.7952 60.8035 99.9255L59.0046 99.727C58.986 99.8324 59.1039 100.105 59.5381 100.025V100.043ZM82.9731 99.0943H83.3949C83.4828 99.075 83.5738 99.075 83.6616 99.0943H83.3949C83.1778 99.1253 83.0227 99.2122 82.9731 99.0757V99.0943ZM121.835 99.8325C122.034 99.9627 121.544 99.8325 121.401 99.8697L122.083 99.9317C122.182 99.8325 121.934 99.8325 121.835 99.8325ZM83.0475 100.806L82.818 100.986L82.5141 100.856L83.0475 100.806ZM77.0802 101.03L77.7005 101.11L77.6509 101.147L77.0306 101.067L77.0802 101.03ZM70.3872 99.8325C69.9219 99.727 69.7669 100.05 69.3637 99.7642C69.8103 99.5037 70.1204 99.7642 70.3872 99.8325ZM80.8889 99.4107C81.035 99.4314 81.1832 99.4314 81.3293 99.4107C81.2238 99.3052 80.8207 99.1687 81.1122 99.1191C81.3169 99.2308 82.0054 99.237 82.0178 99.4168C81.4161 99.2928 81.013 99.8324 80.8889 99.4355V99.4107ZM94.9698 99.2308H94.8147L95.3667 99.3672L94.9698 99.2308ZM97.5254 99.3858C97.8293 99.6091 98.6109 99.5595 99.1506 99.6029C99.2933 99.4107 98.7412 99.1936 98.1023 99.2184C97.3579 99.0757 97.7983 99.5471 97.5254 99.4107V99.3858ZM76.3111 99.9131L76.4661 100.068H76.3235L76.9438 100.149C76.1808 100.397 75.6101 100.012 75.2069 99.9627C75.5295 100.006 76.4909 100.354 76.3111 99.9379V99.9131ZM102.984 99.4975C103.53 99.6402 104.51 99.8139 104.417 99.9751C104.454 99.6774 103.666 99.5347 103.424 99.5347C103.274 99.5584 103.121 99.5542 102.972 99.5223L102.984 99.4975ZM102.953 100.062C102.44 99.9665 101.95 99.775 101.508 99.4975C102.289 99.3734 102.506 99.7642 102.407 99.9193C102.953 100.062 102.848 99.8635 103.139 99.8325L102.953 100.062ZM102.14 99.2432L101.818 99.2804C101.44 99.4044 101.359 99.7394 100.825 99.3982L101.818 99.2804C101.923 99.2501 102.032 99.2375 102.14 99.2432ZM108.79 99.3114L108.468 99.1998C108.79 99.1998 108.827 99.2618 108.79 99.3114L109.057 99.4044C108.343 99.4913 108.697 99.3982 108.771 99.3114H108.79ZM103.722 99.3486L102.786 99.3114C102.823 99.4541 103.381 99.3858 103.704 99.3486H103.722ZM108.579 99.5719C108.182 99.5719 107.159 99.6153 107.301 99.5719C107.376 99.4355 108.343 99.4727 108.561 99.5719H108.579ZM129.142 100.813L128.559 100.757L128.857 100.564L129.142 100.813ZM122.244 100.564L122.4 100.465L122.741 100.496L122.244 100.564ZM115.893 100.31C115.908 100.285 115.913 100.255 115.907 100.227C115.901 100.198 115.885 100.172 115.862 100.155C115.78 100.145 115.703 100.113 115.638 100.062C115.722 100.064 115.801 100.097 115.862 100.155C116.127 100.215 116.403 100.215 116.668 100.155C116.569 100.05 116.178 100.062 116.048 99.9875C116.637 99.7456 117.909 100.558 117.567 99.8201C117.809 99.9193 118.647 100.149 118.349 100.254C117.536 100.179 116.717 100.206 115.911 100.335C115.885 100.36 115.854 100.38 115.82 100.392C115.785 100.403 115.749 100.407 115.713 100.403C115.763 100.373 115.817 100.35 115.874 100.335L115.893 100.31ZM107.326 100.273C107.193 100.273 107.061 100.25 106.935 100.205C106.724 100.155 106.569 100.068 106.631 99.9751C107.134 100.062 106.811 100.143 106.935 100.205C107.055 100.25 107.18 100.281 107.308 100.298L107.326 100.273ZM105.806 100.304L106.594 100.447L106.197 100.291L107.382 100.589C107.113 100.66 106.832 100.674 106.557 100.629C106.282 100.584 106.02 100.482 105.788 100.329L105.806 100.304ZM105.534 100.44L105.372 100.273L105.614 100.447H105.534L105.571 100.49L104.243 100.385L105.534 100.44ZM91.9923 100.136C91.5085 100.757 93.1709 100.546 93.4376 100.831C93.4872 100.633 93.9835 100.316 92.6932 100.335C93.8098 100.124 93.3942 100.713 94.0579 100.211C93.6288 100.223 93.1998 100.183 92.7801 100.093H93.4004C93.0282 99.727 92.4203 100.279 91.9737 100.161L91.9923 100.136ZM85.169 100.372H84.3378L85.1256 100.403L85.169 100.372ZM64.699 101.365C64.761 101.501 63.7065 101.811 63.4584 101.563C63.8776 101.558 64.2945 101.499 64.699 101.389V101.365ZM55.9031 101.855L56.8398 101.91C56.6785 102.239 56.0086 101.954 55.5992 102.035C55.4131 101.91 55.7604 101.997 55.9031 101.879V101.855ZM49.8428 102.276L49.545 102.245L49.88 102.537L49.8428 102.276ZM50.2832 102.667C50.1033 102.816 50.7484 102.841 50.9035 102.81L50.2832 102.667ZM44.8555 103.362L45.2401 103.312L44.8679 103.064L44.8555 103.362ZM45.4448 102.99C45.5565 103.182 45.5379 103.449 46.4187 103.25C46.4187 103.033 46.1954 103.058 46.5055 102.785C46.2756 102.778 46.0463 102.814 45.8294 102.891C46.0341 102.891 46.2636 102.804 46.3256 102.94C46.0416 103.035 45.7376 103.052 45.4448 102.99C45.4255 102.948 45.396 102.912 45.3592 102.885C45.3223 102.858 45.2792 102.841 45.2339 102.835C45.2401 102.934 45.3208 102.977 45.4448 103.015V102.99ZM48.6642 102.512C48.7573 102.492 48.8458 102.454 48.9247 102.401L48.9805 102.45C48.9386 102.488 48.8868 102.515 48.8311 102.525C48.7753 102.536 48.7175 102.532 48.6642 102.512L48.2362 102.618C48.1493 102.804 48.7696 102.878 48.9371 102.965C48.6348 102.865 48.3108 102.85 48.0005 102.922C48.0563 102.971 48.0005 103.008 48.2548 102.984L47.7213 103.064C47.101 102.866 47.6717 102.748 48.2362 102.618C48.2362 102.58 48.292 102.537 48.3913 102.481C48.4858 102.471 48.581 102.491 48.6642 102.537V102.512ZM44.3531 102.456H44.6446C44.7997 102.512 44.7129 102.593 44.7687 102.642C44.4523 102.704 43.9685 102.624 44.3531 102.481V102.456ZM61.8766 101.166C61.6905 101.234 62.1496 101.414 62.5838 101.334L62.3667 101.613C62.3667 101.439 61.4672 101.507 61.368 101.501C61.2005 101.29 61.5479 101.371 61.8766 101.191V101.166ZM82.2908 100.273C82.4583 100.595 83.5686 100.372 83.8229 100.453C83.2274 100.54 81.9124 100.651 82.2908 100.273ZM84.2261 100.093C84.5301 100.093 84.6169 100.056 84.5921 100.223C84.741 100.285 84.9829 100.192 85.1318 100.26C84.5425 100.422 84.5673 100.155 84.2261 100.093C84.1311 100.099 84.0358 100.099 83.9408 100.093C84.0311 100.078 84.1234 100.078 84.2137 100.093H84.2261ZM72.2915 100.496L71.8759 100.273L71.2556 100.323L72.2915 100.496ZM65.4682 100.397C65.5302 100.533 64.7982 100.577 64.6432 100.515C64.699 100.695 65.189 100.645 65.5798 100.645C65.664 100.659 65.75 100.659 65.8342 100.645H65.5426C65.3937 100.608 65.4868 100.509 65.4868 100.447L65.6791 100.378H65.1332L65.4682 100.397ZM53.4653 100.93C53.2253 101.057 52.9477 101.092 52.6837 101.03C52.9211 100.932 53.1797 100.898 53.4343 100.93H53.4653ZM69.0783 100.05C68.3464 100.18 69.4443 100.31 68.9667 100.428L69.3513 100.391C68.731 100.614 68.8922 100.198 68.458 100.279L68.7496 100.229C68.9729 100.037 68.2967 100.124 68.2347 99.9875C68.5387 99.9007 69.3389 99.9999 69.0473 100.05H69.0783ZM52.7644 100.862C52.051 101.092 52.1441 100.719 51.7161 100.713C52.2495 100.515 52.1875 100.856 52.7334 100.862H52.7644ZM64.4261 99.758L64.4695 99.7208L63.8492 99.6464L63.8058 99.6898L64.4261 99.758ZM52.02 102.773C51.8915 102.799 51.7603 102.809 51.6292 102.804C51.7401 102.786 51.852 102.776 51.9642 102.773H52.02ZM86.0126 101.303C86.0126 101.253 86.087 101.228 86.1739 101.21C86.1739 101.241 86.1366 101.265 86.0126 101.303ZM87.4331 101.383H87.4889H87.5323H87.4331ZM136.877 102.177C137.157 102.432 136.58 102.177 136.338 102.177C136.555 102.183 136.666 102.035 136.877 102.177ZM135.016 101.607C135.202 101.701 135.4 101.766 135.606 101.799C135.382 101.788 135.165 101.722 134.973 101.607H135.016ZM136.567 101.861C136.246 101.869 135.924 101.848 135.606 101.799C135.913 101.78 136.222 101.801 136.524 101.861H136.567ZM129.843 101.241C130.122 101.345 130.42 101.39 130.718 101.371C129.446 101.408 130.954 101.65 131.047 101.762C130.589 101.732 130.153 101.558 129.8 101.265L129.843 101.241ZM128.168 101.054C128.286 101.067 128.404 101.067 128.522 101.054C128.393 101.092 128.257 101.098 128.125 101.073L128.168 101.054ZM127.691 101.154C127.401 101.112 127.131 100.985 126.915 100.788C127.455 100.713 127.778 100.986 128.156 101.054C127.815 101.073 127.511 101.017 127.647 101.179L127.691 101.154ZM114.162 101.296C114.261 101.296 114.503 101.296 114.509 101.408H113.777C113.442 101.365 113.97 101.34 114.118 101.321L114.162 101.296ZM111.47 100.806C110.881 100.806 111.184 101.017 110.887 100.955L110.924 100.657L111.47 100.806ZM111.83 99.3052L112.003 99.3424H111.805L111.83 99.3052ZM108.598 101.073L108.995 101.414C108.505 101.309 108.505 101.073 108.598 101.073ZM106.359 101.272L106.7 101.377L105.627 101.272H106.359ZM103.666 101.098L103.567 101.166L102.829 101.079L103.666 101.098ZM74.3199 101.371C74.1958 101.092 75.3806 101.166 75.7156 101.079C75.4985 101.433 74.7727 100.98 74.3199 101.358V101.371ZM52.9753 102.611H54.1042C53.242 102.723 53.8623 102.574 52.9753 102.568V102.611Z" fill="#F15E04"/>
<path d="M130.414 48.1992C130.395 48.1857 130.38 48.1679 130.369 48.1474C130.358 48.1268 130.352 48.104 130.352 48.0808C130.381 48.1152 130.402 48.1556 130.414 48.1992Z" fill="#F15E04"/>
<path d="M138.681 46.2079C138.669 46.195 138.659 46.1792 138.654 46.1619C138.648 46.1445 138.647 46.1261 138.65 46.1082C138.673 46.136 138.685 46.1718 138.681 46.2079Z" fill="#F15E04"/>
<path d="M139.092 45.9346L139.104 45.9221H139.129L139.092 45.9346Z" fill="#F15E04"/>
<path d="M149.953 33.2867C150.19 33.3677 149.909 33.3864 149.853 33.4488C149.903 33.3864 149.816 33.2555 149.953 33.2867Z" fill="#F15E04"/>
<path d="M149.234 33.5098C149.317 33.5167 149.401 33.4948 149.47 33.4478C149.439 33.4912 149.383 33.5222 149.234 33.5098Z" fill="#F15E04"/>
<path d="M149.667 33.1875C149.626 33.2906 149.557 33.3805 149.469 33.448C149.519 33.3798 149.5 33.2681 149.667 33.1875Z" fill="#F15E04"/>
<path d="M148.099 34.8314C148.266 34.8314 148.347 34.6577 148.347 34.6577C148.155 35.0609 148.601 34.7756 148.701 34.819C148.483 34.9803 148.353 34.8624 148.099 34.8314Z" fill="#F15E04"/>
<path d="M147.665 35.2036C147.69 35.1725 147.71 35.1365 147.721 35.0977C147.721 35.1185 147.715 35.139 147.706 35.1574C147.696 35.1759 147.682 35.1917 147.665 35.2036Z" fill="#F15E04"/>
<path d="M147.652 35.4081C147.528 35.495 147.379 35.4081 147.243 35.4081C147.28 35.1972 147.547 35.2841 147.664 35.2158C147.596 35.2779 147.509 35.3213 147.652 35.4081Z" fill="#F15E04"/>
<path d="M145.121 39.2662C145.158 39.2662 145.214 39.1918 145.276 39.2662L145.115 39.4523C145.009 39.4709 145.103 39.3159 145.121 39.2662Z" fill="#F15E04"/>
<path d="M144.19 39.6636C144.047 39.7938 144.283 39.8745 144.19 39.9117L143.979 39.7008L144.19 39.6636Z" fill="#F15E04"/>
<path d="M143.154 38.5403L143.216 38.5217L143.167 38.5588L143.154 38.5403Z" fill="#F15E04"/>
<path d="M143.763 40.5505L144.104 40.6746C143.924 40.7366 143.732 40.5567 143.763 40.5505Z" fill="#F15E04"/>
<path d="M143.415 41.2512L143.57 41.2388L143.253 41.4373L143.415 41.2512Z" fill="#F15E04"/>
<path d="M142.683 41.8093L142.714 41.8838L142.485 42.0078L142.683 41.8093Z" fill="#F15E04"/>
<path d="M135.773 48.8812C135.537 48.7199 135.897 48.509 135.922 48.3726C136.126 48.6703 135.636 48.5276 135.773 48.8812Z" fill="#F15E04"/>
<path d="M130.674 48.447L130.786 48.813C130.562 48.6021 130.755 48.7448 130.674 48.447Z" fill="#F15E04"/>
<path d="M113.951 100.189L102.928 98.1416L102.587 100.077L113.498 103.489L113.951 100.189Z" fill="#F15E04" stroke="#263238" stroke-width="0.843713" stroke-linecap="round" stroke-linejoin="round"/>
<path d="M122.927 91.5539C122.927 91.5539 114.292 91.6656 113.622 91.5539C112.952 91.4423 112.599 94.0352 112.146 94.9656C111.693 95.8961 108.964 99.1651 109.665 99.7357C110.366 100.306 112.847 99.7357 113.188 99.2829C113.529 98.8301 114.547 96.8947 114.547 96.8947C115.019 97.0526 115.454 97.3051 115.825 97.6368C116.196 97.9685 116.495 98.3724 116.705 98.8239C116.976 99.4964 117.066 100.228 116.967 100.946C116.868 101.664 116.583 102.344 116.141 102.918C115.688 103.259 112.388 102.236 111.799 102.006C111.436 101.799 111.014 101.721 110.601 101.782C110.188 101.844 109.808 102.043 109.522 102.347C108.505 103.259 107.934 104.624 108.84 105.188C109.745 105.753 111.228 105.529 111.799 105.759C112.369 105.988 115.775 108.6 117.933 109.164C120.092 109.729 124.639 111.329 124.639 111.329L138.385 135.645L143.967 144.85L153.712 127.482C153.712 127.482 138.056 114.97 135.333 112.471C132.61 109.971 129.651 106.888 129.31 105.765C128.969 104.642 126.016 93.8305 125.216 92.3541C125.016 91.9463 124.664 91.6336 124.236 91.4838C123.807 91.334 123.337 91.3592 122.927 91.5539Z" fill="white" stroke="#263238" stroke-width="0.843713" stroke-linecap="round" stroke-linejoin="round"/>
<path d="M197.928 243.571L194.082 207.42L141.207 210.112L141.933 243.571H197.928Z" fill="#263238" stroke="#263238" stroke-width="0.843713" stroke-linecap="round" stroke-linejoin="round"/>
<path d="M171.824 218.027C172.039 220.634 173.274 223.05 175.261 224.751C178.548 227.437 183.325 228.783 183.325 228.783" stroke="white" stroke-width="0.843713" stroke-linecap="round" stroke-linejoin="round"/>
<path d="M182.581 217.73L186.315 242.678" stroke="white" stroke-width="0.843713" stroke-linecap="round" stroke-linejoin="round"/>
<path d="M149.245 218.927C149.245 218.927 149.866 237.598 150.294 237.896C150.722 238.193 154.177 240.135 154.177 240.135L153.724 230.278" stroke="white" stroke-width="0.843713" stroke-linecap="round" stroke-linejoin="round"/>
<path d="M146.429 213.102L147.18 217.432L154.648 217.581L154.797 213.4L146.429 213.102Z" stroke="#263238" stroke-width="0.843713" stroke-linecap="round" stroke-linejoin="round"/>
<path d="M194.082 207.426L141.182 210.112L141.3 215.664C147.727 217.458 154.409 218.166 161.069 217.761C172.756 217.097 186.092 214.659 194.472 211.086L194.082 207.426Z" fill="white" stroke="#263238" stroke-width="0.843713" stroke-linecap="round" stroke-linejoin="round"/>
<path d="M150.996 124.479C150.996 124.479 146.846 128.772 145.878 131.811C144.911 134.851 141.313 141.352 139.793 149.651C138.274 157.951 136.611 170.537 137.442 179.246C138.274 187.955 140.345 203.729 139.793 207.463C139.241 211.198 139.378 212.023 140.897 212.854C142.417 213.685 155.14 215.9 169.096 214.659C183.053 213.418 194.963 209.262 195.372 207.885C195.936 205.201 196.215 202.465 196.204 199.722C196.204 196.819 195.788 178.979 195.788 178.284C195.788 177.59 197.45 147.722 198.139 142.307C198.827 136.892 199.522 132.382 193.437 127.649C187.352 122.916 175.182 115.063 175.182 115.063C175.182 115.063 159.569 116.322 150.996 124.479Z" fill="white" stroke="#263238" stroke-width="0.843713" stroke-linecap="round" stroke-linejoin="round"/>
<path d="M147.306 176.554C147.417 178.787 147.504 180.313 147.504 180.53" stroke="#263238" stroke-width="0.843713" stroke-linecap="round" stroke-linejoin="round"/>
<path d="M154.909 130.918C154.909 130.918 147 151.109 146.845 158.832C146.746 163.379 147 169.836 147.223 174.532" stroke="#263238" stroke-width="0.843713" stroke-linecap="round" stroke-linejoin="round"/>
<path d="M174.82 172.646C175.234 172.927 175.662 173.2 176.104 173.465" stroke="#263238" stroke-width="0.843713" stroke-linecap="round" stroke-linejoin="round"/>
<path d="M159.45 158.156C159.45 158.156 165.504 165.953 173.276 171.573" stroke="#263238" stroke-width="0.843713" stroke-linecap="round" stroke-linejoin="round"/>
<path d="M169.717 173.297C171.733 175.529 174.367 177.11 177.285 177.838" stroke="#263238" stroke-width="0.843713" stroke-linecap="round" stroke-linejoin="round"/>
<path d="M156.765 116.695L149.383 124.194L155.481 128.884L159.345 120.33L156.765 116.695Z" fill="white" stroke="#263238" stroke-width="0.843713" stroke-linecap="round" stroke-linejoin="round"/>
<path d="M155.243 108.842C155.243 108.842 156.416 116.695 156.416 117.402C156.416 118.109 155.448 128.884 155.448 128.884C155.448 128.884 162.271 123.729 163.773 122.321C165.274 120.913 172.91 112.595 172.91 112.595C172.91 112.595 173.145 108.141 173.263 105.449C173.381 102.757 173.617 96.4233 173.617 96.4233C173.617 96.4233 168.692 104.159 165.292 106.503C161.893 108.848 155.243 108.842 155.243 108.842Z" fill="white" stroke="#263238" stroke-width="0.843713" stroke-linecap="round" stroke-linejoin="round"/>
<path d="M168.104 105.647C168.104 105.647 165.505 110.852 162.316 113.891C159.128 116.931 156.765 116.695 156.765 116.695L155.524 111L168.104 105.647Z" fill="#263238" stroke="#263238" stroke-width="0.843713" stroke-linecap="round" stroke-linejoin="round"/>
<path d="M146.411 76.2761C146.411 76.2761 146.089 96.1257 147.218 98.8551C148.347 101.584 151.733 108.854 153.663 110.145C155.592 111.435 160.92 111.919 163.339 110.951C165.758 109.983 169.629 105.629 171.887 102.267C174.145 98.9047 174.306 94.3207 174.306 94.3207C174.306 94.3207 178.983 93.1917 180.273 91.4176C181.564 89.6436 182.531 84.8052 180.596 83.6763C178.661 82.5473 175.596 84.1601 175.596 84.1601C175.596 84.1601 175.919 79.6443 174.629 78.6766C173.339 77.709 171.564 75.4511 171.403 74.3345L171.242 73.2056C167.628 74.5066 163.903 75.4783 160.114 76.1086C154.63 76.9522 146.411 76.2761 146.411 76.2761Z" fill="white" stroke="#263238" stroke-width="0.843713" stroke-linecap="round" stroke-linejoin="round"/>
<path d="M156.385 83.4775C156.385 83.4775 156.54 85.6424 156.844 87.8197C157.148 89.9969 155.455 96.7954 155.145 97.7445C154.835 98.6936 157.465 99.1402 160.25 97.7445" stroke="#263238" stroke-width="0.843713" stroke-linecap="round" stroke-linejoin="round"/>
<path d="M157.31 101.764C157.31 101.764 162.415 102.688 165.51 98.6626" stroke="#263238" stroke-width="0.843713" stroke-linecap="round" stroke-linejoin="round"/>
<path d="M150.487 82.9751C150.487 82.9751 152.763 81.201 155.046 82.2183" stroke="#F15E04" stroke-width="2.53114" stroke-linecap="round" stroke-linejoin="round"/>
<path d="M161.728 82.5347C161.728 82.5347 164.935 81.3499 167.385 83.7195" stroke="#F15E04" stroke-width="2.53114" stroke-linecap="round" stroke-linejoin="round"/>
<path d="M155.164 88.2104C155.164 89.1471 154.767 89.9038 154.277 89.9038C153.787 89.9038 153.39 89.1471 153.39 88.2104C153.39 87.2738 153.787 86.5232 154.277 86.5232C154.767 86.5232 155.164 87.28 155.164 88.2104Z" fill="#263238"/>
<path d="M165.245 88.5515C165.245 89.4819 164.848 90.2387 164.358 90.2387C163.868 90.2387 163.471 89.4819 163.471 88.5515C163.471 87.621 163.868 86.8643 164.358 86.8643C164.848 86.8643 165.245 87.6148 165.245 88.5515Z" fill="#263238"/>
<path d="M152.534 57.251C152.534 57.251 140.444 63.5347 139.638 66.599C138.831 69.6633 145.282 67.5666 145.282 67.5666C145.282 67.5666 136.896 72.2437 136.896 75.0103C136.896 77.7768 144.799 77.5907 153.501 77.752C162.204 77.9133 171.403 74.3652 171.403 74.3652C171.403 74.3652 169.791 75.6554 172.024 77.5907C172.989 78.466 174.013 79.2742 175.088 80.0099L174.604 85.1708C175.412 84.5448 176.348 84.1043 177.346 83.8806L178.636 83.7193L179.256 77.752C179.256 77.752 183.288 76.4618 181.998 68.0753C180.708 59.6888 173.612 55.1792 165.25 55.1792C156.888 55.1792 152.534 57.251 152.534 57.251Z" fill="#F15E04" stroke="#263238" stroke-width="0.843713" stroke-linecap="round" stroke-linejoin="round"/>
<path d="M173.196 70.3025C170.975 71.8905 167.291 73.6893 161.702 74.1111C151.25 74.8927 149.159 73.9809 151.777 72.4115C154.395 70.8421 156.088 71.6237 156.088 71.6237" stroke="#263238" stroke-width="0.843713" stroke-linecap="round" stroke-linejoin="round"/>
<path d="M175.95 67.7031C175.567 68.2263 175.128 68.7067 174.641 69.136" stroke="#263238" stroke-width="0.843713" stroke-linecap="round" stroke-linejoin="round"/>
<path d="M175.298 64.5459C175.298 64.5459 172.296 66.6363 166.415 66.7666" stroke="#263238" stroke-width="0.843713" stroke-linecap="round" stroke-linejoin="round"/>
<path d="M173.643 109.431L156.646 125.72L162.862 133.573L177.271 114.003L173.643 109.431Z" fill="white" stroke="#263238" stroke-width="0.843713" stroke-linecap="round" stroke-linejoin="round"/>
<path d="M149.384 124.194L148.447 131.694L153.695 127.476L149.384 124.194Z" fill="white" stroke="#263238" stroke-width="0.843713" stroke-linecap="round" stroke-linejoin="round"/>
<path d="M156.646 125.72L155.48 128.884L158.296 127.531L156.646 125.72Z" fill="white" stroke="#263238" stroke-width="0.843713" stroke-linecap="round" stroke-linejoin="round"/>
<path d="M173.538 153.665L187.085 186.857C187.085 186.857 189.02 184.506 193.586 183.135C198.151 181.765 204.509 181.895 204.509 181.895C204.509 181.895 197.872 163.224 198.306 159.074C198.741 154.924 196.768 140.223 196.768 140.223" fill="white"/>
<path d="M173.538 153.665L187.085 186.857C187.085 186.857 189.02 184.506 193.586 183.135C198.151 181.765 204.509 181.895 204.509 181.895C204.509 181.895 197.872 163.224 198.306 159.074C198.741 154.924 196.768 140.223 196.768 140.223" stroke="#263238" stroke-width="0.843713" stroke-linecap="round" stroke-linejoin="round"/>
<path d="M207.555 192.111C207.555 192.111 204.062 198.085 199.261 201.93C196.278 204.312 190.037 208.754 174.921 212.99C172.768 213.611 168.283 214.374 167.477 212.581C166.671 210.788 167.75 207.321 169.133 206.496C170.516 205.671 182.829 201.099 184.349 199.164C185.869 197.228 188.499 187.825 188.499 187.825C188.499 187.825 198.039 182.98 202.326 184.915C206.612 186.851 207.697 190.728 207.555 192.111Z" fill="white" stroke="#263238" stroke-width="0.843713" stroke-linecap="round" stroke-linejoin="round"/>
<path d="M184.181 189.227C184.181 189.227 186.532 182.583 193.728 180.648C200.923 178.713 203.963 177.881 204.93 178.992C205.898 180.102 208.522 186.181 208.938 188.259C209.353 190.337 207.554 192.13 207.554 192.13C207.554 192.13 205.619 187.428 201.748 186.733C197.878 186.038 189.578 190.331 187.363 191.299C185.149 192.266 184.181 189.227 184.181 189.227Z" fill="white" stroke="#263238" stroke-width="0.843713" stroke-linecap="round" stroke-linejoin="round"/>
<path d="M132.807 184.363L133.589 182.924C133.589 182.924 142.744 185.542 147.713 186.46C152.682 187.378 158.308 188.681 160.268 189.599C162.228 190.517 164.318 193.259 164.318 193.259C164.586 192.155 165.137 191.139 165.917 190.314C166.697 189.488 167.679 188.88 168.766 188.55C172.556 187.372 189.428 181.225 190.998 180.573L193.218 179.655L193.727 180.629L164.449 195.219L132.807 184.363Z" fill="white" stroke="#263238" stroke-width="0.843713" stroke-linecap="round" stroke-linejoin="round"/>
<path d="M132.807 184.364L134.376 203.847L164.449 208.953L164.318 193.259L132.807 184.364Z" fill="#F15E04" stroke="#263238" stroke-width="0.843713" stroke-linecap="round" stroke-linejoin="round"/>
<path d="M164.32 193.259L193.728 180.629L190.869 201.627L164.45 208.952L164.32 193.259Z" fill="#F15E04" stroke="#263238" stroke-width="0.843713" stroke-linecap="round" stroke-linejoin="round"/>
<path d="M172.197 208.847C172.197 208.847 174.058 206.167 174.338 205.007C174.617 203.847 173.717 201.354 174.338 199.834C174.958 198.314 175.497 196.441 176.819 195.461C178.14 194.481 178.872 193.141 176.912 193.141C174.952 193.141 171.825 196.087 170.839 197.781C169.853 199.474 169.239 200.814 167.539 201.441C165.839 202.067 162.006 202.154 159.419 201.174C156.833 200.194 148.98 196.714 147.106 195.821C145.233 194.927 143.893 195.2 144.433 196.534C144.972 197.868 148.775 200.101 149.96 201.174C150.672 201.832 151.33 202.548 151.926 203.314C149.78 202.743 147.665 202.058 145.593 201.261C142.38 200.02 140.86 200.194 141.04 201.527C141.22 202.861 145.146 204.474 145.766 204.92C146.387 205.367 148.446 208.22 149.606 209.027C150.766 209.833 153.328 210.54 156.746 210.987C160.164 211.434 164.952 213.468 167.719 213.84C169.692 214.015 171.68 213.866 173.606 213.4" fill="white"/>
<path d="M172.197 208.847C172.197 208.847 174.058 206.167 174.338 205.007C174.617 203.847 173.717 201.354 174.338 199.834C174.958 198.314 175.497 196.441 176.819 195.461C178.14 194.481 178.872 193.141 176.912 193.141C174.952 193.141 171.825 196.087 170.839 197.781C169.853 199.474 169.239 200.814 167.539 201.441C165.839 202.067 162.006 202.154 159.419 201.174C156.833 200.194 148.98 196.714 147.106 195.821C145.233 194.927 143.893 195.2 144.433 196.534C144.972 197.868 148.775 200.101 149.96 201.174C150.672 201.832 151.33 202.548 151.926 203.314C149.78 202.743 147.665 202.058 145.593 201.261C142.38 200.02 140.86 200.194 141.04 201.527C141.22 202.861 145.146 204.474 145.766 204.92C146.387 205.367 148.446 208.22 149.606 209.027C150.766 209.833 153.328 210.54 156.746 210.987C160.164 211.434 164.952 213.468 167.719 213.84C169.692 214.015 171.68 213.866 173.606 213.4" stroke="#263238" stroke-width="0.843713" stroke-linecap="round" stroke-linejoin="round"/>
<path d="M145.754 204.92C145.754 204.92 151.38 207.401 152.893 207.953C153.589 208.217 154.304 208.425 155.033 208.574" stroke="#263238" stroke-width="0.843713" stroke-linecap="round" stroke-linejoin="round"/>
</svg>
