<svg width="69" height="53" viewBox="0 0 69 53" fill="none" xmlns="http://www.w3.org/2000/svg">
<path fill-rule="evenodd" clip-rule="evenodd" d="M20.3614 33.9179L34.4243 34.0203C35.5195 34.0283 36.5801 33.6366 37.4071 32.9186L47.7953 23.9004L51.033 32.7181C51.0362 32.7264 51.0393 32.7347 51.0423 32.743C52.0399 35.4596 46.7113 39.9154 39.1406 42.6954C31.5699 45.4753 24.624 45.5266 23.6265 42.81C23.6255 42.8072 23.6244 42.8044 23.6234 42.8017C23.6214 42.7961 23.6193 42.7906 23.6173 42.785L20.3614 33.9179Z" fill="#F15E04"/>
<path d="M61.3537 26.3862C61.488 25.4776 61.5935 24.3227 61.6671 23.3034C61.7244 22.5096 62.5442 22.0384 63.1575 22.5454C64.2315 23.4333 65.1611 24.6218 65.7072 25.4407C65.8807 25.7008 65.9338 26.0324 65.7861 26.3079C65.1595 27.4766 63.6423 27.7822 62.3716 27.7689C61.6901 27.7617 61.2541 27.0604 61.3537 26.3862Z" fill="white"/>
<path fill-rule="evenodd" clip-rule="evenodd" d="M62.4684 22.9332C62.3567 22.9927 62.2438 23.1328 62.2286 23.3439C62.1546 24.3678 62.048 25.5391 61.9106 26.4685C61.8815 26.6651 61.9326 26.8642 62.0314 27.0058C62.1258 27.1411 62.2462 27.205 62.3779 27.2064C62.9726 27.2126 63.5979 27.1431 64.1311 26.9521C64.6608 26.7623 65.0626 26.4676 65.2907 26.0422C65.3162 25.9946 65.3293 25.8873 65.2396 25.7528C64.7108 24.9598 63.8163 23.8195 62.7995 22.979C62.6763 22.8771 62.5652 22.8817 62.4684 22.9332ZM61.94 21.94C62.4208 21.6842 63.0262 21.7067 63.5163 22.1119L63.1579 22.5454M61.94 21.94C61.4742 22.1879 61.1486 22.6802 61.1065 23.2628L61.94 21.94ZM63.5163 22.1119C64.6476 23.0471 65.6122 24.2838 66.1756 25.1286C66.4328 25.5143 66.5522 26.0702 66.2822 26.5737C65.8838 27.3169 65.2137 27.7593 64.5105 28.0112C63.8107 28.2618 63.0421 28.3384 62.3661 28.3313C61.2371 28.3195 60.6651 27.2009 60.7977 26.304C60.9289 25.4161 61.0332 24.2776 61.1065 23.2628" fill="#F15E04"/>
<path fill-rule="evenodd" clip-rule="evenodd" d="M61.0362 21.9511C61.194 21.6835 61.5389 21.5947 61.8065 21.7526C62.0689 21.9074 62.2813 22.1985 62.439 22.4477C62.613 22.7226 62.7854 23.0554 62.9448 23.3951C63.2644 24.0762 63.5545 24.8337 63.7251 25.3257C63.8268 25.6192 63.6714 25.9397 63.3779 26.0414C63.0843 26.1432 62.7639 25.9878 62.6621 25.6942C62.5006 25.2284 62.2249 24.5092 61.9264 23.8731C61.7767 23.5542 61.627 23.2683 61.4884 23.0492C61.4191 22.9398 61.358 22.8556 61.3066 22.7954C61.2581 22.7386 61.233 22.7207 61.2331 22.7205C61.2331 22.7205 61.2337 22.7208 61.2347 22.7214C60.9671 22.5635 60.8783 22.2186 61.0362 21.9511Z" fill="#F15E04"/>
<path fill-rule="evenodd" clip-rule="evenodd" d="M57.9395 11.5212C58.3769 11.3606 58.8618 11.585 59.0224 12.0224L62.2431 20.7936C62.4038 21.2311 62.1794 21.7159 61.7419 21.8765C61.3045 22.0371 60.8197 21.8127 60.6591 21.3753L57.4383 12.6041C57.2777 12.1666 57.5021 11.6818 57.9395 11.5212Z" fill="#F15E04"/>
<path d="M63.745 20.5956C64.1871 21.7995 63.5695 23.1338 62.3656 23.5759C61.1617 24.0179 59.8274 23.4003 59.3853 22.1964C58.9433 20.9925 59.5609 19.6582 60.7648 19.2162C61.9686 18.7741 63.303 19.3917 63.745 20.5956Z" fill="#F15E04"/>
<path d="M26.0606 11.7182L4.21196 31.3141C3.80815 31.6763 4.06158 32.3457 4.60399 32.3497L33.8094 32.5622C34.9651 32.5707 36.0843 32.1573 36.9571 31.3996L58.778 12.4564C59.1858 12.1023 58.9472 11.4317 58.4074 11.4148L29.3799 10.5069C28.1588 10.4687 26.9701 10.9026 26.0606 11.7182Z" fill="#F15E04"/>
<path fill-rule="evenodd" clip-rule="evenodd" d="M51.4564 15.8316C51.6569 16.0689 51.6272 16.4238 51.39 16.6243L35.7488 29.8479C35.5115 30.0484 35.1566 30.0187 34.9561 29.7815C34.7555 29.5442 34.7852 29.1893 35.0225 28.9888L50.6636 15.7652C50.9009 15.5647 51.2558 15.5944 51.4564 15.8316Z" fill="white"/>
<path fill-rule="evenodd" clip-rule="evenodd" d="M8.52874 30.2075C8.52864 29.8968 8.7804 29.6449 9.09106 29.6448L15.9404 29.6426C16.2511 29.6425 16.503 29.8942 16.5031 30.2049C16.5032 30.5155 16.2514 30.7675 15.9408 30.7676L9.09142 30.7698C8.78076 30.7699 8.52884 30.5181 8.52874 30.2075Z" fill="white"/>
</svg>
