<svg width="67" height="66" viewBox="0 0 67 66" fill="none" xmlns="http://www.w3.org/2000/svg">
<g clip-path="url(#clip0_501_251)">
<path d="M21.0801 21.0827C39.2729 31.1142 44.0337 40.2957 41.6533 41.9959C39.2729 43.5261 30.6016 38.4254 21.0801 21.0827C10.8786 39.6155 1.69719 44.2062 0.166952 41.4858C-1.19326 38.9354 4.07755 30.4341 21.0801 21.0827C3.39745 11.2212 -1.53331 2.37985 0.336978 0.339542C2.37729 -1.53074 11.2186 3.40001 21.0801 21.0827C30.2616 4.42017 38.7629 -0.85064 41.3132 0.169516C44.3737 1.3597 39.953 10.7111 21.0801 21.0827Z" fill="white"/>
</g>
<path d="M60.0065 58.5192C65.7473 61.6828 67.2496 64.5783 66.4984 65.1145C65.7473 65.5971 63.011 63.9885 60.0065 58.5192C56.7873 64.3638 53.89 65.8116 53.4072 64.9536C52.9779 64.1493 54.6412 61.4683 60.0065 58.5192C54.4266 55.4092 52.8706 52.621 53.4608 51.9775C54.1047 51.3877 56.8946 52.9427 60.0065 58.5192C62.9037 53.2644 65.5863 51.6022 66.3911 51.9239C67.3569 52.2992 65.9619 55.2484 60.0065 58.5192Z" fill="white"/>
<defs>
<clipPath id="clip0_501_251">
<rect width="42.1664" height="42.1664" fill="white"/>
</clipPath>
</defs>
</svg>
