<svg width="131" height="159" viewBox="0 0 131 159" fill="none" xmlns="http://www.w3.org/2000/svg">
<path d="M28.1578 76.7528C23.3577 69.4616 12.3668 51.2585 12.7875 48.9949C13.3795 45.8092 16.0898 43.3148 18.3013 41.1509C14.7581 34.7942 11.3157 28.3453 7.61104 22.08C5.67195 18.8004 2.9368 14.2488 2.72075 10.355C2.49964 6.36328 7.40832 -0.417056 11.7371 3.35617C13.8484 5.19639 15.1792 7.92842 16.6662 10.2564C19.672 14.9623 22.4257 19.8207 25.2506 24.6343C25.4341 20.6654 30.4488 17.5267 34.1426 18.9196C35.5125 19.4359 36.4584 20.6589 37.2691 21.8306C38.0647 15.9211 44.851 17.1715 48.456 19.755C49.1261 18.997 49.7495 18.233 50.5841 17.6442C54.1519 15.1286 58.4334 17.815 60.7805 20.722C62.8157 23.2423 72.2408 39.4619 76.8722 47.8914" stroke="white" stroke-width="3.67" stroke-miterlimit="1.5" stroke-linecap="round" stroke-linejoin="round"/>
<path d="M18.2591 41.1297C20.5291 45.4386 23.5964 49.3398 25.8461 53.6723" stroke="white" stroke-width="3.67" stroke-miterlimit="1.5" stroke-linecap="round" stroke-linejoin="round"/>
<path d="M32.4696 89.2354C30.2355 85.673 28.3519 82.1431 26.394 78.5672C29.9689 75.6068 34.2037 73.8108 38.2246 71.5905C42.0619 69.4717 45.6833 66.9511 49.5036 64.7891C59.4928 59.1366 69.031 52.5729 79.2053 47.2347C80.7454 50.0396 83.3081 54.1537 85.4199 57.7174" stroke="white" stroke-width="3.67" stroke-miterlimit="1.5" stroke-linecap="round" stroke-linejoin="round"/>
<path d="M66.9717 155.923C60.2316 145.191 35.4178 105.38 29.5408 90.7385C40.3702 85.4131 50.0786 78.1802 60.5324 72.248C70.2558 66.7304 80.2366 61.3602 89.7381 55.4516C91.6637 61.3284 120.94 108.495 127.857 122.865" stroke="white" stroke-width="3.67" stroke-miterlimit="1.5" stroke-linecap="round" stroke-linejoin="round"/>
</svg>
