<svg width="55" height="56" viewBox="0 0 55 56" fill="none" xmlns="http://www.w3.org/2000/svg">
<g opacity="0.5">
<path d="M9.31295 24.7311C9.77889 18.4853 9.95515 12.2496 10.6303 6.01562C9.26132 8.00129 7.771 9.90346 6.43359 11.9111" stroke="white" stroke-width="4.26841" stroke-miterlimit="1.5" stroke-linecap="round" stroke-linejoin="round"/>
<path d="M3.89655 27.2662C7.52383 25.694 11.0561 23.8679 14.6408 22.196" stroke="white" stroke-width="4.26841" stroke-miterlimit="1.5" stroke-linecap="round" stroke-linejoin="round"/>
<path d="M28.497 4.69857C30.3805 5.43935 30.9928 8.10128 30.9302 9.87031C30.7836 14.0195 27.9298 20.5306 22.7778 19.4823C20.6046 19.04 19.7782 16.1164 19.8701 14.2279C20.0552 10.4244 22.3134 4.25521 26.9664 4.28871" stroke="white" stroke-width="4.26841" stroke-miterlimit="1.5" stroke-linecap="round" stroke-linejoin="round"/>
<path d="M12.0381 41.1737C16.8768 37.226 21.1029 32.4557 25.5896 28.1329C31.3772 22.5562 37.4543 17.3016 43.3182 11.8086" stroke="white" stroke-width="4.26841" stroke-miterlimit="1.5" stroke-linecap="round" stroke-linejoin="round"/>
<path d="M29.2174 49.7004C29.1842 46.0006 29.9091 42.3239 29.9497 38.6183C29.9599 37.7016 30.2808 34.8271 29.6477 34.102C29.4483 33.8736 29.3783 34.6454 29.2449 34.9178C29.0154 35.3873 28.7998 35.8628 28.5623 36.3285C27.8553 37.7148 26.9903 39.0148 26.1494 40.3217" stroke="white" stroke-width="4.26841" stroke-miterlimit="1.5" stroke-linecap="round" stroke-linejoin="round"/>
<path d="M21.832 52.0179C26.3102 50.8049 30.6439 49.3109 35.1628 48.2168" stroke="white" stroke-width="4.26841" stroke-miterlimit="1.5" stroke-linecap="round" stroke-linejoin="round"/>
<path d="M49.7383 30.64C52.4088 34.0669 50.8605 40.1493 48.494 43.2459C47.2491 44.8749 44.8867 46.7271 42.8149 45.413C37.0051 41.7286 42.2775 29.4168 48.6919 30.0236" stroke="white" stroke-width="4.26841" stroke-miterlimit="1.5" stroke-linecap="round" stroke-linejoin="round"/>
</g>
</svg>
