<svg width="90" height="90" viewBox="0 0 90 90" fill="none" xmlns="http://www.w3.org/2000/svg">
<path d="M75.293 10.3906L83.8324 23.0011C84.7515 24.3584 83.6071 26.158 81.9881 25.9012L14.4951 15.1959C12.8747 14.9389 12.3444 12.8705 13.6413 11.8655L26.0443 2.25406C26.2488 2.09561 26.5097 2.02879 26.7651 2.06944L74.0364 9.59107C74.5478 9.67244 75.0026 9.96187 75.293 10.3906Z" fill="white"/>
<path d="M48.8768 75.2489L85.0544 26.5387L73.9991 11.4844L37.5144 61.3292L48.8768 75.2489Z" fill="#F15E04"/>
<path fill-rule="evenodd" clip-rule="evenodd" d="M86.5581 27.6553C87.0483 26.9952 87.0508 26.0926 86.5641 25.4299L75.5088 10.3756C75.1556 9.89462 74.5943 9.61074 73.9976 9.6112C73.4009 9.61167 72.8401 9.89643 72.4877 10.3779L36.003 60.2227C35.4992 60.9109 35.524 61.8526 36.0634 62.5134L47.4257 76.4332C47.791 76.8806 48.3422 77.1345 48.9196 77.1213C49.497 77.1081 50.036 76.8292 50.3804 76.3656L86.5581 27.6553ZM48.8767 75.2488L37.5144 61.329L73.9991 11.4842L85.0544 26.5385L48.8767 75.2488Z" fill="white"/>
<path fill-rule="evenodd" clip-rule="evenodd" d="M72.0781 35.7267C71.6648 35.4157 71.0777 35.4986 70.7667 35.9119L57.594 53.4173C57.283 53.8306 57.3659 54.4178 57.7792 54.7288C58.1925 55.0398 58.7797 54.9568 59.0907 54.5435L72.2633 37.0381C72.5743 36.6248 72.4914 36.0377 72.0781 35.7267Z" fill="white"/>
<path d="M29.9657 67.9389L11.6397 14.718L26.4062 3.90414L45.9999 60.3394L29.9657 67.9389Z" fill="#F15E04"/>
<path fill-rule="evenodd" clip-rule="evenodd" d="M9.86881 15.3282C9.60154 14.552 9.87084 13.6923 10.5331 13.2072L25.2997 2.39335C25.7791 2.04227 26.3966 1.93949 26.9639 2.11638C27.5312 2.29327 27.9808 2.72883 28.1757 3.29017L47.7694 59.7254C48.083 60.6286 47.6661 61.6229 46.8022 62.0323L30.768 69.6318C30.2865 69.86 29.7306 69.8723 29.2394 69.6657C28.7482 69.459 28.3684 69.0529 28.1949 68.5491L9.86881 15.3282ZM29.9658 67.9392L46 60.3398L26.4063 3.9045L11.6398 14.7184L29.9658 67.9392Z" fill="white"/>
<path fill-rule="evenodd" clip-rule="evenodd" d="M26.557 16.608C26.0655 16.7692 25.7977 17.2983 25.9589 17.7897L31.4147 34.4268C31.5759 34.9183 32.1049 35.1861 32.5964 35.0249C33.0879 34.8637 33.3556 34.3347 33.1945 33.8432L27.7387 17.2061C27.5775 16.7146 27.0485 16.4469 26.557 16.608Z" fill="white"/>
<path d="M22.4994 60.3521C21.0361 70.984 28.4687 80.7891 39.1006 82.2524C49.7325 83.7158 59.5377 76.2831 61.001 65.6512C62.4643 55.0193 55.0316 45.2141 44.3997 43.7508C33.7678 42.2875 23.9627 49.7202 22.4994 60.3521Z" fill="#F15E04"/>
<path fill-rule="evenodd" clip-rule="evenodd" d="M20.6437 60.0965C19.0394 71.7532 27.1884 82.5035 38.8451 84.1078C50.5019 85.7122 61.2521 77.5631 62.8564 65.9064C64.4608 54.2497 56.3117 43.4995 44.655 41.8951C32.9983 40.2908 22.2481 48.4398 20.6437 60.0965ZM39.1005 82.2523C28.4686 80.789 21.036 70.9838 22.4993 60.3519C23.9626 49.72 33.7677 42.2874 44.3996 43.7507C55.0315 45.214 62.4642 55.0191 61.0009 65.651C59.5376 76.2829 49.7324 83.7156 39.1005 82.2523Z" fill="white"/>
<path fill-rule="evenodd" clip-rule="evenodd" d="M29.4456 61.3081C28.5103 68.1038 33.2611 74.371 40.0568 75.3064C46.8525 76.2417 53.1198 71.4909 54.0551 64.6951C54.9904 57.8994 50.2396 51.6322 43.4439 50.6968C36.6482 49.7615 30.3809 54.5123 29.4456 61.3081ZM40.3122 73.4508C34.5413 72.6565 30.5069 67.3344 31.3011 61.5634C32.0954 55.7925 37.4176 51.7581 43.1885 52.5524C48.9595 53.3467 52.9938 58.6688 52.1996 64.4398C51.4053 70.2107 46.0831 74.2451 40.3122 73.4508Z" fill="white"/>
</svg>
