<svg width="120" height="93" viewBox="0 0 120 93" fill="none" xmlns="http://www.w3.org/2000/svg">
<path d="M21.0029 4.47702C20.6159 6.3687 21.7107 12.9219 24.3373 24.6756L26.1231 33.0205L14.5549 45.9399C1.25115 60.7636 -0.168064 62.8446 1.06814 65.2607C2.53327 68.1242 7.11572 67.8119 20.5196 63.7764C27.5577 61.6432 33.7903 59.922 34.5104 60.0052C36.04 60.1258 39.8401 67.553 45.0431 80.8112C49.9235 93.2183 50.7851 94.0194 56.4225 91.135C58.3912 90.1277 70.4318 79.6764 83.0447 67.916C95.7929 56.1994 108.587 44.5723 111.665 41.9813C118.222 36.4809 120.349 33.1346 118.8 30.9911C118.118 30.0984 112.21 28.0404 105.45 26.305C98.691 24.5695 83.8572 19.8522 72.4904 15.732C37.7595 3.24252 34.9188 2.32486 30.5486 1.28653C26.1784 0.248204 21.6522 1.77373 21.0029 4.47702ZM46.0277 12.5612C55.0491 15.849 68.3097 20.581 75.4352 23.0323C82.5608 25.4835 88.7416 27.8537 89.1495 28.2095C89.9195 28.8318 84.438 29.1524 51.1829 30.3603C36.5324 30.8559 31.9 30.6292 31.619 29.4181C28.7447 15.1942 27.6853 7.60674 28.5801 7.14889C29.117 6.87417 36.9168 9.3192 46.0277 12.5612ZM67.9958 35.1941C96.8995 34.9707 101.578 35.2868 96.0671 37.316C77.6084 44.0508 46.5345 52.6109 35.892 53.8786C32.0754 54.3635 25.928 55.5894 22.1177 56.7487C18.351 57.7727 14.7175 58.6156 14.087 58.4866C13.4564 58.3576 15.5374 54.9217 18.7379 51.0259C21.8032 47.0864 25.5781 42.1064 26.9973 40.0253L29.6152 36.3147L35.005 35.8151C38.06 35.6069 52.8916 35.2444 67.9958 35.1941ZM51.6935 56.2942C58.871 54.6542 95.7239 43.9275 98.2294 42.6455C100.602 41.5446 97.0412 45.3988 88.6174 53.2091C83.7583 57.6148 74.3584 66.8279 67.6784 73.6331C61.088 80.3925 55.2071 86.1113 54.6702 86.3861C53.6858 86.8897 52.1728 83.712 44.6286 65.2159C43.203 61.7676 42.4558 58.7626 42.9927 58.4879C43.4401 58.259 47.4315 57.2329 51.6935 56.2942Z" fill="#FFD5BC"/>
</svg>
