<svg width="127" height="98" viewBox="0 0 127 98" fill="none" xmlns="http://www.w3.org/2000/svg">
<path d="M6.90323 65.5115C4.31073 61.2907 5.94832 55.6932 10.4604 53.6497C21.5135 48.6436 40.8519 39.6843 54.4075 32.2985C67.9631 24.9128 85.9763 13.5211 96.1755 6.94787C100.339 4.26452 105.93 5.9234 108.071 10.3902C109.208 12.7629 110.44 15.2424 111.55 17.2795C112.66 19.3167 114.076 21.6963 115.453 23.9383C118.045 28.159 116.408 33.7565 111.896 35.8001C100.843 40.8061 81.5041 49.7655 67.9485 57.1512C54.3929 64.537 36.3797 75.9287 26.1806 82.5019C22.017 85.1852 16.4258 83.5263 14.2849 79.0596C13.1477 76.6868 11.9156 74.2074 10.8057 72.1702C9.69573 70.1331 8.28034 67.7535 6.90323 65.5115Z" fill="white"/>
<path fill-rule="evenodd"   d="M9.6353 51.828C20.6889 46.8217 39.9667 37.8892 53.4506 30.5425C66.9346 23.1958 84.8923 11.8406 95.092 5.267C100.295 1.91369 107.228 4.0033 109.875 9.52601C111.006 11.8865 112.221 14.3303 113.307 16.3229C114.392 18.3155 115.787 20.6613 117.157 22.8918C120.362 28.1102 118.359 35.0684 112.721 37.6222C101.667 42.6285 82.3893 51.561 68.9054 58.9077C55.4215 66.2544 37.4637 77.6097 27.264 84.1832C22.0609 87.5365 15.1283 85.4469 12.4813 79.9242C11.35 77.5637 10.1351 75.1199 9.04941 73.1274C7.96374 71.1348 6.56904 68.7889 5.19902 66.5585C1.99367 61.34 3.9966 54.3819 9.6353 51.828ZM10.4604 53.6499C5.9483 55.6935 4.31072 61.291 6.90322 65.5117C8.28033 67.7537 9.69571 70.1333 10.8056 72.1705C11.9156 74.2076 13.1477 76.6871 14.2849 79.0598C16.4258 83.5266 22.017 85.1855 26.1806 82.5021C36.3797 75.9289 54.3929 64.5372 67.9485 57.1515C81.5041 49.7657 100.843 40.8064 111.896 35.8003C116.408 33.7567 118.045 28.1592 115.453 23.9385C114.076 21.6965 112.66 19.3169 111.55 17.2798C110.44 15.2426 109.208 12.7631 108.071 10.3904C105.93 5.92364 100.339 4.26476 96.1755 6.94811C85.9763 13.5213 67.9631 24.913 54.4075 32.2988C40.8519 39.6845 21.5135 48.6439 10.4604 53.6499Z" fill="#F15E04"/>
<path d="M45.2321 35.2405C44.8008 34.2914 45.1793 33.1747 46.0947 32.6759L62.2688 23.8635C63.1842 23.3647 64.3279 23.6521 64.8915 24.5291C66.7357 27.3989 70.7079 33.6681 73.2091 38.2587C75.7102 42.8492 78.8243 49.5859 80.2357 52.6916C80.6671 53.6407 80.2886 54.7574 79.3731 55.2562L63.1991 64.0686C62.2836 64.5674 61.14 64.28 60.5764 63.403C58.7321 60.5331 54.7599 54.2639 52.2588 49.6734C49.7576 45.0829 46.6436 38.3461 45.2321 35.2405Z" fill="#F15E04"/>
<path d="M62.8979 54.3252L70.8385 49.9988L78.4998 64.0602L72.3663 62.2531L70.5592 68.3866L62.8979 54.3252Z" fill="white"/>
<path fill-rule="evenodd"   d="M61.1416 55.2821C60.6132 54.3122 60.971 53.0975 61.941 52.569L69.8816 48.2426C70.8515 47.7141 72.0662 48.072 72.5947 49.0419L80.256 63.1034C80.6431 63.8137 80.5641 64.6872 80.0559 65.3166C79.5478 65.946 78.7105 66.2073 77.9346 65.9787L73.7195 64.7369L72.4777 68.9519C72.2491 69.7278 71.5756 70.2897 70.7712 70.3754C69.9668 70.4611 69.19 70.0539 68.803 69.3435L61.1416 55.2821ZM72.3663 62.2532L78.4998 64.0602L70.8384 49.9988L62.8979 54.3252L70.5592 68.3867L72.3663 62.2532Z" fill="#F15E04"/>
<path d="M74.3708 43.7911C74.9913 44.9301 73.9922 46.2699 74.1552 47.4831C74.3208 48.7152 75.6416 49.8208 75.37 51.0114C75.0408 52.4548 73.315 52.9607 72.4002 54.15C71.5514 55.2537 71.5521 57.0657 70.2509 57.7746C68.9496 58.4836 67.4275 57.5006 66.0399 57.6154C64.5446 57.7392 63.1838 58.9151 61.7924 58.4091C60.6448 57.9917 60.4319 56.2825 59.4864 55.4754C58.5554 54.6807 56.8879 54.7937 56.2673 53.6547C55.6468 52.5158 56.6459 51.1759 56.4828 49.9627C56.3359 48.8693 54.9855 47.9042 55.1844 46.8382C55.449 45.42 56.6206 45.1858 57.4468 43.9873C58.335 42.6989 58.9191 40.4711 60.3872 39.6712C61.8553 38.8713 64.044 39.5884 65.6082 39.5406C67.0631 39.4962 67.8952 38.6388 69.2302 39.1853C70.2339 39.5962 70.3126 41.2541 71.1517 41.9704C72.0827 42.7652 73.7502 42.6521 74.3708 43.7911Z" fill="white"/>
<path fill-rule="evenodd"   d="M58.9677 43.3312C58.7625 43.739 58.5338 44.1722 58.2701 44.5547C57.8634 45.1447 57.3554 45.5763 56.9971 45.8808C56.9132 45.952 56.8376 46.0163 56.7733 46.074C56.4194 46.392 56.242 46.622 56.1674 47.0214C56.1512 47.1083 56.1818 47.2883 56.5433 47.8463C56.5731 47.8924 56.6058 47.9422 56.6404 47.9948C56.773 48.1965 56.9331 48.4401 57.0653 48.6793C57.2372 48.9904 57.4136 49.3807 57.4739 49.8293C57.5353 50.2859 57.483 50.7181 57.4123 51.0818C57.3655 51.3227 57.2977 51.5883 57.24 51.8146C57.216 51.9083 57.1938 51.9953 57.1756 52.071C57.025 52.6948 57.0334 52.9705 57.1454 53.1761C57.2574 53.3816 57.4845 53.5382 58.0904 53.7499C58.1638 53.7756 58.249 53.8041 58.3407 53.8348C58.5621 53.909 58.822 53.9961 59.0498 54.0873C59.3938 54.2251 59.7853 54.4155 60.1357 54.7146C60.4864 55.014 60.7415 55.3724 60.9381 55.6949C61.0765 55.9219 61.2112 56.1762 61.3266 56.394C61.368 56.4721 61.4069 56.5455 61.4426 56.6113C61.7691 57.2132 61.9559 57.4042 62.1342 57.4691C62.4773 57.5938 62.8702 57.542 63.5459 57.3047C63.6549 57.2664 63.7759 57.2209 63.9066 57.1717C64.47 56.9598 65.2133 56.6802 65.9574 56.6186C66.4305 56.5794 66.8842 56.6359 67.2787 56.7074C67.4864 56.745 67.7494 56.8025 67.9834 56.8537C68.1324 56.8862 68.2696 56.9162 68.3732 56.9369C69.062 57.0741 69.4553 57.0691 69.7724 56.8963C70.0895 56.7235 70.307 56.3958 70.5652 55.7426C70.604 55.6444 70.6532 55.5128 70.7066 55.3698C70.7905 55.1456 70.8848 54.8934 70.9657 54.6984C71.1195 54.3283 71.3181 53.9164 71.6075 53.5401C72.0627 52.9483 72.7007 52.4753 73.1842 52.1168C73.2964 52.0337 73.4002 51.9567 73.4915 51.8858C74.0573 51.4467 74.3139 51.1447 74.395 50.7888C74.4372 50.6038 74.378 50.3433 74.0493 49.7426C74.0134 49.6769 73.9728 49.6044 73.9296 49.5273C73.8091 49.3122 73.6685 49.0612 73.5528 48.8218C73.3884 48.4818 73.2256 48.0731 73.1642 47.6161C73.1028 47.1595 73.1551 46.7273 73.2258 46.3635C73.2726 46.1227 73.3404 45.8571 73.3981 45.6308C73.422 45.5371 73.4442 45.4501 73.4625 45.3744C73.6131 44.7506 73.6046 44.4749 73.4926 44.2693C73.3806 44.0637 73.1536 43.9072 72.5477 43.6955C72.4743 43.6698 72.3891 43.6413 72.2974 43.6105C72.076 43.5364 71.816 43.4493 71.5883 43.3581C71.2442 43.2203 70.8528 43.0299 70.5024 42.7308C70.1581 42.4369 69.9258 42.0769 69.7576 41.7639C69.6283 41.5231 69.5105 41.2565 69.4128 41.0357C69.3874 40.9781 69.3633 40.9237 69.3408 40.8736C69.0679 40.2674 68.9332 40.144 68.8514 40.1106C68.4754 39.9566 68.1859 39.981 67.7268 40.106C67.6435 40.1287 67.5485 40.1574 67.4431 40.1893C66.993 40.3253 66.355 40.5181 65.6387 40.5399C65.1744 40.5541 64.6863 40.5114 64.2324 40.4628C64.0817 40.4466 63.9361 40.43 63.7934 40.4137C63.4837 40.3784 63.1877 40.3447 62.8828 40.3205C61.9792 40.249 61.3241 40.2993 60.8657 40.5491C60.4072 40.7989 60.0098 41.3221 59.58 42.1201C59.4349 42.3894 59.3028 42.6564 59.1646 42.9357C59.1009 43.0645 59.0359 43.1958 58.9677 43.3312ZM57.8191 41.1717C58.2705 40.3337 58.8991 39.343 59.9088 38.7929C60.9184 38.2428 62.0917 38.2517 63.0406 38.3268C63.3811 38.3537 63.7341 38.3939 64.0597 38.431C64.1939 38.4463 64.3234 38.4611 64.4455 38.4742C64.8878 38.5215 65.2599 38.5506 65.5776 38.5409C66.0056 38.5278 66.3256 38.4326 66.7428 38.3085C66.8823 38.267 67.0326 38.2222 67.2014 38.1763C67.8559 37.9981 68.65 37.867 69.6091 38.2597C70.5265 38.6352 70.9335 39.5394 71.1612 40.0453L71.1645 40.0526C71.1995 40.1303 71.2316 40.2028 71.262 40.2714C71.3541 40.4793 71.43 40.6507 71.5195 40.8174C71.6334 41.0295 71.7256 41.1454 71.8009 41.2096C71.916 41.3079 72.0821 41.4014 72.332 41.5015C72.5065 41.5714 72.6694 41.6258 72.8591 41.6891C72.9647 41.7244 73.0787 41.7624 73.2075 41.8074C73.8233 42.0226 74.7403 42.379 75.2489 43.3124C75.7574 44.2458 75.5597 45.2096 75.4067 45.8437C75.3746 45.9764 75.3448 46.0927 75.3172 46.2006C75.2675 46.3943 75.2249 46.5607 75.189 46.7452C75.1377 47.0094 75.1262 47.1997 75.1463 47.3497C75.1677 47.5087 75.232 47.7002 75.3534 47.9513C75.4414 48.1332 75.5352 48.3007 75.6437 48.4943C75.6937 48.5835 75.7468 48.6783 75.8038 48.7825C76.109 49.3403 76.5743 50.2279 76.345 51.2335C76.0969 52.321 75.326 52.9937 74.7178 53.4657C74.5525 53.594 74.3991 53.7088 74.2566 53.8154C73.805 54.1531 73.4619 54.4097 73.1929 54.7595C73.0579 54.935 72.9382 55.1635 72.8127 55.4657C72.7324 55.6591 72.6745 55.816 72.6107 55.9886C72.5581 56.1312 72.5016 56.2844 72.4252 56.4777C72.1462 57.1835 71.7134 58.1163 70.7293 58.6525C69.7452 59.1887 68.7267 59.0466 67.9824 58.8983C67.7785 58.8577 67.6191 58.8222 67.4708 58.7891C67.2912 58.749 67.128 58.7126 66.9219 58.6753C66.6 58.6169 66.3431 58.5935 66.1224 58.6118C65.6827 58.6482 65.281 58.7974 64.7524 58.9937C64.5855 59.0557 64.406 59.1224 64.2085 59.1917C63.4822 59.4468 62.499 59.7299 61.4507 59.3487C60.4813 58.9962 59.9878 58.1239 59.6846 57.5651C59.628 57.4606 59.5771 57.3646 59.5293 57.2742C59.4254 57.0781 59.3355 56.9084 59.2304 56.7359C59.0852 56.4978 58.9592 56.3399 58.8372 56.2358C58.722 56.1375 58.5559 56.044 58.3061 55.9439C58.1316 55.874 57.9686 55.8196 57.779 55.7563C57.6733 55.721 57.5594 55.683 57.4306 55.638C56.8147 55.4228 55.8978 55.0664 55.3892 54.133C54.8806 53.1996 55.0784 52.2358 55.2314 51.6017C55.2634 51.469 55.2933 51.3527 55.3209 51.2448C55.3705 51.0511 55.4132 50.8847 55.449 50.7002C55.5004 50.436 55.5119 50.2457 55.4917 50.0957C55.4786 49.9976 55.4312 49.8573 55.3147 49.6466C55.2232 49.481 55.1204 49.3242 54.9956 49.1341C54.9544 49.0714 54.9109 49.0051 54.8646 48.9336L54.8603 48.9269C54.5586 48.4612 54.0195 47.629 54.2014 46.6546C54.3915 45.6358 54.9322 45.0395 55.4367 44.5863C55.5669 44.4693 55.686 44.3673 55.7964 44.2726C56.1269 43.9893 56.3804 43.7721 56.6235 43.4196C56.8039 43.1578 56.9813 42.8294 57.1812 42.4321C57.2364 42.3224 57.2943 42.2056 57.3542 42.0846C57.4995 41.7908 57.6572 41.4724 57.8191 41.1717Z" fill="#F15E04"/>
<path fill-rule="evenodd"   d="M70.6154 45.8369C72.2095 48.7627 71.175 52.452 68.232 54.0554C65.289 55.6589 61.6282 54.5279 60.0341 51.6021C58.4399 48.6763 59.4745 44.987 62.4174 43.3835C65.3604 41.78 69.0213 42.911 70.6154 45.8369ZM67.2751 52.2992C69.2271 51.2357 69.9363 48.7708 68.8591 46.7937C67.782 44.8167 65.3263 44.0762 63.3743 45.1397C61.4223 46.2033 60.7131 48.6682 61.7903 50.6452C62.8675 52.6222 65.3231 53.3628 67.2751 52.2992Z" fill="#F15E04"/>
<path fill-rule="evenodd"   d="M98.6284 26.0595C98.1434 26.3237 97.536 26.1448 97.2718 25.6598C95.0356 21.5556 90.9796 14.7946 88.5131 11.283C88.1957 10.8311 88.3047 10.2074 88.7567 9.88997C89.2086 9.57253 89.8323 9.68158 90.1498 10.1335C92.6744 13.728 96.7705 20.5595 99.028 24.7029C99.2923 25.1879 99.1133 25.7953 98.6284 26.0595Z" fill="#F15E04"/>
<path fill-rule="evenodd"   d="M89.3598 23.7714C88.8748 24.0356 88.2675 23.8567 88.0032 23.3717C86.0223 19.736 84.4343 17.4932 82.6196 15.1743C82.2792 14.7394 82.3559 14.1109 82.7908 13.7705C83.2257 13.4301 83.8542 13.5068 84.1946 13.9417C86.0646 16.3313 87.7169 18.666 89.7595 22.4148C90.0237 22.8998 89.8448 23.5072 89.3598 23.7714Z" fill="#F15E04"/>
<path fill-rule="evenodd"   d="M74.3724 32.5595C73.8874 32.8237 73.28 32.6448 73.0158 32.1598C71.0349 28.5241 69.4469 26.2813 67.6321 23.9624C67.2918 23.5274 67.3684 22.8989 67.8034 22.5586C68.2383 22.2182 68.8668 22.2949 69.2072 22.7298C71.0772 25.1194 72.7295 27.4541 74.772 31.2029C75.0363 31.6879 74.8573 32.2953 74.3724 32.5595Z" fill="#F15E04"/>
<path fill-rule="evenodd"   d="M50.7949 55.1348C51.2798 54.8706 51.8872 55.0495 52.1514 55.5345C54.1323 59.1702 55.7204 61.413 57.5351 63.732C57.8755 64.1669 57.7988 64.7954 57.3639 65.1358C56.9289 65.4761 56.3004 65.3995 55.9601 64.9645C54.09 62.575 52.4377 60.2402 50.3952 56.4914C50.131 56.0064 50.3099 55.3991 50.7949 55.1348Z" fill="#F15E04"/>
<path fill-rule="evenodd"   d="M26.7419 57.5206C27.2269 57.2563 27.4058 56.649 27.1416 56.164C25.1607 52.5283 24.1371 49.9779 23.1725 47.1958C22.9916 46.674 22.422 46.3976 21.9001 46.5786C21.3783 46.7595 21.102 47.3291 21.2829 47.851C22.2768 50.7179 23.3428 53.3721 25.3853 57.1209C25.6496 57.6059 26.2569 57.7848 26.7419 57.5206Z" fill="#F15E04"/>
<path fill-rule="evenodd"   d="M24.2346 67.1138C24.7195 66.8496 25.3269 67.0285 25.5911 67.5135C27.7401 71.4577 30.011 75.0601 32.7971 78.4913C33.1452 78.9201 33.0798 79.5499 32.6511 79.898C32.2223 80.2461 31.5926 80.1808 31.2444 79.752C28.3595 76.1989 26.0229 72.4862 23.8349 68.4704C23.5707 67.9854 23.7496 67.3781 24.2346 67.1138Z" fill="#F15E04"/>
</svg>
