<svg width="82" height="83" viewBox="0 0 82 83" fill="none" xmlns="http://www.w3.org/2000/svg">
<g opacity="0.5">
<path fill-rule="evenodd"   d="M77.6374 26.4272C62.2471 55.0451 31.5033 66.6799 2.9491 50.5687C1.99852 50.0322 0.793087 50.3676 0.256606 51.3064C-0.279876 52.262 0.055461 53.4691 1.00604 54.0056C31.6123 71.2903 64.621 58.9681 81.1178 28.3048C81.6341 27.3492 81.2737 26.142 80.3131 25.6223C79.3524 25.1193 78.1537 25.4715 77.6374 26.4272Z" fill="white"/>
<path d="M26.978 38.2953C30.1571 38.2953 32.7343 35.7181 32.7343 32.539C32.7343 29.3599 30.1571 26.7827 26.978 26.7827C23.7988 26.7827 21.2217 29.3599 21.2217 32.539C21.2217 35.7181 23.7988 38.2953 26.978 38.2953Z" fill="white"/>
<path d="M50.8088 32.1718C53.9258 32.1718 56.4527 29.6451 56.4527 26.5281C56.4527 23.4111 53.9258 20.8843 50.8088 20.8843C47.6918 20.8843 45.165 23.4111 45.165 26.5281C45.165 29.6451 47.6918 32.1718 50.8088 32.1718Z" fill="white"/>
</g>
</svg>
