<svg width="45" height="45" viewBox="0 0 45 45" fill="none" xmlns="http://www.w3.org/2000/svg">
<path d="M44.2406 25.5012C36.8892 26.1695 32.6655 26.7843 30.0724 28.816C27.0249 31.1952 26.3031 35.5526 25.5012 44.2674C24.6725 35.2318 23.924 30.9011 20.5824 28.5754C17.9894 26.7576 13.7924 26.1695 6.76172 25.5279C14.0864 24.8596 18.3369 24.2447 20.9032 22.2398C23.9774 19.8339 24.6992 15.5032 25.5012 6.76172C26.2497 14.8082 26.918 19.1121 29.4041 21.5982C31.8902 24.0844 36.2209 24.7794 44.2406 25.5012Z" fill="white"/>
<path d="M13.5266 6.75849C10.8734 6.99952 9.349 7.22127 8.41314 7.954C7.31325 8.81207 7.05276 10.3836 6.76331 13.5266C6.46422 10.2679 6.19408 8.70602 4.98806 7.86723C4.0522 7.21163 2.53745 6.99952 0 6.76813C2.64358 6.5271 4.17762 6.30535 5.10384 5.58226C6.21337 4.71455 6.47387 3.15268 6.76331 0C7.03346 2.90201 7.27466 4.45424 8.17193 5.35087C9.06921 6.24751 10.6322 6.49818 13.5266 6.75849Z" fill="white"/>
</svg>
