<svg width="119" height="114" viewBox="0 0 119 114" fill="none" xmlns="http://www.w3.org/2000/svg">
<path d="M61.8324 1.45947L78.8122 35.9779L116.769 41.5145C117.251 41.5862 117.703 41.7909 118.075 42.1056C118.446 42.4203 118.723 42.8325 118.873 43.2959C119.023 43.7592 119.041 44.2552 118.924 44.7281C118.807 45.2009 118.561 45.6319 118.213 45.9723L90.7521 72.8352L97.2356 110.774C97.3192 111.254 97.2667 111.747 97.0842 112.198C96.9016 112.649 96.5962 113.041 96.2027 113.327C95.8092 113.614 95.3433 113.784 94.8578 113.82C94.3722 113.855 93.8865 113.753 93.4557 113.527L59.5039 95.6181L25.552 113.532C25.1215 113.759 24.6358 113.862 24.1502 113.827C23.6645 113.792 23.1983 113.622 22.8045 113.335C22.4108 113.049 22.1053 112.658 21.9228 112.206C21.7403 111.755 21.6881 111.261 21.7721 110.782L28.2557 72.8352L0.787327 45.9723C0.439042 45.6319 0.192718 45.2009 0.0760968 44.7281C-0.0405245 44.2552 -0.0228115 43.7592 0.127241 43.2959C0.277294 42.8325 0.553726 42.4203 0.925407 42.1056C1.29709 41.7909 1.74926 41.5862 2.23099 41.5145L40.1878 35.9779L57.1754 1.45947C57.3872 1.02205 57.718 0.653145 58.1298 0.395023C58.5417 0.136902 59.0179 0 59.5039 0C59.9899 0 60.4661 0.136902 60.8779 0.395023C61.2897 0.653145 61.6205 1.02205 61.8324 1.45947V1.45947Z" fill="#F15E04"/>
</svg>
