<svg width="1440" height="242" viewBox="0 0 1440 242" fill="none" xmlns="http://www.w3.org/2000/svg">
<path fill-rule="evenodd" clip-rule="evenodd" d="M0 109.32L48.5499 98.3116C95.7877 87.3033 192.887 64.2859 288.675 48.2738C385.775 31.2609 481.563 20.2525 578.662 42.2692C674.45 64.2859 771.55 120.328 867.338 109.32C964.437 98.3116 1060.22 20.2526 1157.32 4.24043C1253.11 -12.7724 1350.21 31.2609 1397.45 53.2775L1446 76.295V241.42H1397.45C1350.21 241.42 1253.11 241.42 1157.32 241.42C1060.22 241.42 964.437 241.42 867.338 241.42C771.55 241.42 674.45 241.42 578.662 241.42C481.563 241.42 385.775 241.42 288.675 241.42C192.887 241.42 95.7877 241.42 48.5499 241.42H0V109.32Z" fill="#F15E04"/>
</svg>
