<svg width="345" height="94" viewBox="0 0 345 94" fill="none" xmlns="http://www.w3.org/2000/svg">
<path d="M265.977 13.5554C211.246 -4.94514 106.006 -1.81521 51.9851 14.3737C27.3828 21.7466 -17.9832 43.11 9.62223 63.2797C14.4911 66.8373 20.4095 69.7275 26.5327 72.2284C93.9218 99.7505 187.912 96.9476 260.236 80.4797C271.022 78.0237 281.636 75.108 291.401 71.1453C298.705 68.1816 305.765 64.5081 311.453 60.2212C328.102 47.6713 323.753 35.0414 305.84 24.4018C285.072 12.0659 256.671 8.24314 229.873 6.14955C206.44 4.31889 183.037 3.96736 159.493 4.7145C115.338 6.11552 64.4532 8.3448 27.4206 25.2101C11.2457 32.5767 -6.13211 48.3177 7.73266 61.0579C22.7569 74.8632 58.1825 79.3334 82.0099 82.2466C146.289 90.1057 247.997 86.2088 306.547 65.5852C312.861 63.3611 319.257 61.2885 324.905 58.3639C329.368 56.053 333.641 53.418 337.348 50.5664C363.618 30.357 304.999 17.6503 284.326 15.4681C219.291 8.60342 123.035 -1.30305 63.1411 16.9583" stroke="white" stroke-width="0.873615" stroke-miterlimit="1.5" stroke-linecap="round" stroke-linejoin="round"/>
</svg>
