<svg width="304" height="78" viewBox="0 0 304 78" fill="none" xmlns="http://www.w3.org/2000/svg">
<path d="M234.304 11.0649C186.115 -4.21814 93.454 -1.63255 45.8907 11.7409C24.2292 17.8316 -15.714 35.4796 8.59158 52.1415C12.8785 55.0804 18.0894 57.468 23.4807 59.5339C82.8146 82.2695 165.57 79.9541 229.248 66.3502C238.745 64.3213 248.091 61.9127 256.688 58.6392C263.119 56.1909 269.336 53.1563 274.343 49.6149C289.002 39.2476 285.173 28.8142 269.401 20.025C251.115 9.8345 226.11 6.67652 202.515 4.94703C181.883 3.43475 161.277 3.14436 140.548 3.76156C101.671 4.91893 56.8684 6.76051 24.2624 20.6927C10.021 26.7781 -5.27958 39.7816 6.92788 50.3061C20.1563 61.7105 51.3472 65.4033 72.3265 67.8098C128.922 74.3022 218.472 71.0829 270.024 54.046C275.583 52.2087 281.215 50.4966 286.188 48.0806C290.117 46.1716 293.879 43.9949 297.143 41.6392C320.273 24.9445 268.661 14.4476 250.459 12.645C193.198 6.97415 108.448 -1.20946 55.7131 13.876" stroke="white" stroke-width="0.873615" stroke-miterlimit="1.5" stroke-linecap="round" stroke-linejoin="round"/>
</svg>
